<svg width="96" height="43" fill="none" xmlns="http://www.w3.org/2000/svg"><path d="M48.0137 0c8.4088 0 15.6384 5.074 18.7912 12.3274 3.2159-3.2016 7.5339-4.9873 12.0766-4.9873C88.333 7.34 96 15.007 96 24.4586c0 9.4491-7.6694 17.1174-17.1185 17.1174-6.0906 0-11.6866-3.2243-14.7634-8.4493-3.7497 4.7673-9.5716 7.831-16.1044 7.831-6.3438 0-12.0159-2.8877-15.7728-7.4197-3.066 5.3856-8.7714 8.7287-14.9952 8.7287C7.7229 42.2667 0 34.5414 0 25.0198c0-9.5241 7.7205-17.247 17.2457-17.247 4.444 0 8.6752 1.6977 11.8899 4.7579C32.2398 5.168 39.524 0 48.0137 0zm-17.493 31.1282c-1.8939-3.103-2.9853-6.7481-2.9853-10.6487 0-1.775.2259-3.4989.6515-5.1419l-.1486-.1629c-2.7772-3.0411-6.6708-4.7614-10.7926-4.7614-8.0664 0-14.6064 6.54-14.6064 14.6065 0 3.3312 1.1199 6.5292 3.1921 9.1186.2615-.5457.5588-1.0843.9083-1.567 1.9236-2.6595 3.5559-.913 5.2821-2.3444.3615-.3008.5612-.7002.6587-1.1461a8.1859 8.1859 0 01-1.1818-1.1591c-1.4623-1.7536-2.1934-4.035-2.1934-6.3034 0-4.3941 2.9817-9.0425 7.755-9.0425s7.755 4.6484 7.755 9.0425c0 2.2684-.7336 4.5498-2.1947 6.3034a8.3157 8.3157 0 01-1.1805 1.1603c.0963.4458.296.8441.6562 1.1449 1.7251 1.4314 3.3586-.3151 5.2834 2.3444.4077.5636.7513 1.2103 1.0426 1.8582.7965-.9451 1.4718-1.9877 2.0032-3.1041l.0952-.1973zm-11.4572-.7704c-1.3042.4018-2.7058.4018-4.0077-.0024-.277.7466-.7287 1.3862-1.3505 1.9034-1.857 1.5384-4.0445.7739-4.8304 1.8606-.4304.5944-.781 1.3565-1.0605 2.0591 2.6429 2.2327 5.9634 3.4489 9.4313 3.4489 3.3408 0 6.5495-1.1282 9.1496-3.2171-.2984-.7751-.6801-1.6406-1.1532-2.2909-.7835-1.0867-2.9722-.3222-4.8268-1.8606-.6242-.516-1.0748-1.1568-1.3518-1.901zm2.9567-10.3123c-1.8915-.038-2.5025-.4149-4.2525.8275-1.8321 1.2982-3.5239 1.9973-5.7494 1.8451.1783 1.278.6741 2.5252 1.5027 3.5191 1.9712 2.367 5.1062 2.367 7.0774 0 1.0664-1.2805 1.5776-2.9663 1.5776-4.6188a7.9065 7.9065 0 00-.1558-1.5729zm-9.9258.0274c1.6275.1165 2.8556-.4352 4.1991-1.3839 2.1447-1.5146 2.5073-1.3303 4.6116-1.2863-.8905-1.2686-2.241-2.1876-3.8448-2.1876-2.6821 0-4.4726 2.4301-4.9659 4.8578zm55.6735-5.0075a20.482 20.482 0 01.7264 5.4141c0 3.7318-1.001 7.2319-2.7486 10.2456l.0915.1843a14.5112 14.5112 0 001.7048 2.6643c.2616-.5541.5636-1.1009.9178-1.5919 1.9034-2.6322 3.5215-.8952 5.2477-2.3255.3674-.3055.5695-.7157.6658-1.1722-2.2196-1.7655-3.3586-4.6092-3.3586-7.409 0-4.3525 2.952-8.9605 7.6825-8.9605 4.7281 0 7.6813 4.608 7.6813 8.9605 0 2.7986-1.139 5.6471-3.3574 7.4102.0939.4553.2972.8655.6658 1.171 1.7238 1.4303 3.3431-.3055 5.2465 2.3255.4125.5718.7585 1.2269 1.0533 1.8819 2.2291-2.6297 3.4441-5.9431 3.4441-9.4051 0-8.0368-6.5114-14.5506-14.5493-14.5506-4.2253 0-8.2068 1.8166-10.9792 5.0016l-.1344.1558zm20.2405 20.7255c-.296-.7775-.68-1.6478-1.1532-2.304-.7941-1.0962-2.9579-.3234-4.8066-1.8535-.6218-.5171-1.07-1.1567-1.3434-1.9045a6.6451 6.6451 0 01-2.008.3091 6.6925 6.6925 0 01-2.0104-.3091c-.2722.7466-.7204 1.3874-1.3434 1.9045-1.8475 1.5313-4.0101.7562-4.8054 1.8535-.4328.5992-.7859 1.3672-1.0652 2.0722 2.6345 2.2327 5.9479 3.4489 9.4087 3.4489 3.3336 0 6.5364-1.1283 9.1269-3.2171zm-7.8893-20.8563c.3626 1.7868 1.4183 3.5107 3.3157 3.7378-.535-1.6323-1.6822-3.1481-3.3157-3.7378zm3.6855 6.3248c-2.3789-.0773-3.9304-1.0332-5.1074-3.0328-1.1794 1.9984-2.7285 2.9555-5.1086 3.0328.0987 2.8842 1.882 6.2094 5.1086 6.2094 3.2254 0 5.0087-3.3252 5.1074-6.2094zm-9.8462-2.587c1.8986-.2271 2.9519-1.9545 3.3157-3.739-1.6359.5897-2.7819 2.1067-3.3157 3.739zm-22.415-5.0373c2.2886 2.3124 3.5298 1.9819 3.5298 5.797a9.5253 9.5253 0 01-.1891 1.895c.3591.0416.6896.0618.9999.0618 1.4017 0 3.3157-.5718 3.3157-2.2493v-5.0051c0-3.122-2.8711-5.1906-6.5268-6.137-3.0138-.7775-6.5127-.7941-9.5265-.0142-3.5535.9201-6.3176 2.9698-6.3176 6.1512v5.0051c0 1.6941 1.9533 2.2493 3.3169 2.2493.3091 0 .6408-.0202.9987-.0618a9.6151 9.6151 0 01-.189-1.895c0-3.8567.8809-3.1244 3.5261-5.7946 3.1577-3.1826 3.9043-3.1826 7.0619-.0024zm2.5537 9.964a8.394 8.394 0 01-.913 1.4195c.1105 1.0057.5136 1.6584 1.3053 2.2053 2.6132 1.7845 4.5677-.6182 7.1344 3.1767.2509.3745.4887.7799.7074 1.1924 2.3825-3.0661 3.8044-6.9252 3.8044-11.1135 0-10.0103-8.1093-18.122-18.1219-18.122-10.0055 0-18.1196 8.1141-18.1196 18.122 0 4.186 1.4219 8.0427 3.8056 11.1088.2187-.4114.4529-.8156.705-1.1877 2.5406-3.758 4.2288-1.3874 7.0583-3.1327.8298-.5005 1.2721-1.2578 1.3815-2.2517-.3472-.4304-.6515-.9059-.9119-1.4171-.6491.101-1.2436.1474-1.7869.1474-2.732 0-5.6744-1.523-5.6744-4.6069v-5.0051c0-4.4642 3.5369-7.2474 8.0867-8.4267 3.3882-.8786 7.3163-.8608 10.7033.0154 4.6473 1.1996 8.296 4.0148 8.296 8.4113v5.0051c0 3.0839-2.9413 4.6069-5.6733 4.6069-.5457 0-1.1389-.0464-1.7869-.1474zm-2.9056 3.1588c-1.9723 1.1532-4.3833 1.1544-6.3557 0-.4054 1.0391-1.1674 1.92-2.1162 2.5014-2.9424 1.8261-4.7317.0463-6.3616 2.4597-.3626.535-.6895 1.1532-.9725 1.7596 3.2623 3.1671 7.7181 5.1216 12.6282 5.1216 4.9088 0 9.3671-1.9521 12.6281-5.1205-.2817-.6075-.6098-1.2257-.9713-1.7607-1.6691-2.4669-3.6225-.5766-6.5138-2.5548-.8762-.5897-1.5776-1.4112-1.9652-2.4063zm-1.3161-11.4643c-2.1673-2.1851-1.5574-2.1851-3.7259.0024-1.6763 1.6918-2.8366 1.7595-2.8366 4.1361 0 1.6537.5528 3.1421 1.4468 4.2062 1.8131 2.1637 4.6973 2.1673 6.5091 0 .8928-1.0641 1.4469-2.5525 1.4469-4.2062 0-2.3706-1.0558-2.3374-2.8403-4.1385z" fill="#33F"/></svg>