<svg width="52" height="50" viewBox="0 0 52 50" fill="none" xmlns="http://www.w3.org/2000/svg">
<path d="M29.4872 0V15.8345C29.4872 19.7931 31.3342 20.5128 33.1812 20.5128C35.8409 20.5128 46.3567 20.5128 51.2821 20.5128" stroke="white" stroke-width="3.5"/>
<path d="M29.4872 50V34.1655C29.4872 30.2069 31.3029 29.4872 33.1186 29.4872C35.7333 29.4872 46.4401 29.4872 51.2821 29.4872" stroke="white" stroke-width="3.5"/>
<path d="M20.5128 0V15.8345C20.5128 19.7931 18.7744 20.5128 17.0361 20.5128C14.5328 20.5128 4.63566 20.5128 -3.8445e-06 20.5128" stroke="white" stroke-width="3.5"/>
<path d="M20.5128 50V34.1655C20.5128 30.2069 18.8039 29.4872 17.095 29.4872C14.6342 29.4872 4.55709 29.4872 -3.8445e-06 29.4872" stroke="white" stroke-width="3.5"/>
</svg>
