<svg width="66" height="38" fill="none" xmlns="http://www.w3.org/2000/svg"><path d="M63.9778 10.9979H41.6611V3.4131h16.5394l.0735.0531 2.7412-2.3285h2.6417v2.2754h2.2755v3.9456c0 .6387 0 1.423-.1745 2.0866-.3557 1.3509-1.2681 1.5526-1.7801 1.5526zM43.178 9.4809h20.7998c.0857 0 .2025 0 .3132-.4217.1244-.4733.1244-1.149.1244-1.6929V4.9301H62.14V2.6546h-.5681l-3.2205 2.7359-.6402-.4604H43.178V9.481z" fill="#fff"/><path d="M26.1122 27.9772c-3.8561 0-6.447-2.8655-6.447-7.1312V7.3838l5.1986-4.7291H43.178l-.0326 7.3549-2.8413 9.3316h-7.7448v1.2386c0 4.2869-2.7116 7.3974-6.4471 7.3974zM21.1821 8.055v12.791c0 3.4109 1.9349 5.6143 4.9301 5.6143 3.3874 0 4.9301-3.0484 4.9301-5.8805v-2.7556H39.18l2.481-8.1483V4.1716H25.4508L21.1821 8.055zm5.2123 17.3161c-2.3816 0-4.3188-1.9379-4.3188-4.3188 0-2.3808 1.9372-4.3188 4.3188-4.3188 2.3816 0 4.3188 1.9372 4.3188 4.3188 0 2.3816-1.938 4.3188-4.3188 4.3188zm-.7585-7.0159c-1.1772.3314-2.0433 1.4153-2.0433 2.6971 0 1.545 1.2568 2.8018 2.8018 2.8018 1.545 0 2.8018-1.2568 2.8018-2.8018 0-1.2818-.8662-2.3657-2.0433-2.6971v2.9709h-1.517v-2.9709z" fill="#fff"/><path d="M37.8489 15.9993H26.3587c-.7918 0-1.4365-.6439-1.4365-1.4365V4.4963c0-.7919.6447-1.4366 1.4365-1.4366h11.4902c.7919 0 1.4366.6447 1.4366 1.4365v10.0666c0 .7926-.644 1.4365-1.4366 1.4365zm-11.1215-1.8051h10.7537V4.8649H26.7274v9.3293zM17.0833 37.685H3.2024c-.879 0-1.7293-.3671-2.333-1.0073-.6076-.6447-.914-1.4851-.8617-2.3649C1.2994 12.3662 19.8639 9.5356 20.0513 9.509l.2495 1.7878c-.7054.1001-17.288 2.685-18.491 23.1214-.022.3793.1108.7418.3732 1.0209.2678.2837.6296.4407 1.0194.4407h12.0757V24.5481c0-2.7464 2.2345-4.9809 4.981-4.9809v1.8052c-1.7514 0-3.1758 1.4244-3.1758 3.1757V37.685zM22.2083 6.8832c-4.2573 0-5.5111-4.0677-5.794-5.3147a1.2774 1.2774 0 01.2488-1.0838A1.2832 1.2832 0 0117.6704 0h3.4161v.9026c0 1.7551 3.8091 1.9546 3.8478 1.9561l-.0569 1.8044c-1.8385-.0584-4.8034-.7425-5.4633-2.858h-1.0657c.4225 1.3145 1.4556 3.273 3.8592 3.273v1.805h.0007z" fill="#fff"/><path d="M38.3973 8.8014H25.7595v1.8052h12.6378V8.8014zM64.7726 7.4467H42.9633c-.3618 0-.6545-.3026-.6545-.6773 0-.3747.2927-.6773.6545-.6773h21.8093c.3618 0 .6546.3026.6546.6773 0 .3747-.2935.6773-.6546.6773z" fill="#fff"/></svg>