<svg width="65" height="45" viewBox="0 0 65 45" fill="none" xmlns="http://www.w3.org/2000/svg">
<path d="M36.3654 45C35.4975 45 34.6265 44.9173 33.765 44.7489L14.7042 40.0997C13.3572 39.6864 12.5632 39.7937 11.2376 40.5392L8.98376 41.8251C8.70878 41.9816 8.38294 42.0245 8.07776 41.9387C7.77338 41.8553 7.5135 41.6534 7.35774 41.3784L0.1551 28.6786C-0.168355 28.1072 0.0303274 27.3824 0.600149 27.0574L6.31585 23.7918C8.41473 22.5878 11.2845 20.9395 15.65 22.0379L38.9379 28.4029C40.0553 28.7327 40.9732 29.4638 41.5478 30.4676C41.7918 30.8999 41.9547 31.3569 42.0421 31.8202L56.6135 23.4882C59.1304 22.0657 62.334 22.9582 63.7605 25.4719C65.1823 27.9697 64.3033 31.1741 61.7991 32.6117L43.092 43.2262C41.0289 44.3952 38.7075 45 36.3654 45ZM13.3381 37.4779C13.946 37.4779 14.6025 37.5788 15.3376 37.8061L34.2752 42.4243C36.851 42.9265 39.584 42.4783 41.9174 41.1543L60.6197 30.5431C61.9835 29.7603 62.4667 28.0118 61.691 26.6489C60.9114 25.2732 59.1646 24.7837 57.7921 25.5585L41.5319 34.8584C41.1544 35.5181 40.6029 36.0895 39.8995 36.4924C39.0007 37.0034 37.935 37.1806 36.8931 36.9955L25.1223 34.1861C23.97 33.9691 22.8407 33.9556 21.9108 34.1583C21.3331 34.2807 20.7958 34.4961 20.0512 34.9014C19.4766 35.2161 18.7518 35.0039 18.4355 34.4253C18.1208 33.8483 18.3338 33.1251 18.9115 32.8096C19.5807 32.4441 20.4016 32.0427 21.4109 31.8289C22.6619 31.5571 24.0812 31.5651 25.6198 31.8568L37.3779 34.6645C37.8094 34.7384 38.3061 34.6574 38.7186 34.4237C39.6866 33.8682 40.0291 32.6205 39.4791 31.6454C39.2137 31.182 38.7901 30.8427 38.287 30.6941L15.0467 24.3418C11.6366 23.4851 9.44232 24.7455 7.50238 25.8581L2.81347 28.5364L8.8415 39.1651L10.0646 38.4673C11.1136 37.876 12.1293 37.4779 13.3381 37.4779Z" fill="white"/>
<path d="M33.4225 19.0195C30.0624 19.0195 27.431 14.8813 27.431 9.59716C27.431 4.31141 30.0624 0.171661 33.4225 0.171661C36.7842 0.171661 39.4171 4.31141 39.4171 9.59716C39.4171 14.8813 36.7842 19.0195 33.4225 19.0195ZM33.4225 2.55267C31.7154 2.55267 29.812 5.44628 29.812 9.59716C29.812 13.7464 31.7154 16.6385 33.4225 16.6385C35.1312 16.6385 37.0361 13.7464 37.0361 9.59716C37.0361 5.44628 35.1312 2.55267 33.4225 2.55267Z" fill="white"/>
<path d="M33.2183 19.1164C32.5944 19.1172 32.0707 18.6309 32.0317 17.9998C31.9904 17.3434 32.4895 16.7783 33.1459 16.7378L37.4661 16.4692C39.2487 16.4668 41.1536 13.574 41.1536 9.42391C41.1536 5.27383 39.2495 2.38101 37.54 2.38101L33.3406 2.45731C32.6921 2.43267 32.1406 1.9455 32.1287 1.28826C32.1168 0.631015 32.6397 0.0882148 33.2977 0.0762939L37.4534 0C40.9025 0 43.5346 4.13895 43.5346 9.42391C43.5346 14.7089 40.9017 18.8478 37.54 18.8478L33.2938 19.1141C33.2683 19.1156 33.2429 19.1164 33.2183 19.1164Z" fill="white"/>
</svg>
