<svg width="31" height="34" viewBox="0 0 31 34" fill="none" xmlns="http://www.w3.org/2000/svg">
<rect width="31" height="34" fill="#E5E5E5"/>
<rect width="375" height="812" transform="translate(-32 -441)" fill="#3333FF"/>
<rect x="-15" y="-17" width="335" height="70" rx="5" fill="white"/>
<path d="M7.37351 23.4489C7.34529 22.9665 6.93133 22.5983 6.44891 22.6265C5.96648 22.6547 5.59828 23.0687 5.62649 23.5511L7.37351 23.4489ZM7.05044 32.9109L6.17693 32.962C6.20399 33.4247 6.58703 33.7859 7.05044 33.7859V32.9109ZM11.1675 32.9109V33.7859C11.4054 33.7859 11.633 33.6891 11.798 33.5177C11.9629 33.3463 12.051 33.1151 12.0419 32.8774L11.1675 32.9109ZM5.62649 23.5511L6.17693 32.962L7.92395 32.8599L7.37351 23.4489L5.62649 23.5511ZM7.05044 33.7859H11.1675V32.0359H7.05044V33.7859ZM12.0419 32.8774L11.3744 15.4665L9.62564 15.5335L10.2932 32.9445L12.0419 32.8774Z" fill="#3333FF"/>
<mask id="path-3-inside-1" fill="white">
<path d="M25.0366 8.0248C27.266 8.0248 29.0732 6.22839 29.0732 4.0124C29.0732 1.79641 27.266 0 25.0366 0C22.8072 0 21 1.79641 21 4.0124C21 6.22839 22.8072 8.0248 25.0366 8.0248Z"/>
</mask>
<path d="M25.0366 8.0248C27.266 8.0248 29.0732 6.22839 29.0732 4.0124C29.0732 1.79641 27.266 0 25.0366 0C22.8072 0 21 1.79641 21 4.0124C21 6.22839 22.8072 8.0248 25.0366 8.0248Z" stroke="#3333FF" stroke-width="3.5" mask="url(#path-3-inside-1)"/>
<path d="M21.8777 10.7469C21.3933 9.14162 20.8282 7.53702 19.8592 6.09277C18.8097 4.80887 17.2759 3.60497 14.9348 4.48709C12.4323 5.53099 7.50757 7.37595 5.89329 8.09808C2.03887 9.9307 2.58665 12.9147 2.58316 12.9133L1 32.911H4.94289L5.81746 27.4205L7.48468 16.4962L9.69489 15.5846L17.9215 12.1912L19.8592 19H24C23.7096 18.1744 22.2819 12.0849 21.8777 10.7469Z" stroke="#3333FF" stroke-width="1.75" stroke-linejoin="round"/>
<path d="M16 19L17.7748 31.678C17.9179 32.4558 18.491 33 19.2072 33H24.8648C25.581 33 26.2255 32.4558 26.2255 31.678L28 19H16Z" stroke="#3333FF" stroke-width="1.75" stroke-linejoin="round"/>
</svg>
