<svg width="17" height="20" viewBox="0 0 17 20" fill="none" xmlns="http://www.w3.org/2000/svg">
<mask id="path-1-inside-1" fill="white">
<path d="M0 6.17681C0 5.45047 0.393784 4.78123 1.02871 4.42849L7.96893 0.572816C8.60511 0.219382 9.38307 0.239419 10.0002 0.625134L16.06 4.4125C16.6448 4.77798 17 5.41892 17 6.1085V18C17 19.1046 16.1046 20 15 20H2C0.89543 20 0 19.1046 0 18V6.17681Z"/>
</mask>
<path d="M0 6.17681C0 5.45047 0.393784 4.78123 1.02871 4.42849L7.96893 0.572816C8.60511 0.219382 9.38307 0.239419 10.0002 0.625134L16.06 4.4125C16.6448 4.77798 17 5.41892 17 6.1085V18C17 19.1046 16.1046 20 15 20H2C0.89543 20 0 19.1046 0 18V6.17681Z" stroke="white" stroke-width="4" mask="url(#path-1-inside-1)"/>
</svg>
