<svg width="33" height="26" viewBox="0 0 33 26" fill="none" xmlns="http://www.w3.org/2000/svg">
<path d="M32.5733 13.8442L27.5532 2.78732C27.4395 2.53134 27.1835 2.3678 26.9062 2.3678H19.369C19.0206 1.0168 17.7834 0 16.3186 0C14.8539 0 13.6166 1.0168 13.2682 2.3678H5.73107C5.45376 2.3678 5.19778 2.51712 5.08402 2.76599L0.0639946 13.8157C0.0213315 13.9579 0 14.0219 0 14.1286C0 17.2857 2.574 19.8668 5.73107 19.8668C8.88814 19.8668 11.4621 17.2999 11.4621 14.1428C11.4621 14.0361 11.4408 13.9437 11.3982 13.8513L6.8332 3.7899H13.2398C13.4886 4.99869 14.4201 5.92306 15.6076 6.20037V20.9262H12.4363C11.2204 20.9262 10.2036 21.943 10.2036 23.1589V24.6521C10.2036 25.0432 10.5449 25.3348 10.9431 25.3348H21.6231C22.0141 25.3348 22.3626 25.0432 22.3626 24.6521V23.1589C22.3626 21.943 21.3458 20.9262 20.1299 20.9262H17.0297V6.20037C18.21 5.92306 19.1415 4.99869 19.3975 3.7899H25.804L21.2391 13.8513C21.1964 13.9437 21.1751 14.0433 21.1751 14.1428C21.1751 17.2999 23.7491 19.8739 26.9062 19.8739C30.0632 19.8739 32.6372 17.2999 32.6372 14.1428C32.6372 14.0361 32.6159 13.9366 32.5733 13.8442ZM5.73107 4.82804L9.64896 13.4602H1.81318L5.73107 4.82804ZM5.73107 18.4802C3.59792 18.4802 1.82029 16.8732 1.47899 14.8823H9.97605C9.64185 16.8732 7.86423 18.4802 5.73107 18.4802ZM20.9405 23.1589V23.9126H11.6257V23.1589C11.6257 22.7252 12.0025 22.3483 12.4363 22.3483H20.1299C20.5636 22.3483 20.9405 22.7252 20.9405 23.1589ZM16.3186 4.86359C15.3658 4.86359 14.5979 4.08854 14.5979 3.14285C14.5979 2.19715 15.3729 1.4221 16.3186 1.4221C17.2643 1.4221 18.0394 2.19715 18.0394 3.14285C18.0394 4.08854 17.2714 4.86359 16.3186 4.86359ZM30.8241 13.4602H22.9883L26.9062 4.82804L30.8241 13.4602ZM26.9062 18.4802C24.773 18.4802 22.9954 16.8732 22.6541 14.8823H31.1512C30.817 16.8732 29.0393 18.4802 26.9062 18.4802Z" fill="#3333FF"/>
</svg>
