<svg width="45" height="22" viewBox="0 0 45 22" fill="none" xmlns="http://www.w3.org/2000/svg">
<path fill-rule="evenodd" clip-rule="evenodd" d="M2 7.29091C2 11.2809 4.85 14.1309 8.66 14.1309C11.48 14.1309 12.65 12.8709 13.16 12.1509H13.52V14.5509C13.52 16.9509 12.11 18.2709 9.62 18.2709C7.72096 18.2709 6.61279 17.3135 6.29548 15.9882L2.44062 17.1447C3.27079 20.1185 6.01198 21.8109 9.62 21.8109C14.09 21.8109 17.48 19.2609 17.48 14.3109V6.96091C17.48 2.85091 14.21 -0.0590883 9.8 0.0009109C5.24 0.0609119 2 2.94091 2 7.29091ZM9.74 11.0409C7.49 11.0409 5.96 9.57091 5.96 7.29091C5.96 5.01091 7.55 3.54091 9.74 3.54091C11.93 3.54091 13.52 4.95091 13.52 7.29091C13.52 9.57091 11.99 11.0409 9.74 11.0409ZM23.7908 0.42091L18.3908 9.90091H22.5308L25.4708 4.62091H25.8308V21.4209H29.7908V0.42091H23.7908ZM31.5451 9.90091L36.9451 0.42091H42.9451V21.4209H38.9851V4.62091H38.6251L35.6851 9.90091H31.5451Z" fill="black"/>
<rect y="11" width="45" height="4" fill="#3333FF"/>
</svg>
