<svg width="21" height="30" viewBox="0 0 21 30" fill="none" xmlns="http://www.w3.org/2000/svg">
<path d="M10.3003 21.4615C10.2462 21.4616 10.1915 21.4572 10.1364 21.4482C9.57307 21.3563 9.18922 20.8146 9.27908 20.2383C9.61679 18.0715 8.74668 17.3346 7.54242 16.3145C6.62348 15.5362 5.58191 14.654 5.31123 13.0766C5.1804 12.3139 4.83711 9.67663 5.91222 7.76102C6.40744 6.8786 7.20457 6.22461 8.28147 5.81726C9.02606 5.53561 9.89612 5.37207 10.9413 5.31726C11.9658 5.26372 12.8952 5.43466 13.7033 5.82564C14.5909 6.25508 15.3127 6.93813 15.8488 7.85591C17.0356 9.88811 16.253 12.3375 15.5611 14.0031C15.338 14.5402 14.7316 14.7906 14.2065 14.5623C13.6815 14.334 13.4368 13.7135 13.6599 13.1765C14.4794 11.2038 14.6115 9.85765 14.0755 8.9399C13.4384 7.84915 12.4474 7.35451 11.047 7.42791C9.2681 7.52115 8.17447 7.97433 7.70365 8.81331C7.12339 9.84726 7.14825 11.5592 7.34583 12.7112C7.47828 13.4831 8.00738 13.9647 8.85974 14.6866C9.51179 15.239 10.2509 15.865 10.7678 16.7792C11.3703 17.8447 11.5506 19.085 11.319 20.5711C11.2379 21.091 10.799 21.4615 10.3003 21.4615Z" fill="#3333FF" stroke="white" stroke-width="0.25"/>
<path d="M9.45802 29C9.15389 29 8.8496 28.9737 8.54589 28.921C7.62925 28.762 6.76723 28.369 5.98382 27.7529C4.48025 26.5704 4.43726 24.9562 4.39566 23.3952C4.39118 23.2272 4.38656 23.0535 4.38029 22.8796C4.35928 22.2981 4.81225 21.8097 5.39199 21.7887C5.97146 21.7671 6.45873 22.2219 6.47971 22.8033C6.48632 22.9873 6.49112 23.1661 6.49571 23.339C6.53503 24.8145 6.58478 25.5481 7.28014 26.0949C8.25038 26.8579 9.38978 27.082 10.4885 26.726C11.7563 26.3151 12.7931 25.193 13.1944 23.7975C13.3017 23.4242 13.3975 23.0551 13.4902 22.6981C13.8367 21.3639 14.1639 20.1038 15.0211 18.7385C15.3548 18.2068 15.71 17.6944 16.0535 17.1987C16.7697 16.1653 17.4461 15.1891 17.9106 14.0934C19.0356 11.4389 18.8966 8.15334 17.5647 5.91775C15.9904 3.27534 12.8148 3.03189 11.0615 3.12185C7.42471 3.30863 5.10786 4.22924 4.17536 5.85808C3.07305 7.78362 2.96752 8.98023 2.94696 11.909C2.9429 12.4883 2.47338 12.955 1.89675 12.9551C1.89419 12.9551 1.89174 12.9551 1.88922 12.955C1.30912 12.951 0.842156 12.476 0.846218 11.8942C0.86698 8.9323 0.943484 7.27199 2.35349 4.80902C3.13173 3.44965 4.47294 2.43901 6.33986 1.80525C7.62579 1.36874 9.13513 1.11113 10.9541 1.01773C12.6541 0.93036 14.268 1.16711 15.621 1.70226C17.2526 2.3476 18.5133 3.40232 19.3681 4.83705C20.2193 6.26584 20.7015 8.00115 20.7626 9.85547C20.8204 11.6125 20.5028 13.363 19.844 14.9175C19.2948 16.2132 18.524 17.3255 17.7785 18.4011C17.4484 18.8774 17.1071 19.3699 16.7988 19.861C16.1149 20.9503 15.8407 22.0063 15.5232 23.229C15.4271 23.599 15.3278 23.9816 15.2129 24.3812C14.9184 25.4055 14.3829 26.3494 13.6644 27.1108C12.9529 27.8648 12.0781 28.425 11.1344 28.7308C10.5811 28.9101 10.0201 29 9.45802 29Z" fill="#3333FF" stroke="white" stroke-width="0.25"/>
</svg>
