<svg width="33" height="30" viewBox="0 0 33 30" fill="none" xmlns="http://www.w3.org/2000/svg">
<path d="M21.4874 21.6687C21.4328 21.6687 21.3775 21.6643 21.3218 21.6552C20.7528 21.5624 20.3651 21.0152 20.4559 20.4331C20.797 18.2446 19.9181 17.5002 18.7018 16.47C17.7736 15.6838 16.7216 14.7927 16.4482 13.1995C16.316 12.4291 15.9693 9.76538 17.0552 7.83052C17.5554 6.93925 18.3605 6.27869 19.4483 5.86724C20.2003 5.58276 21.0791 5.41758 22.1348 5.36222C23.1696 5.30814 24.1083 5.4808 24.9246 5.8757C25.8211 6.30946 26.5502 6.99937 27.0916 7.92637C28.2904 9.97899 27.4999 12.453 26.801 14.1353C26.5756 14.6778 25.9632 14.9307 25.4328 14.7001C24.9026 14.4696 24.6554 13.8428 24.8808 13.3004C25.7084 11.3079 25.8418 9.94821 25.3005 9.02125C24.657 7.91954 23.656 7.41993 22.2415 7.49407C20.4448 7.58824 19.3402 8.04598 18.8646 8.89339C18.2785 9.93772 18.3037 11.6669 18.5032 12.8305C18.637 13.6101 19.1714 14.0965 20.0323 14.8257C20.6909 15.3836 21.4374 16.0159 21.9596 16.9393C22.5681 18.0155 22.7503 19.2683 22.5163 20.7693C22.4344 21.2944 21.9911 21.6686 21.4874 21.6687Z" fill="#3333FF"/>
<path d="M20.6367 29.2829C20.3295 29.2829 20.0222 29.2564 19.7154 29.2032C18.7896 29.0426 17.9189 28.6456 17.1276 28.0233C15.6089 26.829 15.5655 25.1985 15.5235 23.6219C15.519 23.4522 15.5143 23.2767 15.508 23.101C15.4867 22.5137 15.9443 22.0204 16.5298 21.9992C17.1151 21.9774 17.6073 22.4367 17.6285 23.024C17.6351 23.2098 17.64 23.3904 17.6446 23.565C17.6843 25.0554 17.7346 25.7963 18.4369 26.3487C19.4169 27.1193 20.5678 27.3457 21.6775 26.9861C22.958 26.5711 24.0053 25.4377 24.4106 24.0282C24.519 23.6511 24.6158 23.2783 24.7094 22.9177C25.0593 21.5702 25.3898 20.2974 26.2556 18.9183C26.5927 18.3813 26.9515 17.8637 27.2984 17.3631C28.0218 16.3193 28.705 15.3333 29.1742 14.2266C30.3105 11.5454 30.1701 8.22687 28.8248 5.96881C27.2347 3.29987 24.7193 2.13479 22.2563 2.13479C19.164 2.13479 16.6389 3.02175 15.301 5.90855C14.1876 7.85343 14.081 9.06206 14.0602 12.0203C14.0561 12.6053 13.5819 13.0768 12.9995 13.0768C12.9969 13.0768 12.9944 13.0768 12.9919 13.0768C12.4059 13.0727 11.9343 12.5929 11.9384 12.0053C11.9594 9.01365 12.0366 7.33666 13.4608 4.84896C14.2468 3.47593 15.6015 1.44509 17.4872 0.804963C18.7861 0.364064 20.3106 0.103872 22.1478 0.00952787C23.8649 -0.0787159 25.3728 0.461133 26.7394 1.00166C28.7595 2.01171 29.7829 3.42812 30.6463 4.87726C31.5061 6.32041 31.9931 8.07315 32.0548 9.9461C32.1133 11.7208 31.7924 13.4888 31.127 15.059C30.5723 16.3677 29.7937 17.4912 29.0408 18.5776C28.7074 19.0586 28.3626 19.5561 28.0512 20.0522C27.3605 21.1524 27.0835 22.219 26.7628 23.454C26.6658 23.8277 26.5654 24.2141 26.4494 24.6177C26.1519 25.6524 25.6111 26.6058 24.8853 27.3748C24.1667 28.1363 23.2831 28.7021 22.33 29.011C21.7711 29.1921 21.2044 29.2829 20.6367 29.2829Z" fill="#3333FF"/>
<mask id="path-3-inside-1" fill="white">
<path d="M6.52512 15.8752C6.52512 18.3204 5.67215 20.595 4.19366 22.4146C3.73874 22.9833 3.7956 23.8931 4.36425 24.348L4.42112 24.4049C5.04663 24.9167 5.95647 24.8598 6.46826 24.2343C8.3448 21.9597 9.42523 19.0596 9.42523 15.8752C9.42523 12.6907 8.28793 9.79062 6.46825 7.51603C5.95647 6.89051 5.04663 6.83365 4.42112 7.34543L4.36425 7.4023C3.7956 7.91408 3.68187 8.76706 4.19366 9.3357C5.61528 11.1554 6.52512 13.3731 6.52512 15.8752Z"/>
</mask>
<path d="M6.52512 15.8752C6.52512 18.3204 5.67215 20.595 4.19366 22.4146C3.73874 22.9833 3.7956 23.8931 4.36425 24.348L4.42112 24.4049C5.04663 24.9167 5.95647 24.8598 6.46826 24.2343C8.3448 21.9597 9.42523 19.0596 9.42523 15.8752C9.42523 12.6907 8.28793 9.79062 6.46825 7.51603C5.95647 6.89051 5.04663 6.83365 4.42112 7.34543L4.36425 7.4023C3.7956 7.91408 3.68187 8.76706 4.19366 9.3357C5.61528 11.1554 6.52512 13.3731 6.52512 15.8752Z" fill="#3333FF" stroke="white" stroke-width="0.5" mask="url(#path-3-inside-1)"/>
<mask id="path-4-inside-2" fill="white">
<path d="M0.497463 20.993C1.12298 21.5048 2.03282 21.4479 2.5446 20.8224C3.62503 19.4576 4.25055 17.7517 4.25055 15.8751C4.25055 13.9986 3.62503 12.2927 2.5446 10.9279C2.03282 10.3024 1.12298 10.2455 0.497463 10.7573C-0.0711869 11.2691 -0.128051 12.1221 0.326868 12.6907C1.00925 13.6005 1.4073 14.681 1.4073 15.8751C1.4073 17.0693 1.00925 18.2066 0.326869 19.0596C-0.184916 19.6851 -0.0711861 20.5381 0.497463 20.993Z"/>
</mask>
<path d="M0.497463 20.993C1.12298 21.5048 2.03282 21.4479 2.5446 20.8224C3.62503 19.4576 4.25055 17.7517 4.25055 15.8751C4.25055 13.9986 3.62503 12.2927 2.5446 10.9279C2.03282 10.3024 1.12298 10.2455 0.497463 10.7573C-0.0711869 11.2691 -0.128051 12.1221 0.326868 12.6907C1.00925 13.6005 1.4073 14.681 1.4073 15.8751C1.4073 17.0693 1.00925 18.2066 0.326869 19.0596C-0.184916 19.6851 -0.0711861 20.5381 0.497463 20.993Z" fill="#3333FF" stroke="white" stroke-width="0.5" mask="url(#path-4-inside-2)"/>
</svg>
