<svg width="32" height="31" viewBox="0 0 32 31" fill="none" xmlns="http://www.w3.org/2000/svg">
<mask id="path-1-outside-1" maskUnits="userSpaceOnUse" x="0" y="0" width="32" height="31" fill="black">
<rect fill="white" width="32" height="31"/>
<path d="M28.0432 19.8568C25.9676 18.204 24.2479 18.1525 22.106 19.6784C22.1053 19.6788 22.1053 19.6788 22.1053 19.6791C22.1046 19.6791 22.1046 19.6794 22.1046 19.6794C21.7517 19.9328 20.7079 20.8583 20.59 20.9636C20.397 21.1357 19.9566 21.2457 19.7065 21.1882C19.6873 21.183 17.8092 20.6746 14.1994 17.2398C10.6471 13.7509 10.1212 11.9352 10.1178 11.9223C10.0563 11.6756 10.1704 11.2502 10.3488 11.0629C10.4571 10.9489 11.4162 9.9402 11.6779 9.59668C11.6782 9.59635 11.6782 9.59635 11.6786 9.59602C13.2557 7.52702 13.2021 5.86462 11.4934 3.85771C10.3331 2.49522 8.89703 1.09046 7.04415 1.00392C5.6433 0.941162 4.19872 1.63149 2.65505 3.12445C1.2074 4.52228 0.646716 6.74454 1.2238 8.7924C1.32015 9.32947 2.54196 15.4311 9.30737 21.9704C16.0728 28.5107 22.3841 29.6912 22.9397 29.7843C23.4928 29.9296 24.0573 30 24.6166 30C26.1992 30 27.7337 29.4345 28.8031 28.401C30.3471 26.9077 31.0636 25.5201 30.9956 24.1576C30.9061 22.3681 29.4526 20.9792 28.0432 19.8568ZM28.0343 27.6582C26.8525 28.799 24.9569 29.234 23.2017 28.764C23.1826 28.7587 23.1638 28.7554 23.1437 28.7518C23.0804 28.7419 16.764 27.6929 10.0761 21.2276C3.40844 14.7811 2.30279 8.65533 2.2922 8.59455C2.28878 8.57539 2.28503 8.5569 2.27922 8.53807C1.79336 6.84198 2.24266 5.00881 3.42415 3.86795C4.73924 2.59597 5.91903 2.00176 6.99188 2.05394C8.42108 2.12033 9.64529 3.34079 10.6539 4.52558C12.05 6.16519 12.0872 7.28689 10.8025 8.97209C10.8025 8.97209 10.8022 8.97208 10.8022 8.97242C10.6105 9.22443 9.83252 10.0528 9.54894 10.3501C9.1239 10.7963 8.91411 11.5778 9.06069 12.1671C9.08119 12.249 9.5831 14.1344 13.1559 17.7102C13.1696 17.7277 13.6958 18.2364 13.7142 18.2496C17.4128 21.7032 19.3627 22.1894 19.4475 22.2085C19.5787 22.2393 19.7184 22.2535 19.8623 22.2535C20.3884 22.2535 20.9652 22.0592 21.327 21.7372C21.6348 21.4631 22.4911 20.712 22.7518 20.5243C24.4956 19.2817 25.6563 19.3187 27.3517 20.6687C28.5776 21.6444 29.8401 22.8285 29.9091 24.2095C29.962 25.2595 29.3487 26.3872 28.0343 27.6582Z"/>
</mask>
<path d="M28.0432 19.8568C25.9676 18.204 24.2479 18.1525 22.106 19.6784C22.1053 19.6788 22.1053 19.6788 22.1053 19.6791C22.1046 19.6791 22.1046 19.6794 22.1046 19.6794C21.7517 19.9328 20.7079 20.8583 20.59 20.9636C20.397 21.1357 19.9566 21.2457 19.7065 21.1882C19.6873 21.183 17.8092 20.6746 14.1994 17.2398C10.6471 13.7509 10.1212 11.9352 10.1178 11.9223C10.0563 11.6756 10.1704 11.2502 10.3488 11.0629C10.4571 10.9489 11.4162 9.9402 11.6779 9.59668C11.6782 9.59635 11.6782 9.59635 11.6786 9.59602C13.2557 7.52702 13.2021 5.86462 11.4934 3.85771C10.3331 2.49522 8.89703 1.09046 7.04415 1.00392C5.6433 0.941162 4.19872 1.63149 2.65505 3.12445C1.2074 4.52228 0.646716 6.74454 1.2238 8.7924C1.32015 9.32947 2.54196 15.4311 9.30737 21.9704C16.0728 28.5107 22.3841 29.6912 22.9397 29.7843C23.4928 29.9296 24.0573 30 24.6166 30C26.1992 30 27.7337 29.4345 28.8031 28.401C30.3471 26.9077 31.0636 25.5201 30.9956 24.1576C30.9061 22.3681 29.4526 20.9792 28.0432 19.8568ZM28.0343 27.6582C26.8525 28.799 24.9569 29.234 23.2017 28.764C23.1826 28.7587 23.1638 28.7554 23.1437 28.7518C23.0804 28.7419 16.764 27.6929 10.0761 21.2276C3.40844 14.7811 2.30279 8.65533 2.2922 8.59455C2.28878 8.57539 2.28503 8.5569 2.27922 8.53807C1.79336 6.84198 2.24266 5.00881 3.42415 3.86795C4.73924 2.59597 5.91903 2.00176 6.99188 2.05394C8.42108 2.12033 9.64529 3.34079 10.6539 4.52558C12.05 6.16519 12.0872 7.28689 10.8025 8.97209C10.8025 8.97209 10.8022 8.97208 10.8022 8.97242C10.6105 9.22443 9.83252 10.0528 9.54894 10.3501C9.1239 10.7963 8.91411 11.5778 9.06069 12.1671C9.08119 12.249 9.5831 14.1344 13.1559 17.7102C13.1696 17.7277 13.6958 18.2364 13.7142 18.2496C17.4128 21.7032 19.3627 22.1894 19.4475 22.2085C19.5787 22.2393 19.7184 22.2535 19.8623 22.2535C20.3884 22.2535 20.9652 22.0592 21.327 21.7372C21.6348 21.4631 22.4911 20.712 22.7518 20.5243C24.4956 19.2817 25.6563 19.3187 27.3517 20.6687C28.5776 21.6444 29.8401 22.8285 29.9091 24.2095C29.962 25.2595 29.3487 26.3872 28.0343 27.6582Z" fill="white"/>
<path d="M28.0432 19.8568C25.9676 18.204 24.2479 18.1525 22.106 19.6784C22.1053 19.6788 22.1053 19.6788 22.1053 19.6791C22.1046 19.6791 22.1046 19.6794 22.1046 19.6794C21.7517 19.9328 20.7079 20.8583 20.59 20.9636C20.397 21.1357 19.9566 21.2457 19.7065 21.1882C19.6873 21.183 17.8092 20.6746 14.1994 17.2398C10.6471 13.7509 10.1212 11.9352 10.1178 11.9223C10.0563 11.6756 10.1704 11.2502 10.3488 11.0629C10.4571 10.9489 11.4162 9.9402 11.6779 9.59668C11.6782 9.59635 11.6782 9.59635 11.6786 9.59602C13.2557 7.52702 13.2021 5.86462 11.4934 3.85771C10.3331 2.49522 8.89703 1.09046 7.04415 1.00392C5.6433 0.941162 4.19872 1.63149 2.65505 3.12445C1.2074 4.52228 0.646716 6.74454 1.2238 8.7924C1.32015 9.32947 2.54196 15.4311 9.30737 21.9704C16.0728 28.5107 22.3841 29.6912 22.9397 29.7843C23.4928 29.9296 24.0573 30 24.6166 30C26.1992 30 27.7337 29.4345 28.8031 28.401C30.3471 26.9077 31.0636 25.5201 30.9956 24.1576C30.9061 22.3681 29.4526 20.9792 28.0432 19.8568ZM28.0343 27.6582C26.8525 28.799 24.9569 29.234 23.2017 28.764C23.1826 28.7587 23.1638 28.7554 23.1437 28.7518C23.0804 28.7419 16.764 27.6929 10.0761 21.2276C3.40844 14.7811 2.30279 8.65533 2.2922 8.59455C2.28878 8.57539 2.28503 8.5569 2.27922 8.53807C1.79336 6.84198 2.24266 5.00881 3.42415 3.86795C4.73924 2.59597 5.91903 2.00176 6.99188 2.05394C8.42108 2.12033 9.64529 3.34079 10.6539 4.52558C12.05 6.16519 12.0872 7.28689 10.8025 8.97209C10.8025 8.97209 10.8022 8.97208 10.8022 8.97242C10.6105 9.22443 9.83252 10.0528 9.54894 10.3501C9.1239 10.7963 8.91411 11.5778 9.06069 12.1671C9.08119 12.249 9.5831 14.1344 13.1559 17.7102C13.1696 17.7277 13.6958 18.2364 13.7142 18.2496C17.4128 21.7032 19.3627 22.1894 19.4475 22.2085C19.5787 22.2393 19.7184 22.2535 19.8623 22.2535C20.3884 22.2535 20.9652 22.0592 21.327 21.7372C21.6348 21.4631 22.4911 20.712 22.7518 20.5243C24.4956 19.2817 25.6563 19.3187 27.3517 20.6687C28.5776 21.6444 29.8401 22.8285 29.9091 24.2095C29.962 25.2595 29.3487 26.3872 28.0343 27.6582Z" stroke="white" mask="url(#path-1-outside-1)"/>
</svg>
