<svg width="38" height="37" fill="none" xmlns="http://www.w3.org/2000/svg"><mask id="a" maskUnits="userSpaceOnUse" x="-.267" y="-.267" width="38" height="37" fill="#000"><path fill="#fff" d="M-.267-.267h38v37h-38z"/><path d="M33.546 23.795c-2.519-2.021-4.605-2.084-7.204-.218l-.002.001c-.428.31-1.694 1.442-1.837 1.57-.235.211-.77.346-1.073.275-.023-.006-2.302-.628-6.681-4.828-4.31-4.267-4.949-6.488-4.953-6.504-.074-.301.064-.822.28-1.05.132-.14 1.296-1.374 1.613-1.794h.001c1.914-2.531 1.849-4.564-.225-7.019-1.408-1.666-3.15-3.384-5.398-3.49-1.7-.077-3.453.768-5.326 2.594C.985 5.04.305 7.759 1.005 10.263c.117.657 1.6 8.12 9.808 16.117 8.209 7.999 15.866 9.442 16.54 9.556a7.947 7.947 0 002.035.264c1.92 0 3.782-.692 5.08-1.956 1.873-1.826 2.742-3.523 2.66-5.19-.109-2.188-1.872-3.886-3.582-5.259zm-.011 9.541c-1.434 1.395-3.734 1.927-5.864 1.352-.023-.006-.046-.01-.07-.015-.077-.012-7.74-1.295-15.855-9.202-8.09-7.884-9.432-15.375-9.445-15.45a.572.572 0 00-.016-.069c-.59-2.074-.044-4.316 1.39-5.711C5.27 2.685 6.702 1.958 8.003 2.022c1.735.081 3.22 1.574 4.444 3.023 1.694 2.005 1.739 3.377.18 5.438-.233.309-1.177 1.322-1.521 1.685-.516.546-.77 1.502-.592 2.223.025.1.634 2.406 4.969 6.779.016.021.654.643.677.66 4.488 4.223 6.853 4.818 6.956 4.841.16.038.329.055.503.055.639 0 1.339-.237 1.778-.631.373-.336 1.412-1.254 1.729-1.484 2.115-1.52 3.524-1.474 5.58.177 1.488 1.193 3.02 2.641 3.104 4.33.064 1.285-.68 2.664-2.275 4.218z"/></mask><path d="M33.546 23.795c-2.519-2.021-4.605-2.084-7.204-.218l-.002.001c-.428.31-1.694 1.442-1.837 1.57-.235.211-.77.346-1.073.275-.023-.006-2.302-.628-6.681-4.828-4.31-4.267-4.949-6.488-4.953-6.504-.074-.301.064-.822.28-1.05.132-.14 1.296-1.374 1.613-1.794h.001c1.914-2.531 1.849-4.564-.225-7.019-1.408-1.666-3.15-3.384-5.398-3.49-1.7-.077-3.453.768-5.326 2.594C.985 5.04.305 7.759 1.005 10.263c.117.657 1.6 8.12 9.808 16.117 8.209 7.999 15.866 9.442 16.54 9.556a7.947 7.947 0 002.035.264c1.92 0 3.782-.692 5.08-1.956 1.873-1.826 2.742-3.523 2.66-5.19-.109-2.188-1.872-3.886-3.582-5.259zm-.011 9.541c-1.434 1.395-3.734 1.927-5.864 1.352-.023-.006-.046-.01-.07-.015-.077-.012-7.74-1.295-15.855-9.202-8.09-7.884-9.432-15.375-9.445-15.45a.572.572 0 00-.016-.069c-.59-2.074-.044-4.316 1.39-5.711C5.27 2.685 6.702 1.958 8.003 2.022c1.735.081 3.22 1.574 4.444 3.023 1.694 2.005 1.739 3.377.18 5.438-.233.309-1.177 1.322-1.521 1.685-.516.546-.77 1.502-.592 2.223.025.1.634 2.406 4.969 6.779.016.021.654.643.677.66 4.488 4.223 6.853 4.818 6.956 4.841.16.038.329.055.503.055.639 0 1.339-.237 1.778-.631.373-.336 1.412-1.254 1.729-1.484 2.115-1.52 3.524-1.474 5.58.177 1.488 1.193 3.02 2.641 3.104 4.33.064 1.285-.68 2.664-2.275 4.218z" fill="#fff"/><path d="M33.546 23.795c-2.519-2.021-4.605-2.084-7.204-.218 0 0 0 0 0 0l-.002.001c-.428.31-1.694 1.442-1.837 1.57-.235.211-.77.346-1.073.275-.023-.006-2.302-.628-6.681-4.828-4.31-4.267-4.949-6.488-4.953-6.504-.074-.301.064-.822.28-1.05.132-.14 1.296-1.374 1.613-1.794h.001c1.914-2.531 1.849-4.564-.225-7.019-1.408-1.666-3.15-3.384-5.398-3.49-1.7-.077-3.453.768-5.326 2.594C.985 5.04.305 7.759 1.005 10.263c.117.657 1.6 8.12 9.808 16.117 8.209 7.999 15.866 9.442 16.54 9.556a7.947 7.947 0 002.035.264c1.92 0 3.782-.692 5.08-1.956 1.873-1.826 2.742-3.523 2.66-5.19-.109-2.188-1.872-3.886-3.582-5.259zm-.011 9.541c-1.434 1.395-3.734 1.927-5.864 1.352-.023-.006-.046-.01-.07-.015-.077-.012-7.74-1.295-15.855-9.202-8.09-7.884-9.432-15.375-9.445-15.45a.572.572 0 00-.016-.069c-.59-2.074-.044-4.316 1.39-5.711C5.27 2.685 6.702 1.958 8.003 2.022c1.735.081 3.22 1.574 4.444 3.023 1.694 2.005 1.739 3.377.18 5.438 0 0 0 0 0 0-.233.309-1.177 1.322-1.521 1.685-.516.546-.77 1.502-.592 2.223.025.1.634 2.406 4.969 6.779.016.021.654.643.677.66 4.488 4.223 6.853 4.818 6.956 4.841.16.038.329.055.503.055.639 0 1.339-.237 1.778-.631.373-.336 1.412-1.254 1.729-1.484 2.115-1.52 3.524-1.474 5.58.177 1.488 1.193 3.02 2.641 3.104 4.33.064 1.285-.68 2.664-2.275 4.218z" stroke="#fff" mask="url(#a)"/></svg>