<svg width="52" height="52" fill="none" xmlns="http://www.w3.org/2000/svg"><circle cx="26" cy="26" r="26" fill="#fff"/><mask id="a" maskUnits="userSpaceOnUse" x="12.174" y="12.173" width="29" height="28" fill="#000"><path fill="#fff" d="M12.174 12.173h29v28h-29z"/><path d="M37.548 30.305c-1.87-1.502-3.42-1.549-5.35-.162h-.002c-.318.23-1.259 1.072-1.365 1.167-.174.157-.571.257-.797.205-.017-.005-1.71-.467-4.963-3.588-3.202-3.17-3.676-4.819-3.68-4.83-.055-.225.048-.611.209-.782.098-.103.962-1.02 1.198-1.332 1.422-1.88 1.374-3.39-.166-5.213-1.046-1.238-2.34-2.514-4.01-2.593-1.263-.057-2.565.57-3.957 1.926-1.304 1.27-1.81 3.29-1.29 5.15.087.488 1.188 6.031 7.286 11.972 6.098 5.942 11.787 7.014 12.288 7.1a5.908 5.908 0 001.511.195c1.426 0 2.81-.514 3.773-1.453 1.392-1.356 2.038-2.617 1.977-3.855-.081-1.626-1.391-2.888-2.662-3.907zm-.008 7.087c-1.065 1.037-2.773 1.432-4.355 1.005-.018-.005-.034-.008-.053-.011-.057-.009-5.75-.962-11.778-6.836-6.01-5.857-7.006-11.422-7.016-11.477a.437.437 0 00-.011-.051c-.438-1.541-.033-3.207 1.032-4.243 1.185-1.156 2.248-1.696 3.215-1.648 1.288.06 2.392 1.169 3.301 2.245 1.258 1.49 1.292 2.509.134 4.04-.173.23-.874.982-1.13 1.252-.383.405-.572 1.115-.44 1.65.018.075.47 1.788 3.691 5.037.012.015.487.478.503.49 3.334 3.137 5.091 3.579 5.168 3.596.118.028.244.041.374.041.474 0 .994-.176 1.32-.469.277-.249 1.05-.931 1.284-1.102 1.572-1.129 2.618-1.095 4.146.131 1.105.887 2.243 1.963 2.305 3.217.048.954-.505 1.979-1.69 3.133z"/></mask><path d="M37.548 30.305c-1.87-1.502-3.42-1.549-5.35-.162h-.002c-.318.23-1.259 1.072-1.365 1.167-.174.157-.571.257-.797.205-.017-.005-1.71-.467-4.963-3.588-3.202-3.17-3.676-4.819-3.68-4.83-.055-.225.048-.611.209-.782.098-.103.962-1.02 1.198-1.332 1.422-1.88 1.374-3.39-.166-5.213-1.046-1.238-2.34-2.514-4.01-2.593-1.263-.057-2.565.57-3.957 1.926-1.304 1.27-1.81 3.29-1.29 5.15.087.488 1.188 6.031 7.286 11.972 6.098 5.942 11.787 7.014 12.288 7.1a5.908 5.908 0 001.511.195c1.426 0 2.81-.514 3.773-1.453 1.392-1.356 2.038-2.617 1.977-3.855-.081-1.626-1.391-2.888-2.662-3.907zm-.008 7.087c-1.065 1.037-2.773 1.432-4.355 1.005-.018-.005-.034-.008-.053-.011-.057-.009-5.75-.962-11.778-6.836-6.01-5.857-7.006-11.422-7.016-11.477a.437.437 0 00-.011-.051c-.438-1.541-.033-3.207 1.032-4.243 1.185-1.156 2.248-1.696 3.215-1.648 1.288.06 2.392 1.169 3.301 2.245 1.258 1.49 1.292 2.509.134 4.04-.173.23-.874.982-1.13 1.252-.383.405-.572 1.115-.44 1.65.018.075.47 1.788 3.691 5.037.012.015.487.478.503.49 3.334 3.137 5.091 3.579 5.168 3.596.118.028.244.041.374.041.474 0 .994-.176 1.32-.469.277-.249 1.05-.931 1.284-1.102 1.572-1.129 2.618-1.095 4.146.131 1.105.887 2.243 1.963 2.305 3.217.048.954-.505 1.979-1.69 3.133z" fill="#FF4D4A"/><path d="M37.548 30.305c-1.87-1.502-3.42-1.549-5.35-.162h-.002s0 0 0 0c-.318.23-1.259 1.072-1.365 1.167-.174.157-.571.257-.797.205-.017-.005-1.71-.467-4.963-3.588-3.202-3.17-3.676-4.819-3.68-4.83-.055-.225.048-.611.209-.782.098-.103.962-1.02 1.198-1.332 0 0 0 0 0 0 1.422-1.88 1.374-3.39-.166-5.213-1.046-1.238-2.34-2.514-4.01-2.593-1.263-.057-2.565.57-3.957 1.926-1.304 1.27-1.81 3.29-1.29 5.15.087.488 1.188 6.031 7.286 11.972 6.098 5.942 11.787 7.014 12.288 7.1a5.908 5.908 0 001.511.195c1.426 0 2.81-.514 3.773-1.453 1.392-1.356 2.038-2.617 1.977-3.855-.081-1.626-1.391-2.888-2.662-3.907zm-.008 7.087c-1.065 1.037-2.773 1.432-4.355 1.005-.018-.005-.034-.008-.053-.011-.057-.009-5.75-.962-11.778-6.836-6.01-5.857-7.006-11.422-7.016-11.477a.437.437 0 00-.011-.051c-.438-1.541-.033-3.207 1.032-4.243 1.185-1.156 2.248-1.696 3.215-1.648 1.288.06 2.392 1.169 3.301 2.245 1.258 1.49 1.292 2.509.134 4.04 0 0 0 0 0 0-.173.23-.874.982-1.13 1.252-.383.405-.572 1.115-.44 1.65.018.075.47 1.788 3.691 5.037.012.015.487.478.503.49 3.334 3.137 5.091 3.579 5.168 3.596.118.028.244.041.374.041.474 0 .994-.176 1.32-.469.277-.249 1.05-.931 1.284-1.102 1.572-1.129 2.618-1.095 4.146.131 1.105.887 2.243 1.963 2.305 3.217.048.954-.505 1.979-1.69 3.133z" stroke="#FF4D4A" mask="url(#a)"/></svg>