<svg width="25" height="38" fill="none" xmlns="http://www.w3.org/2000/svg"><path d="M21.5318 9.3966L17.25 7.0614V5.4286h.6786a.6787.6787 0 00.6785-.6786V.6786A.6788.6788 0 0017.9286 0H7.0714a.6786.6786 0 00-.6785.6786V4.75a.6785.6785 0 00.6785.6786H7.75v1.6328L3.4682 9.3966a6.1055 6.1055 0 00-3.1825 5.3617V33.25a4.7557 4.7557 0 004.75 4.75h14.9286a4.7559 4.7559 0 004.75-4.75V14.7583a6.1053 6.1053 0 00-3.1825-5.3617zM17.25 7.062l-.6786-.0006h.6786v.0006zm-9.5-5.7049h9.5v2.7143h-9.5V1.3571zm-3.6318 9.231l4.2812-2.3353a1.355 1.355 0 00.7077-1.1914V5.4286h6.7857v1.6328a1.3554 1.3554 0 00.7071 1.1914l4.2818 2.3353a4.7482 4.7482 0 012.4754 4.1702v.1703H1.6429v-.1703a4.7485 4.7485 0 012.4753-4.1702zm19.2389 20.6262H1.6429V16.2857H23.357v14.9286zm-3.3928 5.4286H5.0357A3.397 3.397 0 011.6428 33.25v-.6786h21.7143v.6786a3.3968 3.3968 0 01-3.3928 3.3929zM6.742 27.5882l1.9195 1.9197a.6782.6782 0 00.9595 0l2.879-2.8793 2.879 2.8793a.6785.6785 0 00.9595 0l1.9194-1.9197a.6784.6784 0 000-.9596L15.379 23.75l2.8789-2.8793a.6783.6783 0 000-.9595l-1.9194-1.9191a.6785.6785 0 00-.9595 0L12.5 20.8714l-2.879-2.8793a.6782.6782 0 00-.9595 0L6.742 19.9112a.6784.6784 0 000 .9595L9.621 23.75l-2.879 2.8786a.6788.6788 0 000 .9596zm4.3183-3.3585a.679.679 0 00.1472-.7394.6774.6774 0 00-.1472-.2201l-2.879-2.8791.9598-.9597 2.8789 2.8793a.6989.6989 0 00.9595 0l2.8794-2.8793.9597.9597-2.879 2.8791a.6787.6787 0 00-.1471.7395.6772.6772 0 00.1471.22l2.879 2.8787-.9597.9602-2.8792-2.8793a.6782.6782 0 00-.9595 0l-2.8791 2.8793-.96-.9602 2.8792-2.8787z" fill="#fff"/></svg>