<svg width="23" height="36" viewBox="0 0 23 36" fill="none" xmlns="http://www.w3.org/2000/svg">
<path d="M19.2953 9.40753L15.4642 7.31811V5.85714H16.0714C16.2324 5.85714 16.3868 5.79318 16.5007 5.67931C16.6145 5.56545 16.6785 5.41102 16.6785 5.25V1.60714C16.6785 1.44612 16.6145 1.29169 16.5007 1.17783C16.3868 1.06397 16.2324 1 16.0714 1H6.35707C6.19605 1 6.04162 1.06397 5.92776 1.17783C5.8139 1.29169 5.74993 1.44612 5.74993 1.60714V5.25C5.74993 5.41102 5.8139 5.56545 5.92776 5.67931C6.04162 5.79318 6.19605 5.85714 6.35707 5.85714H6.96422V7.31811L3.13314 9.40753C2.27125 9.87751 1.55194 10.5711 1.05085 11.4152C0.549767 12.2594 0.28543 13.2231 0.285645 14.2048V30.75C0.286946 31.8768 0.735131 32.957 1.53188 33.7538C2.32863 34.5505 3.40887 34.9987 4.53564 35H17.8928C19.0196 34.9987 20.0998 34.5505 20.8966 33.7538C21.6933 32.957 22.1415 31.8768 22.1428 30.75V14.2048C22.143 13.2231 21.8787 12.2594 21.3776 11.4152C20.8765 10.5711 20.1572 9.87751 19.2953 9.40753ZM15.4642 7.31866L14.8571 7.31811H15.4642V7.31866ZM6.96422 2.21429H15.4642V4.64286H6.96422V2.21429ZM3.71473 10.4736L7.54525 8.38413C7.73698 8.27988 7.89701 8.12582 8.00846 7.9382C8.11992 7.75057 8.17866 7.53634 8.1785 7.31811V5.85714H14.2499V7.31811C14.2498 7.53627 14.3085 7.75043 14.4198 7.93804C14.5311 8.12565 14.691 8.27975 14.8826 8.38413L18.7136 10.4736C19.384 10.8391 19.9435 11.3785 20.3333 12.0351C20.723 12.6917 20.9287 13.4412 20.9285 14.2048V14.3571H1.49993V14.2048C1.49977 13.4412 1.70537 12.6917 2.09512 12.0351C2.48487 11.3785 3.04435 10.8391 3.71473 10.4736ZM20.9285 28.9286H1.49993V15.5714H20.9285V28.9286ZM17.8928 33.7857H4.53564C3.73081 33.7848 2.95922 33.4646 2.39012 32.8955C1.82102 32.3264 1.50088 31.5548 1.49993 30.75V30.1429H20.9285V30.75C20.9276 31.5548 20.6074 32.3264 20.0383 32.8955C19.4692 33.4646 18.6976 33.7848 17.8928 33.7857ZM6.06237 25.6842L7.77979 27.4019C7.89365 27.5157 8.04805 27.5796 8.20904 27.5796C8.37003 27.5796 8.52444 27.5157 8.63829 27.4019L11.2142 24.8256L13.7901 27.4019C13.904 27.5157 14.0584 27.5796 14.2194 27.5796C14.3804 27.5796 14.5348 27.5157 14.6486 27.4019L16.3661 25.6842C16.4799 25.5703 16.5439 25.4159 16.5439 25.2549C16.5439 25.0939 16.4799 24.9395 16.3661 24.8256L13.7901 22.25L16.3661 19.6738C16.4799 19.5599 16.5438 19.4055 16.5438 19.2445C16.5438 19.0835 16.4799 18.9291 16.3661 18.8153L14.6486 17.0982C14.5348 16.9843 14.3804 16.9204 14.2194 16.9204C14.0584 16.9204 13.904 16.9843 13.7901 17.0982L11.2142 19.6744L8.63829 17.0982C8.52444 16.9843 8.37003 16.9204 8.20904 16.9204C8.04805 16.9204 7.89365 16.9843 7.77979 17.0982L6.06237 18.8153C5.94854 18.9291 5.8846 19.0835 5.8846 19.2445C5.8846 19.4055 5.94854 19.5599 6.06237 19.6738L8.63829 22.25L6.06237 24.8256C5.94853 24.9395 5.88457 25.0939 5.88457 25.2549C5.88457 25.4159 5.94853 25.5703 6.06237 25.6842ZM9.9261 22.6793C9.9825 22.6229 10.0272 22.556 10.0578 22.4823C10.0883 22.4087 10.104 22.3297 10.104 22.25C10.104 22.1703 10.0883 22.0913 10.0578 22.0177C10.0272 21.944 9.9825 21.8771 9.9261 21.8207L7.35018 19.2446L8.20886 18.386L10.7848 20.9622C10.9008 21.0719 11.0544 21.133 11.214 21.133C11.3737 21.133 11.5273 21.0719 11.6433 20.9622L14.2196 18.386L15.0783 19.2446L12.5023 21.8207C12.4459 21.8771 12.4012 21.944 12.3707 22.0177C12.3402 22.0913 12.3244 22.1703 12.3244 22.25C12.3244 22.3297 12.3402 22.4087 12.3707 22.4823C12.4012 22.556 12.4459 22.6229 12.5023 22.6793L15.0783 25.2549L14.2196 26.114L11.6435 23.5378C11.5871 23.4814 11.5202 23.4367 11.4465 23.4062C11.3729 23.3756 11.2939 23.3599 11.2142 23.3599C11.1345 23.3599 11.0555 23.3756 10.9819 23.4062C10.9082 23.4367 10.8413 23.4814 10.785 23.5378L8.20886 26.114L7.35 25.2549L9.9261 22.6793Z" fill="#3333FF" stroke="#3333FF" stroke-width="0.25"/>
</svg>
