<svg width="37" height="35" fill="none" xmlns="http://www.w3.org/2000/svg"><path d="M33.9561 21.5401c.0294-.022 2.3771-2.3607 2.3771-2.3607a.7573.7573 0 00.1563-.2265c.033-.0735.7961-1.8146-.0307-3.2869-.4468-.7498-1.1758-1.2933-2.027-1.511a4.9942 4.9942 0 00.1091-3.2212c-.388-1.0565-1.1808-1.919-2.2064-2.4005.1169-.8249.1551-2.2816-.7077-3.4648-.6716-.921-1.7259-1.479-3.1401-1.6635a3.8346 3.8346 0 00-.8946-2.2753C26.9201.3797 25.946 0 24.6964 0h-.0398a2.2198 2.2198 0 00-1.4107.5988l-5.0385 4.6447a5.651 5.651 0 00-1.7008.0077.7708.7708 0 00-.2826.1121c-.2286.1481-5.6142 3.737-6.9822 13.0465a.9715.9715 0 01-.1829.3676L.253 26.6621a.7602.7602 0 00-.1787.238.754.754 0 00.124.8356.7866.7866 0 00.531.2431.7878.7878 0 00.553-.1889l3.9653-3.5504 3.597 3.9398-2.0951 2.0753a.76.76 0 00-.1665.2466.7542.7542 0 00.1665.8285.7813.7813 0 00.5427.2186.7813.7813 0 00.5427-.2186l2.0407-2.0213 4.25 4.6549a.8478.8478 0 00.5636.2465.8491.8491 0 00.5825-.1986l5.4485-4.995a.789.789 0 01.3681-.1441l4.122-.2131a2.2426 2.2426 0 001.3898-.591l5.608-5.5885a4.0884 4.0884 0 001.7481-.9394zM14.7687 32.4005l-8.3822-9.1808L9.0444 20.84l8.3541 9.1501-2.6298 2.4104zm16.9165-11.3842l-.0063.0007h-.0071a.8312.8312 0 01-.3616-.0963.8235.8235 0 01-.2816-.2445c-.0322-.0364-.9441-.8616-.9572-1.4419-.0022-.1009-.009-.4083.4636-.8067a.6111.6111 0 00.0296-.0263l1.003-.9389a.757.757 0 00.2377-.5305.7566.7566 0 00-.2096-.5421.7707.7707 0 00-.5347-.2375.7713.7713 0 00-.5481.2053l-.7898.7393a1.616 1.616 0 01-1.0477.1296 1.6045 1.6045 0 01-.9015-.5445c-.1882-.291-.8707-1.5777.8193-2.8106a.7597.7597 0 00.302-.498.755.755 0 00-.1412-.5638.7683.7683 0 00-.5019-.3006.7732.7732 0 00-.5697.138c-2.4088 1.7575-1.8136 3.9823-1.1622 4.9134a.5174.5174 0 00.0251.0338c.2413.3226.5474.5923.899.7921a2.9607 2.9607 0 001.1441.3693 2.2444 2.2444 0 00-.0518.5122c.0281 1.2652 1.094 2.2241 1.3841 2.4624.1405.1517.298.287.4694.4033l-4.8785 4.8616a.7839.7839 0 01-.3685.1448l-4.1228.2131a2.2279 2.2279 0 00-1.3658.5691l-1.1291 1.0349-8.3486-9.144a2.4036 2.4036 0 00.5845-1.1841c1.1506-7.8314 5.402-11.3251 6.1808-11.9057 1.8485-.2183 5.1614 1.1876 7.6999 2.6098.2482.1559.4355.3908.531.666a1.2702 1.2702 0 01-.0055.8487c-.0952.2194-.3853.8861-2.1101.8861h-.0023a21.7842 21.7842 0 01-3.3653-.1815c-.0225-.0058-.0448-.0065-.0672-.0102-.1076-.2257-.2226-.454-.3545-.6874a.7607.7607 0 00-.1944-.2256.7731.7731 0 00-.8502-.0665.7644.7644 0 00-.2277.1925.7568.7568 0 00-.1361.2643.7528.7528 0 00.0689.5778c2.3822 4.2172-.1181 6.7064-.2365 6.8204a.7572.7572 0 00-.239.5316.7567.7567 0 00.2106.5433.7708.7708 0 00.5368.2366.7716.7716 0 00.5485-.2085 6.6584 6.6584 0 001.5766-2.9908 6.6175 6.6175 0 00-.1006-3.3725c.9553.0842 2.2106.0968 2.8294.0971h.003c1.8147 0 2.9995-.6074 3.5205-1.8065a2.7633 2.7633 0 00.0529-1.9356 2.7939 2.7939 0 00-1.2328-1.5028 28.4018 28.4018 0 00-5.3712-2.3664l4.2865-3.9521a.8098.8098 0 01.3531-.1704 2.2336 2.2336 0 01.9548.111c.3062.1059.5852.2771.8172.5015.3691.4744.556 1.0631.5274 1.6613l-.2054.2194a.7593.7593 0 00-.1568.2527.7524.7524 0 00.0223.5815.7612.7612 0 00.1757.2402.768.768 0 00.2552.1553.774.774 0 00.587-.022.767.767 0 00.2425-.1741l.1489-.159c1.1052.0988 1.8945.4541 2.3428 1.064.6811.9277.4738 2.2453.3832 2.6685l-.0039.0034-.3917.4187a.7591.7591 0 00-.1568.2527.7524.7524 0 00.0223.5815.7617.7617 0 00.1757.2402.7735.7735 0 001.0847-.0408l.1633-.1746c.6554.3058 1.1675.8486 1.4311 1.517.4741 1.3554-.3842 2.8908-.3917 2.9038a.756.756 0 00-.1007.3536.7535.7535 0 00.0782.3591.7633.7633 0 00.2391.281.7737.7737 0 00.3442.1371c.9512.1307 1.5767.4488 1.859.9459.3706.6531.1237 1.5162.0157 1.8228l-2.0543 2.0538a2.7344 2.7344 0 01-1.2462.7228.7752.7752 0 00-.144.0174z" fill="#fff"/></svg>