<svg width="33" height="25" viewBox="0 0 33 25" fill="none" xmlns="http://www.w3.org/2000/svg">
<path d="M7.68633 17.0855C8.5792 19.8945 12.33 20.7768 14.3686 18.435C15.4596 20.7905 17.899 20.6704 17.9637 20.6904V21.299C17.9637 22.7831 19.1826 23.9906 20.709 23.9906C20.7093 23.9906 20.7103 23.9906 20.7103 23.9906C23.9388 23.8531 25.6243 24.4121 27.8008 23.1576C27.8399 23.1352 27.8279 23.147 27.8613 23.117C27.8963 23.0946 27.9534 23.0654 28.0275 23.0261C30.5408 21.6872 31.815 19.7671 31.8124 17.3733C31.8559 16.8811 32.2236 12.5187 31.7929 10.9642C31.3219 9.22942 28.8097 5.5882 27.8322 4.17564C26.0661 1.34618 23.7423 3.40578 20.7594 1.9041C18.9348 0.989232 17.1821 0.607463 15.1764 1.53158C13.8785 1.93038 14.0612 2.60409 10.8009 2.52339C8.94513 2.4735 7.43119 2.53972 6.44185 4.25296C5.76176 5.45492 4.5003 5.30761 4.43554 5.32395C2.54125 5.32395 1 6.84349 1 8.71138V14.3959C1 17.8063 5.23154 19.5605 7.68633 17.0855ZM28.3214 16.8319C28.2731 12.6121 28.3028 10.016 28.3226 8.29765C28.3274 7.88959 28.3314 7.5313 28.3334 7.21607C29.3858 8.84714 30.3201 10.4646 30.5465 11.2976C30.8602 12.4315 30.6379 15.9877 30.5235 17.3179C30.5235 19.9433 28.7492 21.1919 27.4146 21.9028C27.2793 21.975 27.1891 22.023 27.1147 22.076C25.3395 23.0827 23.8304 22.5739 20.6822 22.7152C18.9202 22.7152 19.2856 20.5636 19.2552 20.4561C19.9515 20.204 20.7167 19.643 21.1706 18.9652C23.2653 22.0983 28.3214 20.6887 28.3214 16.8319ZM2.29148 8.71138C2.29148 7.54693 3.25318 6.59991 4.43554 6.59991C4.50037 6.583 6.50468 6.75851 7.56654 4.88036C8.35622 3.51246 9.69845 3.81244 11.5665 3.81244C14.0728 3.81244 14.8348 2.99052 15.725 2.68665C18.8507 1.24506 19.7082 3.81371 23.5754 3.81371C24.9259 3.8897 25.9378 3.53376 26.7467 4.86102C26.9473 5.20885 27.0623 16.9198 26.9752 17.3636C26.3486 20.3544 21.8189 19.9086 21.8189 16.8394C21.8189 16.8345 21.8162 16.8305 21.816 16.8254V10.3643C21.816 10.0116 21.5269 9.72628 21.1703 9.72628C20.8137 9.72628 20.5246 10.0116 20.5246 10.3643C20.5246 10.5461 20.5246 16.5505 20.5262 16.8528C20.5194 18.1113 19.5855 19.3264 17.912 19.4169C16.477 19.4169 15.3098 18.2605 15.3098 16.8394C15.3097 16.7752 15.3087 15.8647 15.3088 15.9289V10.3643C15.3088 10.0116 15.0197 9.72628 14.663 9.72628C14.3065 9.72628 14.0173 10.0116 14.0173 10.3643C14.0173 10.4042 14.0173 10.4387 14.0173 10.4681C14.0173 10.5063 14.0174 10.5336 14.0174 10.5564C14.0173 10.5446 14.0174 10.5319 14.0173 10.5188C14.0174 10.9211 14.0176 12.2408 14.0183 15.9337C14.0181 18.2009 11.2332 19.3756 9.5646 17.7446C8.721 16.9198 8.81508 15.9957 8.80159 15.9291V10.3643C8.80159 10.0116 8.51242 9.72628 8.15584 9.72628C7.7992 9.72628 7.5101 10.0116 7.5101 10.3643C7.5101 10.369 7.5101 10.3706 7.5101 10.3706C7.51004 10.4246 7.50997 10.9101 7.50913 14.3959C7.50913 16.6802 4.68725 17.8243 3.05798 16.2158C1.78968 14.9635 2.49089 13.7237 2.29148 8.71138Z" fill="#3333FF" stroke="#3333FF" stroke-width="0.75"/>
</svg>
