<svg xmlns="http://www.w3.org/2000/svg" width="135" height="40"><g fill="none"><path fill="#A6A6A6" d="M130.197 40H4.729A4.74 4.74 0 0 1 0 35.267V4.726A4.733 4.733 0 0 1 4.729 0h125.468C132.803 0 135 2.12 135 4.726v30.541c0 2.605-2.197 4.733-4.803 4.733z"/><path fill="#000" d="M134.032 35.268a3.83 3.83 0 0 1-3.834 3.83H4.729a3.835 3.835 0 0 1-3.839-3.83V4.725A3.84 3.84 0 0 1 4.729.89h125.468a3.834 3.834 0 0 1 3.834 3.835l.001 30.543z"/><path d="M46.23 6.835a3.017 3.017 0 0 1 3.209 3.389c0 2.178-1.178 3.43-3.21 3.43h-2.462V6.836h2.463zm-1.404 5.855h1.286a2.144 2.144 0 0 0 2.249-2.452 2.15 2.15 0 0 0-2.25-2.439h-1.285v4.891zm5.809-1.61a2.438 2.438 0 1 1 4.854 0 2.438 2.438 0 1 1-4.854 0zm3.81 0c0-1.116-.502-1.769-1.381-1.769-.883 0-1.38.653-1.38 1.768 0 1.125.497 1.772 1.38 1.772.88 0 1.38-.652 1.38-1.772zm7.495 2.575h-1.053l-1.063-3.79h-.08l-1.06 3.79h-1.043l-1.419-5.147h1.03l.922 3.927h.076l1.058-3.927h.974l1.058 3.927h.08l.918-3.927h1.016zm2.607-5.147h.978v.818h.075a1.54 1.54 0 0 1 1.536-.917 1.674 1.674 0 0 1 1.781 1.914v3.332h-1.015v-3.077c0-.827-.36-1.238-1.11-1.238a1.18 1.18 0 0 0-1.23 1.304v3.01h-1.015V8.509zM70.536 6.5h1.015v7.155h-1.015zm2.427 4.58a2.438 2.438 0 1 1 4.855 0 2.439 2.439 0 1 1-4.855 0zm3.81 0c0-1.116-.502-1.769-1.381-1.769-.883 0-1.38.653-1.38 1.768 0 1.125.497 1.772 1.38 1.772.88 0 1.38-.652 1.38-1.772zm2.114 1.12c0-.927.69-1.461 1.914-1.537l1.394-.08v-.445c0-.543-.36-.85-1.054-.85-.567 0-.96.208-1.072.572h-.984c.104-.884.936-1.45 2.103-1.45 1.29 0 2.018.641 2.018 1.728v3.517h-.978v-.724h-.08a1.731 1.731 0 0 1-1.546.808 1.555 1.555 0 0 1-1.715-1.54zm3.308-.44v-.43l-1.257.08c-.709.047-1.03.288-1.03.742 0 .463.402.732.954.732a1.213 1.213 0 0 0 1.333-1.125zm2.345-.68c0-1.627.837-2.657 2.137-2.657a1.696 1.696 0 0 1 1.578.903h.076V6.499h1.016v7.156h-.974v-.814h-.08c-.33.577-.952.923-1.616.898-1.31 0-2.136-1.03-2.136-2.66zm1.05 0c0 1.09.514 1.748 1.375 1.748.856 0 1.385-.667 1.385-1.744 0-1.073-.535-1.749-1.385-1.749-.855 0-1.375.662-1.375 1.744zm7.959 0a2.438 2.438 0 1 1 4.853 0 2.438 2.438 0 1 1-4.853 0zm3.809 0c0-1.116-.501-1.769-1.38-1.769-.884 0-1.38.653-1.38 1.768 0 1.125.496 1.772 1.38 1.772.879 0 1.38-.652 1.38-1.772zm2.407-2.572h.978v.818h.076a1.54 1.54 0 0 1 1.535-.917 1.674 1.674 0 0 1 1.782 1.914v3.332h-1.016v-3.077c0-.827-.36-1.238-1.11-1.238a1.18 1.18 0 0 0-1.23 1.304v3.01h-1.015V8.509zm10.109-1.281v1.305h1.115v.855h-1.115v2.646c0 .54.223.776.728.776.13 0 .259-.009.387-.024v.846c-.182.033-.367.05-.552.052-1.13 0-1.58-.397-1.58-1.39V9.388h-.816v-.855h.817V7.227h1.016zm2.503-.727h1.006v2.835h.08a1.584 1.584 0 0 1 1.57-.922 1.695 1.695 0 0 1 1.772 1.919v3.323h-1.016v-3.072c0-.822-.383-1.239-1.1-1.239a1.202 1.202 0 0 0-1.297 1.305v3.006h-1.015V6.499zm10.35 5.765a2.09 2.09 0 0 1-2.23 1.489 2.337 2.337 0 0 1-2.377-2.656 2.374 2.374 0 0 1 2.373-2.689c1.432 0 2.296.978 2.296 2.594v.355h-3.634v.057a1.36 1.36 0 0 0 1.37 1.474c.497.06.98-.187 1.224-.624h.978zm-3.572-1.658h2.599a1.242 1.242 0 0 0-1.267-1.334 1.316 1.316 0 0 0-1.332 1.334zM30.259 19.905c.025-1.918 1.055-3.69 2.728-4.694a5.904 5.904 0 0 0-4.621-2.439c-1.944-.199-3.83 1.136-4.82 1.136-1.01 0-2.536-1.116-4.178-1.083-2.162.068-4.128 1.239-5.18 3.084-2.239 3.785-.569 9.348 1.577 12.408 1.073 1.498 2.327 3.171 3.968 3.112 1.606-.065 2.206-1 4.145-1 1.92 0 2.483 1 4.158.962 1.723-.027 2.81-1.505 3.845-3.017a12.274 12.274 0 0 0 1.758-3.496c-2.047-.845-3.378-2.803-3.38-4.973zm-3.163-9.145a5.422 5.422 0 0 0 1.29-3.946 5.787 5.787 0 0 0-3.714 1.876 5.164 5.164 0 0 0-1.324 3.8 4.792 4.792 0 0 0 3.748-1.73zM50.848 27.736h-5.044l-1.212 3.554h-2.137l4.779-13.148h2.22l4.778 13.148H52.06l-1.21-3.554zm-4.522-1.64h3.999l-1.971-5.768h-.055l-1.973 5.768zm18.226.401c0 2.98-1.605 4.893-4.027 4.893a3.276 3.276 0 0 1-3.036-1.677h-.046v4.748h-1.98V21.704h1.917v1.594h.036a3.428 3.428 0 0 1 3.072-1.695c2.45 0 4.064 1.924 4.064 4.894zm-2.036 0c0-1.94-1.01-3.216-2.55-3.216-1.513 0-2.531 1.302-2.531 3.216 0 1.932 1.018 3.225 2.531 3.225 1.54 0 2.55-1.266 2.55-3.225zm12.656 0c0 2.98-1.605 4.893-4.027 4.893a3.276 3.276 0 0 1-3.036-1.677h-.046v4.748h-1.98V21.704H68v1.594h.036a3.428 3.428 0 0 1 3.073-1.695c2.449 0 4.063 1.924 4.063 4.894zm-2.036 0c0-1.94-1.01-3.216-2.55-3.216-1.513 0-2.53 1.302-2.53 3.216 0 1.932 1.017 3.225 2.53 3.225 1.54 0 2.55-1.266 2.55-3.225zm9.055 1.129c.147 1.304 1.422 2.16 3.164 2.16 1.67 0 2.871-.856 2.871-2.031 0-1.02-.724-1.632-2.44-2.05l-1.715-.411c-2.43-.583-3.558-1.713-3.558-3.545 0-2.268 1.99-3.827 4.815-3.827 2.797 0 4.714 1.559 4.779 3.827h-2c-.12-1.312-1.211-2.104-2.807-2.104-1.595 0-2.687.801-2.687 1.968 0 .93.697 1.476 2.403 1.895l1.458.356c2.716.638 3.844 1.721 3.844 3.645 0 2.46-1.972 4-5.11 4-2.934 0-4.916-1.504-5.044-3.883h2.027zm12.402-8.191v2.269h1.835v1.558h-1.835v5.285c0 .82.367 1.203 1.174 1.203a6.23 6.23 0 0 0 .651-.045v1.549a5.474 5.474 0 0 1-1.1.09c-1.953 0-2.715-.728-2.715-2.587v-5.495H91.2v-1.558h1.403v-2.269h1.99zm2.897 7.062c0-3.016 1.788-4.911 4.577-4.911 2.797 0 4.577 1.895 4.577 4.911 0 3.025-1.77 4.912-4.577 4.912-2.806 0-4.577-1.887-4.577-4.912zm7.136 0c0-2.069-.954-3.29-2.56-3.29-1.604 0-2.558 1.23-2.558 3.29 0 2.078.954 3.29 2.559 3.29 1.605 0 2.56-1.212 2.56-3.29zm3.651-4.793h1.89v1.631h.045a2.3 2.3 0 0 1 2.321-1.732c.228 0 .456.024.679.074v1.84a2.786 2.786 0 0 0-.89-.119 2.002 2.002 0 0 0-1.543.632 1.973 1.973 0 0 0-.521 1.574v5.686h-1.98v-9.586zm14.067 6.77c-.267 1.74-1.973 2.935-4.155 2.935-2.807 0-4.55-1.869-4.55-4.866 0-3.007 1.752-4.957 4.467-4.957 2.67 0 4.348 1.822 4.348 4.728v.675h-6.815v.118c-.064.714.184 1.42.681 1.94.497.52 1.194.802 1.915.776a2.185 2.185 0 0 0 2.228-1.349h1.88zm-6.696-2.86h4.824a2.297 2.297 0 0 0-.648-1.731 2.328 2.328 0 0 0-1.718-.703 2.451 2.451 0 0 0-1.74.708 2.419 2.419 0 0 0-.718 1.725z" fill="#FFF"/></g></svg>