<svg width="469" height="599" fill="none" xmlns="http://www.w3.org/2000/svg"><path fill="#33F" d="M0 0h375v627H0z"/><rect x="232" y="39" width="237" height="67" rx="6" fill="#FF4D4A"/><path d="M303.42 68h-2.39V56.48h2.4V68zm11.59-8.7c.37 0 .74.07 1.1.22a2.47 2.47 0 011.48 1.85c.06.3.08.71.08 1.26l-.01 5.37h-2.29v-5.42c0-.32-.05-.59-.15-.8-.2-.4-.56-.6-1.1-.6-.61 0-1.03.26-1.27.77-.12.27-.18.6-.18.98V68h-2.24v-5.07c0-.5-.05-.87-.16-1.1-.18-.41-.55-.62-1.1-.62-.63 0-1.06.2-1.28.62-.12.23-.18.58-.18 1.05V68h-2.26v-8.5h2.17v1.24c.27-.44.53-.76.78-.94.43-.34 1-.5 1.68-.5.65 0 1.18.14 1.58.43.32.26.56.6.73 1.02.3-.5.65-.87 1.09-1.1.45-.24.96-.35 1.53-.35zm14.23 0c.38 0 .75.07 1.11.22a2.48 2.48 0 011.48 1.85c.05.3.08.71.08 1.26l-.02 5.37h-2.28v-5.42c0-.32-.05-.59-.16-.8-.2-.4-.56-.6-1.1-.6-.6 0-1.03.26-1.26.77-.12.27-.18.6-.18.98V68h-2.25v-5.07c0-.5-.05-.87-.15-1.1-.19-.41-.56-.62-1.1-.62-.64 0-1.07.2-1.29.62-.12.23-.18.58-.18 1.05V68h-2.25v-8.5h2.16v1.24c.28-.44.54-.76.78-.94.44-.34 1-.5 1.68-.5.65 0 1.18.14 1.58.43.32.26.57.6.74 1.02.29-.5.65-.87 1.08-1.1.46-.24.97-.35 1.53-.35zm8.08 1.8c-.51 0-.92.16-1.2.48-.28.32-.46.76-.53 1.31h3.46c-.04-.59-.22-1.03-.54-1.34-.32-.3-.72-.46-1.19-.46zm0-1.84c.7 0 1.35.13 1.91.4.57.26 1.04.68 1.41 1.25.33.5.55 1.1.65 1.76.06.4.08.95.07 1.69h-5.83c.03.85.3 1.45.8 1.8.31.21.68.32 1.12.32.45 0 .83-.13 1.11-.4.16-.13.3-.33.42-.58h2.27c-.06.5-.32 1.02-.79 1.54a3.87 3.87 0 01-3.06 1.24 4.32 4.32 0 01-2.87-1.05c-.83-.7-1.24-1.83-1.24-3.4 0-1.48.37-2.6 1.12-3.4a3.85 3.85 0 012.91-1.17zm8.69.02a2.72 2.72 0 012.35 1.28V56.5h2.26V68h-2.17v-1.18c-.31.5-.68.87-1.08 1.1-.4.23-.91.35-1.52.35-1 0-1.83-.4-2.51-1.2a4.66 4.66 0 01-1.02-3.1c0-1.46.33-2.6 1-3.44a3.28 3.28 0 012.69-1.25zm.48 7.11c.63 0 1.11-.23 1.44-.7.33-.47.5-1.08.5-1.82 0-1.04-.27-1.79-.8-2.24a1.7 1.7 0 00-1.12-.4c-.65 0-1.13.24-1.44.74-.3.49-.45 1.1-.45 1.83 0 .78.15 1.41.46 1.89.31.47.78.7 1.41.7zm8.45-7.92h-2.26V56.4h2.26v2.06zm-2.26 1.01h2.26V68h-2.26v-8.52zm9.12 4.38a2.58 2.58 0 01-1.02.37l-.5.09c-.47.08-.8.19-1 .3-.35.2-.52.52-.52.95 0 .38.1.66.31.83.21.17.47.25.77.25.48 0 .92-.14 1.32-.42.41-.28.62-.8.64-1.54v-.83zm-1.36-1.04c.42-.05.71-.12.89-.2.32-.13.48-.34.48-.63 0-.35-.13-.59-.37-.72s-.6-.2-1.06-.2c-.53 0-.9.13-1.12.4-.16.18-.26.44-.31.77h-2.15c.04-.74.25-1.35.62-1.83.59-.75 1.6-1.13 3.03-1.13.94 0 1.76.19 2.49.56.72.37 1.08 1.06 1.08 2.09v3.9c0 .28 0 .6.02.99.01.3.06.49.13.6.07.1.18.18.33.25V68h-2.42a2.45 2.45 0 01-.14-.48 5.61 5.61 0 01-.06-.52c-.31.33-.67.62-1.07.85a3.2 3.2 0 01-1.62.42c-.77 0-1.41-.22-1.92-.66a2.37 2.37 0 01-.75-1.88c0-1.04.4-1.8 1.21-2.27.45-.25 1.1-.44 1.96-.55l.75-.09zm4.7-1.67v-1.59h1.18V57.2h2.2v2.37h1.39v1.59h-1.39v4.5c0 .35.05.57.14.65.08.09.36.13.8.13h.22l.23-.02v1.67l-1.06.04c-1.05.03-1.77-.15-2.16-.55-.25-.25-.37-.65-.37-1.18v-5.24h-1.19zm9.56-.06c-.52 0-.92.17-1.2.49-.29.32-.47.76-.54 1.31h3.46c-.04-.59-.21-1.03-.54-1.34-.31-.3-.71-.46-1.19-.46zm0-1.83c.7 0 1.34.13 1.9.4.58.26 1.05.68 1.42 1.25.33.5.55 1.1.64 1.76.06.4.08.95.07 1.69h-5.82c.03.85.3 1.45.8 1.8.3.21.68.32 1.11.32.46 0 .83-.13 1.12-.4.15-.13.3-.33.41-.58h2.27c-.05.5-.31 1.02-.78 1.54a3.87 3.87 0 01-3.07 1.24 4.32 4.32 0 01-2.86-1.05c-.83-.7-1.25-1.83-1.25-3.4 0-1.48.38-2.6 1.12-3.4a3.85 3.85 0 012.92-1.17zm12.51-.78V66h2.22c1.13 0 1.93-.56 2.38-1.68.24-.61.36-1.35.36-2.2 0-1.17-.18-2.07-.55-2.69-.37-.63-1.1-.95-2.19-.95h-2.22zm2.63-2c.7.01 1.3.1 1.78.25.8.27 1.46.76 1.96 1.47.4.57.67 1.19.82 1.85.14.67.22 1.3.22 1.91 0 1.53-.31 2.83-.93 3.9a4.16 4.16 0 01-3.85 2.14h-4.96V56.48h4.96zm11.11 7.38a2.58 2.58 0 01-1.01.37l-.5.09c-.47.08-.8.19-1.01.3-.34.2-.52.52-.52.95 0 .38.1.66.32.83.21.17.47.25.77.25.48 0 .92-.14 1.32-.42.4-.28.62-.8.63-1.54v-.83zm-1.35-1.04c.41-.05.7-.12.88-.2.32-.13.48-.34.48-.63 0-.35-.12-.59-.37-.72-.24-.13-.59-.2-1.06-.2-.52 0-.9.13-1.12.4-.15.18-.26.44-.3.77h-2.16c.05-.74.26-1.35.63-1.83.59-.75 1.6-1.13 3.03-1.13.93 0 1.76.19 2.48.56.73.37 1.09 1.06 1.09 2.09v3.9l.01.99c.02.3.06.49.14.6.07.1.18.18.33.25V68h-2.43a2.52 2.52 0 01-.14-.48 5.98 5.98 0 01-.06-.52c-.3.33-.66.62-1.06.85a3.2 3.2 0 01-1.63.42c-.77 0-1.4-.22-1.91-.66a2.37 2.37 0 01-.75-1.88c0-1.04.4-1.8 1.21-2.27.44-.25 1.1-.44 1.95-.55l.76-.09zm10.28-3.54c.88 0 1.6.23 2.16.7.56.45.84 1.22.84 2.29V68h-2.28v-5.18c0-.45-.06-.8-.18-1.03-.22-.44-.63-.66-1.25-.66-.75 0-1.27.32-1.55.96a3.3 3.3 0 00-.22 1.3V68h-2.22v-8.5h2.15v1.24c.29-.44.56-.75.81-.94a2.82 2.82 0 011.74-.52zm8.72 6.9c.52 0 .96-.2 1.32-.6.36-.39.54-1.02.54-1.88 0-.8-.17-1.42-.51-1.84-.34-.42-.8-.63-1.37-.63-.78 0-1.32.36-1.62 1.1-.15.39-.23.87-.23 1.44 0 .5.08.94.25 1.32.3.72.84 1.08 1.62 1.08zm-.55-6.9c.42 0 .8.07 1.11.2.55.22.98.63 1.32 1.23v-1.23h2.16v8.08c0 1.1-.18 1.93-.55 2.49-.64.96-1.86 1.43-3.66 1.43a4.98 4.98 0 01-2.66-.64 2.36 2.36 0 01-1.14-1.91h2.42a1 1 0 00.3.56c.24.2.64.3 1.21.3.8 0 1.34-.26 1.61-.8.18-.34.27-.92.27-1.73v-.55c-.22.37-.44.64-.69.82-.44.34-1.02.5-1.73.5-1.09 0-1.96-.37-2.62-1.14a4.69 4.69 0 01-.98-3.12c0-1.27.32-2.33.95-3.2a3.12 3.12 0 012.68-1.29zm10.04 1.81c-.52 0-.92.17-1.2.49-.29.32-.47.76-.54 1.31h3.46a1.91 1.91 0 00-.54-1.34c-.31-.3-.71-.46-1.18-.46zm0-1.83c.7 0 1.34.13 1.91.4.57.26 1.04.68 1.4 1.25.34.5.56 1.1.66 1.76.05.4.07.95.06 1.69h-5.82c.03.85.3 1.45.8 1.8.3.21.68.32 1.11.32.46 0 .83-.13 1.12-.4.15-.13.3-.33.41-.58h2.28c-.06.5-.32 1.02-.8 1.54a3.87 3.87 0 01-3.06 1.24 4.32 4.32 0 01-2.86-1.05c-.83-.7-1.25-1.83-1.25-3.4 0-1.48.38-2.6 1.12-3.4a3.85 3.85 0 012.92-1.17zm10.17.02h.1l.2.02v2.28a6.1 6.1 0 00-.65-.04c-.9 0-1.5.3-1.8.87-.17.33-.26.84-.26 1.52V68h-2.24v-8.52h2.12v1.49c.35-.57.65-.96.9-1.17.42-.34.96-.52 1.63-.52zm4.38 6.46h2.33V68h-2.33v-2.26zm-2.85-5.62c.06-1.49.58-2.54 1.55-3.16a4.1 4.1 0 012.27-.6c1.18 0 2.15.29 2.93.85.78.56 1.17 1.4 1.17 2.5 0 .68-.17 1.25-.5 1.71-.2.28-.58.64-1.15 1.08l-.55.43c-.3.23-.5.5-.6.82-.07.2-.1.5-.1.92h-2.12c.04-.88.12-1.49.25-1.82.14-.34.49-.73 1.05-1.16l.57-.45a2 2 0 00.46-.46c.2-.29.3-.6.3-.94 0-.4-.1-.76-.34-1.08-.23-.33-.65-.5-1.27-.5-.6 0-1.03.2-1.29.6-.25.4-.37.82-.37 1.26h-2.26zm-133.74 14.1a4.7 4.7 0 013.39 1.14c.8.77 1.25 1.63 1.33 2.6h-1.51a3.15 3.15 0 00-1.03-1.75 3.24 3.24 0 00-2.16-.65c-1.13 0-2.04.4-2.74 1.2-.7.79-1.04 2-1.04 3.65 0 1.34.31 2.43.94 3.27.63.83 1.56 1.25 2.8 1.25 1.16 0 2.03-.44 2.63-1.32.31-.46.55-1.07.7-1.83h1.52a5.19 5.19 0 01-1.34 3.04 4.78 4.78 0 01-3.69 1.48c-1.33 0-2.45-.4-3.36-1.21-1.2-1.07-1.79-2.72-1.79-4.95 0-1.7.45-3.08 1.35-4.16a4.9 4.9 0 014-1.77zm7.62 9.55c0 .41.15.73.45.96.3.24.65.36 1.05.36.5 0 .98-.12 1.44-.35.78-.38 1.17-1 1.17-1.86v-1.14c-.17.11-.4.2-.66.28-.27.07-.54.12-.8.15l-.85.11c-.51.07-.9.18-1.15.32-.43.25-.65.64-.65 1.17zm3.4-2.84c.33-.04.55-.18.66-.4.06-.13.09-.31.09-.55 0-.47-.17-.82-.51-1.03a2.7 2.7 0 00-1.47-.33c-.73 0-1.25.2-1.56.6-.17.21-.28.54-.33.97h-1.32c.03-1.03.36-1.75 1-2.15.65-.4 1.4-.61 2.25-.61.98 0 1.78.19 2.4.56.6.38.9.96.9 1.75v4.82c0 .15.04.27.1.35.06.1.18.14.38.14a3.2 3.2 0 00.46-.05v1.04l-.5.12-.47.02c-.49 0-.84-.17-1.06-.52-.11-.18-.2-.44-.24-.77a3.82 3.82 0 01-3 1.4c-.78 0-1.42-.24-1.91-.71a2.37 2.37 0 01-.74-1.78c0-.77.25-1.37.73-1.8a3.45 3.45 0 011.9-.79l2.25-.28zm4.47-6.4h1.4V86h-1.4V74.52zm3.56 0h1.4V86h-1.4V74.52zm9.07 8.77c.04.77.34 1.3.9 1.6a2.18 2.18 0 002.69-.6c.47-.56.8-1.7 1-3.4-.3.49-.7.83-1.16 1.04-.46.2-.95.3-1.48.3a3.34 3.34 0 01-2.56-1.01 3.66 3.66 0 01-.94-2.6c0-1.01.3-1.9.93-2.68.62-.77 1.53-1.15 2.74-1.15 1.63 0 2.75.73 3.37 2.2.35.8.52 1.82.52 3.03 0 1.37-.2 2.58-.62 3.64-.68 1.76-1.84 2.64-3.47 2.64-1.09 0-1.92-.28-2.49-.86a2.94 2.94 0 01-.85-2.15h1.42zm2.13-2.3c.56 0 1.07-.18 1.53-.55.46-.37.7-1.01.7-1.93 0-.82-.21-1.43-.63-1.83-.41-.4-.94-.61-1.58-.61-.69 0-1.23.23-1.64.7a2.7 2.7 0 00-.6 1.84c0 .73.18 1.3.53 1.74.35.43.92.64 1.7.64zm6.18-2.92V77a5.8 5.8 0 002.13-.5c.4-.23.7-.78.9-1.64h1.1V86h-1.5v-7.92h-2.63zm7.72 0V77a5.8 5.8 0 002.13-.5c.4-.23.7-.78.9-1.64h1.1V86h-1.5v-7.92h-2.63zM22.46 132.92l3.79 16.33 4.54-16.33h2.95l4.54 16.33 3.78-16.33h2.98L39.77 153H36.9l-4.63-16.65L27.6 153h-2.85l-5.25-20.08h2.95zm24.79-.07h2.46v7.49a7.12 7.12 0 011.57-1.56 5.3 5.3 0 012.97-.78c2.12 0 3.56.75 4.32 2.23.4.81.61 1.94.61 3.38V153h-2.53v-9.23c0-1.07-.13-1.86-.4-2.36-.45-.8-1.3-1.2-2.52-1.2-1.02 0-1.95.34-2.78 1.05-.83.7-1.24 2.02-1.24 3.97V153h-2.46v-20.15zm17.47 16.25c0 .71.26 1.28.78 1.69.52.4 1.13.61 1.84.61.87 0 1.7-.2 2.52-.6a3.39 3.39 0 002.05-3.27v-1.98c-.3.19-.69.35-1.16.48a9.9 9.9 0 01-1.4.27l-1.49.2c-.89.11-1.56.3-2 .55-.76.43-1.14 1.11-1.14 2.05zm5.96-4.97c.56-.08.94-.31 1.13-.71.11-.22.17-.54.17-.95 0-.84-.3-1.44-.9-1.82a4.72 4.72 0 00-2.56-.57c-1.29 0-2.2.35-2.73 1.04-.3.38-.5.95-.6 1.7H62.9c.05-1.8.63-3.05 1.75-3.75a7.21 7.21 0 013.92-1.07c1.73 0 3.13.33 4.2.99 1.07.65 1.6 1.67 1.6 3.06v8.43c0 .26.05.47.15.62.11.16.33.23.67.23a5.7 5.7 0 00.8-.08v1.82c-.37.1-.67.18-.87.2-.2.03-.47.04-.82.04-.84 0-1.46-.3-1.84-.9-.2-.32-.34-.77-.43-1.35a6.26 6.26 0 01-2.16 1.7c-.94.5-1.97.73-3.1.73a4.65 4.65 0 01-3.34-1.23 4.14 4.14 0 01-1.28-3.1c0-1.36.42-2.41 1.27-3.16a6.05 6.05 0 013.34-1.38l3.92-.5zm8.23-9.86h2.49v4.09h2.34v2H81.4v9.56c0 .51.17.86.52 1.03.19.1.5.15.95.15h.39l.48-.04V153c-.29.08-.58.14-.9.18-.3.03-.62.05-.98.05-1.15 0-1.92-.29-2.33-.87a3.95 3.95 0 01-.62-2.3v-9.7h-1.98v-2h1.98v-4.09zm7.82 4.48c.5-.08.88-.36 1.14-.84a3.42 3.42 0 00.35-2.01h-1.49v-2.98h2.93v2.74c0 1.17-.25 2.16-.73 2.99a2.81 2.81 0 01-2.2 1.39v-1.29zm6.69 9.66c.07.82.27 1.44.61 1.88.62.8 1.7 1.2 3.23 1.2.9 0 1.71-.2 2.4-.6a2 2 0 001.04-1.84c0-.63-.28-1.1-.83-1.44a9.93 9.93 0 00-2.1-.7l-1.96-.49a9.53 9.53 0 01-2.76-1.03 3.1 3.1 0 01-1.59-2.77c0-1.38.5-2.5 1.5-3.36a6 6 0 014.02-1.28c2.21 0 3.8.64 4.78 1.94.6.82.9 1.7.88 2.65h-2.32a2.84 2.84 0 00-.59-1.52c-.56-.65-1.54-.97-2.94-.97-.93 0-1.63.18-2.12.53-.47.36-.7.83-.7 1.41 0 .64.3 1.15.94 1.53.36.23.9.43 1.6.6l1.64.4c1.76.43 2.95.84 3.55 1.24.96.63 1.44 1.62 1.44 2.97 0 1.3-.5 2.43-1.5 3.38-.98.95-2.48 1.42-4.5 1.42-2.18 0-3.73-.5-4.64-1.48-.9-.99-1.39-2.22-1.45-3.67h2.37zm20.82-14.14h2.49v4.09h2.33v2h-2.33v9.56c0 .51.17.86.52 1.03.19.1.5.15.95.15h.39l.47-.04V153c-.28.08-.57.14-.88.18-.3.03-.63.05-.99.05-1.15 0-1.93-.29-2.34-.87a3.94 3.94 0 01-.61-2.3v-9.7h-1.98v-2h1.98v-4.09zm7.3-1.42H124v7.49a7.1 7.1 0 011.57-1.56 5.3 5.3 0 012.97-.78c2.12 0 3.56.75 4.32 2.23.41.81.61 1.94.61 3.38V153h-2.53v-9.23c0-1.07-.13-1.86-.4-2.36-.45-.8-1.29-1.2-2.52-1.2a4.2 4.2 0 00-2.78 1.05c-.82.7-1.24 2.02-1.24 3.97V153h-2.46v-20.15zm21.68 5.18c1.04 0 2.05.25 3.02.74a5.53 5.53 0 012.23 1.88c.5.74.82 1.6.99 2.59.14.67.22 1.75.22 3.22h-10.74a6.3 6.3 0 001.06 3.59c.65.89 1.67 1.34 3.04 1.34a3.94 3.94 0 004.01-2.98h2.42a5.09 5.09 0 01-.64 1.8 5.74 5.74 0 01-3.98 3.09c-.6.15-1.26.22-2.01.22a6.18 6.18 0 01-4.63-1.98c-1.27-1.33-1.9-3.2-1.9-5.58 0-2.35.63-4.26 1.9-5.73a6.32 6.32 0 015.01-2.2zm3.93 6.48a6.36 6.36 0 00-.7-2.56c-.67-1.18-1.8-1.77-3.38-1.77-1.13 0-2.08.4-2.84 1.23a4.6 4.6 0 00-1.22 3.1h8.14zm13.35-6.15h2.34v2.08a6.56 6.56 0 012.2-1.85 5.87 5.87 0 012.59-.56c2.08 0 3.48.72 4.2 2.17.4.8.6 1.93.6 3.4v9.4h-2.5v-9.23a5 5 0 00-.39-2.16c-.44-.91-1.23-1.37-2.38-1.37-.58 0-1.06.06-1.43.18-.68.2-1.27.6-1.78 1.2-.41.49-.68.99-.8 1.5-.13.52-.19 1.25-.19 2.21V153h-2.46v-14.64zm17.48 10.74c0 .71.26 1.28.78 1.69.52.4 1.13.61 1.84.61.87 0 1.7-.2 2.52-.6a3.39 3.39 0 002.05-3.27v-1.98c-.3.19-.69.35-1.16.48a9.9 9.9 0 01-1.4.27l-1.49.2c-.9.11-1.56.3-2 .55-.77.43-1.14 1.11-1.14 2.05zm5.96-4.97c.56-.08.94-.31 1.13-.71.11-.22.17-.54.17-.95 0-.84-.3-1.44-.9-1.82a4.72 4.72 0 00-2.56-.57c-1.29 0-2.2.35-2.74 1.04-.3.38-.5.95-.58 1.7h-2.3c.04-1.8.63-3.05 1.75-3.75a7.21 7.21 0 013.92-1.07c1.72 0 3.12.33 4.2.99 1.07.65 1.6 1.67 1.6 3.06v8.43c0 .26.05.47.15.62.1.16.33.23.67.23a5.66 5.66 0 00.8-.08v1.82c-.38.1-.67.18-.87.2-.2.03-.47.04-.82.04-.85 0-1.46-.3-1.84-.9-.2-.32-.35-.77-.43-1.35a6.26 6.26 0 01-2.16 1.7c-.94.5-1.97.73-3.1.73a4.66 4.66 0 01-3.34-1.23 4.15 4.15 0 01-1.28-3.1c0-1.36.42-2.41 1.27-3.16a6.05 6.05 0 013.33-1.38l3.93-.5zm8.23-9.86h2.49v4.09h2.33v2h-2.33v9.56c0 .51.17.86.52 1.03.19.1.5.15.95.15h.39l.47-.04V153c-.28.08-.58.14-.89.18-.3.03-.62.05-.98.05-1.15 0-1.93-.29-2.34-.87a3.95 3.95 0 01-.61-2.3v-9.7h-1.98v-2h1.98v-4.09zm9.76 4.09v9.72c0 .75.12 1.36.35 1.83.44.88 1.26 1.31 2.45 1.31 1.72 0 2.88-.76 3.5-2.3.34-.81.5-1.94.5-3.37v-7.2h2.47V153h-2.32l.02-2.16a4.96 4.96 0 01-1.19 1.4 5.23 5.23 0 01-3.42 1.16c-2.08 0-3.5-.7-4.26-2.1a6.23 6.23 0 01-.62-2.99v-9.95h2.52zm13.2 0h2.33v2.53c.2-.5.66-1.1 1.4-1.8a3.64 3.64 0 012.83-1.05l.56.06v2.6a3.68 3.68 0 00-.81-.07c-1.24 0-2.2.4-2.86 1.2-.66.8-1 1.7-1 2.75V153h-2.46v-14.64zm15.35-.33c1.04 0 2.04.25 3.02.74a5.53 5.53 0 012.23 1.88c.49.74.82 1.6.98 2.59.15.67.22 1.75.22 3.22H226.2a6.3 6.3 0 001.05 3.59c.66.89 1.67 1.34 3.05 1.34a3.94 3.94 0 004-2.98h2.42a5.09 5.09 0 01-.64 1.8 5.74 5.74 0 01-3.98 3.09c-.59.15-1.26.22-2 .22a6.18 6.18 0 01-4.64-1.98c-1.27-1.33-1.9-3.2-1.9-5.58 0-2.35.64-4.26 1.91-5.73a6.32 6.32 0 015-2.2zm3.92 6.48a6.36 6.36 0 00-.7-2.56c-.67-1.18-1.8-1.77-3.37-1.77-1.13 0-2.08.4-2.85 1.23a4.6 4.6 0 00-1.21 3.1h8.13zm19.17 6.9c1.63 0 2.75-.61 3.35-1.84a9.2 9.2 0 00.91-4.13c0-1.37-.21-2.48-.65-3.34-.7-1.34-1.89-2.02-3.58-2.02-1.5 0-2.6.57-3.29 1.72a7.99 7.99 0 00-1.02 4.16c0 1.56.34 2.86 1.02 3.9.69 1.03 1.77 1.55 3.26 1.55zm.1-13.48c1.88 0 3.48.63 4.78 1.89 1.3 1.26 1.95 3.1 1.95 5.55 0 2.36-.57 4.31-1.72 5.85s-2.93 2.31-5.34 2.31a6.05 6.05 0 01-4.8-2.03c-1.19-1.37-1.78-3.2-1.78-5.5 0-2.46.62-4.42 1.87-5.88a6.29 6.29 0 015.03-2.19zm10.29-1.8c.04-1.02.21-1.77.53-2.24.58-.84 1.68-1.26 3.32-1.26a7.86 7.86 0 011.04.05v2.25a9.15 9.15 0 00-.87-.05c-.75 0-1.2.2-1.34.6-.15.38-.22 1.36-.22 2.95h2.43v1.94h-2.46V153h-2.43v-12.63h-2.04v-1.94h2.04v-2.3zm-234 36.23h2.71l-2.3 6.42c-.9 2.52-1.65 4.57-2.25 6.16-1.42 3.73-2.43 6.01-3 6.83-.6.82-1.6 1.23-3.02 1.23-.34 0-.61-.01-.8-.04a6.61 6.61 0 01-.69-.15v-2.24c.43.12.74.19.93.22.2.02.36.04.5.04.46 0 .8-.08 1-.23.23-.15.4-.33.55-.55.05-.07.21-.45.5-1.12l.61-1.5-5.41-15.07h2.79L26 184.28l3.95-11.92zm10.66 13.05c1.63 0 2.74-.61 3.34-1.84.62-1.24.92-2.62.92-4.13 0-1.37-.22-2.48-.66-3.34-.69-1.34-1.88-2.02-3.58-2.02-1.5 0-2.6.57-3.28 1.72a7.98 7.98 0 00-1.02 4.16c0 1.56.34 2.86 1.02 3.9.68 1.03 1.77 1.55 3.26 1.55zm.1-13.48c1.88 0 3.47.63 4.78 1.89 1.3 1.26 1.95 3.1 1.95 5.55 0 2.36-.57 4.31-1.72 5.85s-2.93 2.31-5.35 2.31a6.04 6.04 0 01-4.8-2.03c-1.18-1.37-1.77-3.2-1.77-5.5 0-2.46.62-4.42 1.87-5.88a6.29 6.29 0 015.03-2.19zm12.13.43v9.72c0 .75.12 1.36.36 1.83.43.88 1.25 1.31 2.44 1.31 1.72 0 2.88-.76 3.5-2.3.34-.81.51-1.94.51-3.37v-7.2h2.46V187H59.8l.02-2.16a4.97 4.97 0 01-1.19 1.4 5.23 5.23 0 01-3.41 1.16c-2.09 0-3.51-.7-4.27-2.1a6.23 6.23 0 01-.61-2.99v-9.95h2.51zm13.2 0h2.33v2.53c.2-.5.66-1.1 1.41-1.8a3.64 3.64 0 012.82-1.05l.56.06v2.6a3.69 3.69 0 00-.8-.07c-1.25 0-2.2.4-2.87 1.2-.66.8-1 1.7-1 2.75V187h-2.46v-14.64zm23.14-.33c1.04 0 2.05.25 3.02.74a5.53 5.53 0 012.23 1.88c.5.74.82 1.6.99 2.59.14.67.21 1.75.21 3.22H84.91a6.3 6.3 0 001.05 3.59c.66.89 1.68 1.34 3.05 1.34a3.94 3.94 0 004-2.98h2.43a5.09 5.09 0 01-.64 1.8 5.74 5.74 0 01-3.98 3.09c-.6.15-1.26.22-2.01.22a6.18 6.18 0 01-4.64-1.98c-1.26-1.33-1.9-3.2-1.9-5.58 0-2.35.64-4.26 1.92-5.73a6.32 6.32 0 015-2.2zm3.93 6.48a6.37 6.37 0 00-.7-2.56c-.68-1.18-1.8-1.77-3.38-1.77-1.13 0-2.08.4-2.84 1.23a4.6 4.6 0 00-1.22 3.1h8.14zm5.56-6.15h2.43v2.08a8.17 8.17 0 011.59-1.58 4.77 4.77 0 012.76-.83c1.17 0 2.1.29 2.82.86.4.33.76.81 1.1 1.45a5.25 5.25 0 011.92-1.74 5.32 5.32 0 012.49-.57c1.97 0 3.3.71 4.02 2.13.38.77.57 1.8.57 3.1V187h-2.56v-10.17c0-.98-.24-1.65-.73-2.01a2.87 2.87 0 00-1.78-.55c-.97 0-1.8.32-2.5.97-.7.65-1.04 1.73-1.04 3.24V187h-2.5v-9.56c0-.99-.12-1.72-.36-2.17-.37-.68-1.07-1.03-2.1-1.03-.92 0-1.77.36-2.53 1.08-.76.72-1.14 2.03-1.14 3.91V187h-2.46v-14.64zm29.42-.33c1.04 0 2.05.25 3.02.74a5.53 5.53 0 012.23 1.88c.5.74.82 1.6.99 2.59.14.67.22 1.75.22 3.22h-10.74a6.3 6.3 0 001.06 3.59c.65.89 1.67 1.34 3.04 1.34a3.94 3.94 0 004.01-2.98h2.42a5.09 5.09 0 01-.64 1.8 5.74 5.74 0 01-3.98 3.09c-.6.15-1.26.22-2.01.22a6.18 6.18 0 01-4.64-1.98c-1.26-1.33-1.9-3.2-1.9-5.58 0-2.35.64-4.26 1.92-5.73a6.32 6.32 0 015-2.2zm3.93 6.48a6.36 6.36 0 00-.7-2.56c-.68-1.18-1.8-1.77-3.38-1.77-1.13 0-2.08.4-2.84 1.23a4.6 4.6 0 00-1.22 3.1h8.14zm5.63-6.15H140v2.53c.19-.5.66-1.1 1.4-1.8a3.64 3.64 0 012.82-1.05l.56.06v2.6a3.68 3.68 0 00-.8-.07c-1.24 0-2.2.4-2.86 1.2-.67.8-1 1.7-1 2.75V187h-2.46v-14.64zm14.42-.26c1.15 0 2.15.28 3.01.84.47.32.94.79 1.42 1.4v-1.85h2.27v13.32c0 1.86-.27 3.33-.82 4.4-1.02 1.99-2.95 2.98-5.78 2.98-1.58 0-2.9-.35-3.98-1.06-1.08-.7-1.68-1.8-1.8-3.31h2.5c.11.66.35 1.16.7 1.52.56.54 1.44.82 2.63.82 1.89 0 3.12-.67 3.7-2 .35-.78.51-2.18.49-4.2-.5.75-1.09 1.3-1.78 1.67-.7.37-1.61.55-2.75.55a5.9 5.9 0 01-4.17-1.68c-1.18-1.13-1.78-3-1.78-5.6 0-2.45.6-4.36 1.8-5.74a5.58 5.58 0 014.34-2.06zm4.43 7.52c0-1.82-.37-3.16-1.12-4.04a3.6 3.6 0 00-2.86-1.3c-1.73 0-2.91.8-3.55 2.43-.34.86-.5 2-.5 3.4 0 1.65.33 2.9 1 3.77a3.27 3.27 0 002.7 1.29 3.8 3.8 0 003.73-2.4c.4-.9.6-1.95.6-3.15zm12.09-7.6c1.04 0 2.04.25 3.02.75a5.53 5.53 0 012.23 1.88c.49.74.82 1.6.98 2.59.15.67.22 1.75.22 3.22h-10.73a6.3 6.3 0 001.05 3.59c.66.89 1.67 1.34 3.05 1.34a3.94 3.94 0 004-2.98h2.43a5.09 5.09 0 01-.65 1.8 5.74 5.74 0 01-3.98 3.09c-.59.15-1.26.22-2 .22a6.18 6.18 0 01-4.64-1.98c-1.27-1.33-1.9-3.2-1.9-5.58 0-2.35.64-4.26 1.91-5.73a6.32 6.32 0 015-2.2zm3.92 6.49a6.36 6.36 0 00-.7-2.56c-.67-1.18-1.8-1.77-3.37-1.77-1.13 0-2.08.4-2.85 1.23a4.6 4.6 0 00-1.21 3.1h8.13zm5.57-6.15h2.33v2.08a6.56 6.56 0 012.2-1.85 5.87 5.87 0 012.59-.56c2.08 0 3.48.72 4.21 2.17.4.8.6 1.93.6 3.4v9.4h-2.5v-9.23a5 5 0 00-.4-2.16c-.43-.91-1.23-1.37-2.38-1.37-.58 0-1.06.06-1.43.18-.68.2-1.27.6-1.78 1.2-.4.49-.68.99-.8 1.5-.12.52-.18 1.25-.18 2.21V187h-2.46v-14.64zm21.23-.43c1.65 0 2.99.4 4.02 1.2 1.04.8 1.66 2.19 1.87 4.15h-2.4a4.37 4.37 0 00-.99-2.24c-.52-.6-1.35-.9-2.5-.9-1.57 0-2.69.76-3.36 2.3-.44.99-.66 2.21-.66 3.67 0 1.47.3 2.7.93 3.7.62 1 1.6 1.5 2.92 1.5a3.2 3.2 0 002.42-.92 5.16 5.16 0 001.25-2.57h2.4c-.28 1.94-.97 3.36-2.06 4.26-1.1.9-2.5 1.34-4.2 1.34a5.6 5.6 0 01-4.58-2.09 8.06 8.06 0 01-1.7-5.25c0-2.57.62-4.57 1.87-6a6.05 6.05 0 014.77-2.15zm17.5.43h2.72c-.35.94-1.12 3.08-2.31 6.42-.9 2.52-1.64 4.57-2.24 6.16-1.43 3.73-2.43 6.01-3.01 6.83-.58.82-1.59 1.23-3 1.23-.36 0-.63-.01-.82-.04a6.67 6.67 0 01-.68-.15v-2.24c.43.12.74.19.93.22.2.02.36.04.5.04.46 0 .8-.08 1-.23.22-.15.4-.33.55-.55.05-.07.21-.45.5-1.12l.6-1.5-5.4-15.07h2.78l3.93 11.92 3.95-11.92zm9.79 11.8h2.72V187h-2.72v-2.84zM222 173.2c0-1.97.56-3.56 1.67-4.75a5.93 5.93 0 014.58-1.8c1.8 0 3.23.51 4.3 1.54a5.15 5.15 0 011.63 3.93c0 .96-.2 1.75-.6 2.35-.4.6-1.19 1.48-2.4 2.65a7.74 7.74 0 00-1.7 2.16 6.76 6.76 0 00-.38 2.6h-2.44c0-1.3.16-2.35.47-3.15.3-.8.99-1.72 2.03-2.75l1.1-1.08c.33-.3.59-.63.8-.97a3.55 3.55 0 00-.26-4.17c-.54-.65-1.42-.98-2.65-.98-1.52 0-2.57.56-3.16 1.7a6.57 6.57 0 00-.56 2.72H222zM20.47 39.6h3.16l5.73 10.05V39.61h2.8V54h-3l-5.88-10.22V54h-2.8V39.6zm19.06 12.44a2.2 2.2 0 001.87-.87c.44-.58.66-1.4.66-2.47a4 4 0 00-.66-2.46 2.2 2.2 0 00-1.87-.87c-.82 0-1.44.29-1.89.87A4 4 0 0037 48.7c0 1.06.22 1.89.65 2.47.45.58 1.07.87 1.89.87zm5.45-3.34c0 1.56-.45 2.9-1.35 4.01-.9 1.1-2.26 1.66-4.1 1.66-1.82 0-3.19-.55-4.08-1.66a6.19 6.19 0 01-1.35-4.01c0-1.54.45-2.87 1.35-4 .9-1.12 2.26-1.69 4.09-1.69s3.19.57 4.09 1.7a6.21 6.21 0 011.35 3.99zm.9-3.26v-1.99h1.49v-2.97h2.75v2.97h1.73v1.99h-1.73v5.62c0 .44.06.71.17.82.11.1.45.16 1.01.16h.27l.28-.02v2.08l-1.32.05c-1.31.04-2.21-.19-2.7-.69-.3-.32-.46-.8-.46-1.47v-6.55h-1.49zm12.62-.62c0-1.52.44-2.74 1.31-3.68a4.46 4.46 0 013.42-1.42c2.15 0 3.63.96 4.43 2.86.46 1.08.69 2.5.69 4.27 0 1.71-.22 3.14-.66 4.29-.83 2.18-2.36 3.27-4.59 3.27a4.7 4.7 0 01-2.86-.94 3.73 3.73 0 01-1.45-2.75h2.77c.06.42.24.75.53 1.01.28.26.66.4 1.14.4.92 0 1.56-.51 1.93-1.53.2-.56.33-1.38.38-2.45-.25.32-.52.56-.8.73a4.39 4.39 0 01-4.92-.7c-.88-.77-1.32-1.9-1.32-3.36zm4.91 2.27c.39 0 .75-.11 1.09-.34.63-.4.95-1.1.95-2.1 0-.8-.2-1.43-.57-1.9-.37-.47-.88-.7-1.53-.7-.48 0-.89.13-1.23.4-.53.41-.8 1.12-.8 2.12 0 .84.17 1.47.51 1.9.35.4.87.62 1.58.62zm7.02-2.86v-1.89c.87-.04 1.49-.1 1.84-.18a2.6 2.6 0 001.37-.74c.24-.25.42-.6.55-1.01.07-.26.1-.45.1-.57h2.32V54h-2.85v-9.77h-3.33zm10.03 0v-1.89c.88-.04 1.5-.1 1.85-.18a2.6 2.6 0 001.37-.74c.24-.25.42-.6.54-1.01.08-.26.11-.45.11-.57h2.32V54h-2.86v-9.77h-3.33z" fill="#fff"/><rect x="17" y="231" width="335" height="70" rx="5" fill="#fff"/><path d="M78.47 258.65h2.79l4.12 12.13 4.1-12.13h2.74V273h-1.84v-8.47c0-.29 0-.77.02-1.45l.02-2.18-4.1 12.1H84.4l-4.12-12.1v.44a98.92 98.92 0 00.05 3.2V273h-1.86v-14.35zm20.83 3.66a4.73 4.73 0 013.76 1.87c.35.53.58 1.14.7 1.85.1.48.15 1.25.15 2.3h-7.66a4.5 4.5 0 00.75 2.56c.47.64 1.2.96 2.18.96a2.81 2.81 0 002.86-2.13h1.73c-.05.38-.2.81-.46 1.29a4.1 4.1 0 01-2.84 2.2c-.43.1-.9.16-1.44.16-1.3 0-2.4-.47-3.3-1.42-.91-.94-1.37-2.27-1.37-3.98 0-1.68.46-3.04 1.37-4.1a4.51 4.51 0 013.57-1.56zm2.8 4.63a4.54 4.54 0 00-.5-1.83c-.47-.85-1.28-1.27-2.4-1.27-.81 0-1.49.3-2.03.88a3.28 3.28 0 00-.87 2.22h5.8zm3.98-4.4h1.67v1.48a4.69 4.69 0 011.57-1.31 4.2 4.2 0 011.85-.4c1.48 0 2.49.51 3 1.55.3.57.44 1.38.44 2.43V273h-1.79v-6.6c0-.63-.1-1.14-.28-1.53-.32-.66-.88-.98-1.7-.98-.42 0-.76.04-1.03.13-.48.14-.9.43-1.27.86-.29.34-.48.7-.57 1.07-.09.36-.13.89-.13 1.57V273h-1.76v-10.46zm11.49-2.92h1.77v2.92h1.67v1.44h-1.67v6.82c0 .37.13.61.38.74.13.07.36.1.68.1h.27l.34-.03V273a5.87 5.87 0 01-1.34.17c-.81 0-1.37-.21-1.66-.63-.3-.42-.44-.97-.44-1.64v-6.92h-1.42v-1.44h1.42v-2.92zm6.56 10.6c0 .5.18.9.56 1.2.37.3.8.44 1.31.44.62 0 1.22-.15 1.8-.43a2.42 2.42 0 001.47-2.34v-1.41c-.22.13-.5.25-.83.34-.34.1-.67.16-1 .2l-1.06.13c-.64.09-1.12.22-1.44.4-.54.3-.81.8-.81 1.47zm4.26-3.56c.4-.05.67-.22.8-.5.09-.16.12-.39.12-.68 0-.6-.21-1.03-.64-1.3a3.37 3.37 0 00-1.83-.4c-.91 0-1.56.24-1.95.73-.21.28-.35.68-.42 1.22h-1.64c.03-1.29.45-2.18 1.25-2.68s1.74-.76 2.8-.76a5.7 5.7 0 013 .7c.76.47 1.14 1.2 1.14 2.19v6.02c0 .19.04.33.11.44.08.11.24.17.48.17a4.4 4.4 0 00.58-.06v1.3a4.47 4.47 0 01-1.21.18c-.61 0-1.05-.22-1.32-.65a2.48 2.48 0 01-.3-.97c-.37.47-.88.88-1.55 1.22-.67.35-1.4.52-2.22.52-.97 0-1.76-.3-2.38-.88a2.96 2.96 0 01-.92-2.21c0-.97.3-1.73.91-2.26.6-.53 1.4-.86 2.38-.99l2.8-.35zm5.57-8h1.76V273h-1.76v-14.35zm10.26 0h1.96v5.92h7.46v-5.93h1.96V273h-1.96v-6.7h-7.46v6.7h-1.96v-14.35zm18.52 3.65a4.73 4.73 0 013.75 1.87c.35.53.59 1.14.7 1.85.1.48.16 1.25.16 2.3h-7.66a4.5 4.5 0 00.75 2.56c.47.64 1.2.96 2.18.96a2.81 2.81 0 002.86-2.13h1.73c-.05.38-.2.81-.46 1.29a4.1 4.1 0 01-2.84 2.2c-.43.1-.9.16-1.44.16-1.3 0-2.4-.47-3.31-1.42-.9-.94-1.36-2.27-1.36-3.98 0-1.68.46-3.04 1.37-4.1a4.51 4.51 0 013.57-1.56zm2.8 4.63a4.57 4.57 0 00-.5-1.83c-.47-.85-1.28-1.27-2.4-1.27-.81 0-1.49.3-2.04.88a3.28 3.28 0 00-.87 2.22h5.81zm5.33 3.28c0 .5.18.9.55 1.2.38.3.81.44 1.32.44.62 0 1.22-.15 1.8-.43a2.42 2.42 0 001.46-2.34v-1.41c-.21.13-.49.25-.83.34-.33.1-.67.16-1 .2l-1.06.13c-.64.09-1.11.22-1.43.4-.54.3-.81.8-.81 1.47zm4.25-3.56c.4-.05.68-.22.82-.5.07-.16.11-.39.11-.68 0-.6-.21-1.03-.64-1.3a3.37 3.37 0 00-1.83-.4c-.92 0-1.57.24-1.95.73-.22.28-.36.68-.42 1.22h-1.64c.03-1.29.45-2.18 1.25-2.68s1.74-.76 2.8-.76c1.23 0 2.23.23 3 .7.76.47 1.14 1.2 1.14 2.19v6.02c0 .19.04.33.1.44.09.11.25.17.49.17a4.37 4.37 0 00.57-.06v1.3a4.46 4.46 0 01-1.21.18c-.6 0-1.04-.22-1.31-.65a2.46 2.46 0 01-.3-.97c-.37.47-.88.88-1.55 1.22-.67.35-1.41.52-2.22.52-.97 0-1.76-.3-2.38-.88a2.96 2.96 0 01-.92-2.21c0-.97.3-1.73.9-2.26.61-.53 1.4-.86 2.4-.99l2.8-.35zm5.58-8h1.76V273h-1.76v-14.35zm4.76.96h1.77v2.92h1.67v1.44h-1.67v6.82c0 .37.13.61.38.74.13.07.36.1.68.1h.27l.34-.03V273a5.89 5.89 0 01-1.34.17c-.81 0-1.37-.21-1.66-.63-.3-.42-.44-.97-.44-1.64v-6.92h-1.42v-1.44h1.42v-2.92zm5.21-1.01h1.76v5.35c.42-.53.8-.9 1.12-1.12a3.79 3.79 0 012.12-.55c1.52 0 2.55.53 3.09 1.59.3.58.44 1.38.44 2.41V273h-1.8v-6.6c0-.76-.1-1.32-.3-1.68-.32-.57-.92-.86-1.8-.86a3 3 0 00-1.98.75c-.6.5-.89 1.45-.89 2.84V273h-1.76v-14.4z" fill="#33F"/><path d="M325 259l7 7-7 7" stroke="#33F" stroke-width="1.5" stroke-linecap="round" stroke-linejoin="round"/><rect x="17" y="383" width="335" height="70" rx="5" fill="#fff"/><path d="M84.03 423.34c.66 0 1.2-.07 1.62-.2a3.56 3.56 0 001.86-1.47c.38-.58.66-1.32.83-2.23.1-.54.14-1.04.14-1.5 0-1.78-.35-3.16-1.06-4.14-.7-.98-1.84-1.48-3.4-1.48h-3.46v11.02h3.47zm-5.42-12.69h5.81c1.97 0 3.5.7 4.6 2.1a7.74 7.74 0 011.45 4.86c0 1.52-.29 2.9-.86 4.13a5.3 5.3 0 01-5.2 3.26h-5.8v-14.35zm14.18 3.9h1.67v1.8c.14-.35.47-.78 1-1.28a2.6 2.6 0 012.02-.75l.4.04v1.85a2.4 2.4 0 00-.58-.05 2.5 2.5 0 00-2.04.86 2.97 2.97 0 00-.71 1.96V425h-1.76v-10.46zm8.37 0v6.93c0 .54.09.97.25 1.31.32.63.9.94 1.75.94 1.23 0 2.06-.55 2.5-1.64a6.5 6.5 0 00.36-2.41v-5.14h1.76V425h-1.66l.02-1.54a3.74 3.74 0 01-3.3 1.83c-1.48 0-2.5-.5-3.04-1.5a4.45 4.45 0 01-.44-2.14v-7.1h1.8zm13.07-.2c.82 0 1.53.2 2.14.61.34.23.68.56 1.02 1v-1.32h1.62v9.51c0 1.33-.2 2.38-.58 3.15-.73 1.41-2.11 2.12-4.14 2.12a5.04 5.04 0 01-2.84-.76c-.77-.5-1.2-1.29-1.29-2.36h1.8c.08.47.25.83.5 1.08.4.4 1.02.59 1.87.59 1.35 0 2.23-.48 2.65-1.43a8 8 0 00.34-3c-.35.54-.77.94-1.27 1.2s-1.15.39-1.96.39c-1.13 0-2.13-.4-2.98-1.2-.84-.81-1.27-2.14-1.27-4 0-1.75.43-3.12 1.28-4.1a3.99 3.99 0 013.1-1.47zm3.16 5.38c0-1.3-.27-2.26-.8-2.88a2.57 2.57 0 00-2.04-.94c-1.24 0-2.08.58-2.54 1.74a6.82 6.82 0 00-.36 2.43c0 1.18.24 2.07.71 2.7.48.6 1.13.91 1.94.91a2.7 2.7 0 002.66-1.7c.29-.65.43-1.4.43-2.26zm5.32 1.99c.06.58.2 1.03.44 1.35.44.56 1.21.85 2.3.85.66 0 1.23-.14 1.73-.42.5-.29.74-.73.74-1.32 0-.45-.2-.8-.6-1.03a7.1 7.1 0 00-1.5-.5l-1.4-.35a6.84 6.84 0 01-1.97-.74 2.22 2.22 0 01-1.13-1.97c0-1 .35-1.8 1.06-2.4a4.28 4.28 0 012.88-.92c1.58 0 2.71.46 3.41 1.38.44.59.65 1.22.64 1.9h-1.67c-.03-.4-.17-.76-.42-1.09-.4-.46-1.1-.69-2.1-.69-.66 0-1.16.13-1.5.38-.35.26-.52.6-.52 1 0 .46.23.83.68 1.1.26.17.64.3 1.15.43l1.16.28c1.27.31 2.11.6 2.54.9.68.44 1.03 1.15 1.03 2.11 0 .93-.36 1.74-1.07 2.41-.7.68-1.78 1.02-3.22 1.02-1.56 0-2.66-.35-3.31-1.05a4.04 4.04 0 01-1.04-2.63h1.7zm17.79-11.07h1.48L137.43 425h-1.49l4.56-14.35zm8.29 0h6.45c1.28 0 2.3.37 3.09 1.09a3.9 3.9 0 011.17 3.03c0 1.12-.35 2.1-1.04 2.93-.7.82-1.77 1.24-3.22 1.24h-4.51V425h-1.94v-14.35zm8.75 4.13c0-1.06-.4-1.77-1.17-2.15-.43-.2-1.02-.3-1.77-.3h-3.87v4.97h3.87c.87 0 1.58-.2 2.12-.56.54-.37.82-1.03.82-1.97zm8.32 9.09c1.16 0 1.96-.44 2.39-1.32.44-.89.65-1.87.65-2.95 0-.98-.15-1.77-.46-2.38-.5-.97-1.35-1.45-2.56-1.45-1.08 0-1.86.41-2.35 1.23a5.7 5.7 0 00-.73 2.97c0 1.11.24 2.04.73 2.78.5.75 1.27 1.12 2.33 1.12zm.07-9.63c1.34 0 2.48.45 3.41 1.35.94.9 1.4 2.22 1.4 3.96a6.8 6.8 0 01-1.23 4.18c-.82 1.1-2.1 1.65-3.82 1.65a4.32 4.32 0 01-3.43-1.45A5.78 5.78 0 01161 420c0-1.76.45-3.16 1.34-4.2a4.49 4.49 0 013.6-1.56zm6.91.35h1.79V425h-1.79v-10.41zm0-3.94h1.79v2h-1.79v-2zm5.5 11.07c.05.58.2 1.03.44 1.35.44.56 1.2.85 2.3.85.65 0 1.23-.14 1.72-.42.5-.29.74-.73.74-1.32 0-.45-.2-.8-.6-1.03a7.1 7.1 0 00-1.5-.5l-1.4-.35a6.84 6.84 0 01-1.97-.74 2.22 2.22 0 01-1.13-1.97c0-1 .36-1.8 1.07-2.4a4.28 4.28 0 012.88-.92c1.57 0 2.7.46 3.4 1.38.44.59.65 1.22.64 1.9h-1.66c-.03-.4-.17-.76-.42-1.09-.4-.46-1.1-.69-2.1-.69-.66 0-1.17.13-1.51.38-.34.26-.51.6-.51 1 0 .46.22.83.67 1.1.26.17.65.3 1.16.43l1.16.28c1.26.31 2.1.6 2.54.9.68.44 1.02 1.15 1.02 2.11 0 .93-.35 1.74-1.06 2.41-.7.68-1.78 1.02-3.23 1.02-1.55 0-2.66-.35-3.3-1.05a4.04 4.04 0 01-1.04-2.63h1.69zm13.1 2.15c1.17 0 1.97-.44 2.4-1.32.43-.89.65-1.87.65-2.95 0-.98-.16-1.77-.47-2.38-.5-.97-1.35-1.45-2.56-1.45-1.07 0-1.85.41-2.34 1.23a5.7 5.7 0 00-.73 2.97c0 1.11.24 2.04.73 2.78.49.75 1.26 1.12 2.32 1.12zm.07-9.63c1.35 0 2.49.45 3.42 1.35.93.9 1.4 2.22 1.4 3.96a6.8 6.8 0 01-1.23 4.18c-.82 1.1-2.1 1.65-3.82 1.65a4.32 4.32 0 01-3.43-1.45 5.78 5.78 0 01-1.27-3.93c0-1.76.45-3.16 1.34-4.2a4.49 4.49 0 013.6-1.56zm6.92.3h1.67v1.48a4.68 4.68 0 011.57-1.31 4.2 4.2 0 011.84-.4c1.49 0 2.5.51 3.01 1.55.29.57.43 1.38.43 2.43V425h-1.79v-6.6c0-.63-.09-1.14-.28-1.53-.31-.66-.88-.98-1.7-.98-.42 0-.76.04-1.02.13-.49.14-.9.43-1.27.86-.3.34-.49.7-.58 1.07-.08.36-.13.89-.13 1.57V425h-1.75v-10.46zm11.13.05h1.79V425h-1.8v-10.41zm0-3.94h1.79v2h-1.8v-2zm4.45 3.9h1.67v1.47a4.68 4.68 0 011.57-1.31 4.2 4.2 0 011.85-.4c1.48 0 2.49.51 3 1.55.3.57.44 1.38.44 2.43V425h-1.79v-6.6c0-.63-.1-1.14-.28-1.53-.32-.66-.88-.98-1.7-.98-.42 0-.76.04-1.03.13-.48.14-.9.43-1.27.86-.29.34-.48.7-.57 1.07-.09.36-.13.89-.13 1.57V425h-1.76v-10.46zm14.83-.2c.82 0 1.53.2 2.14.61.34.23.68.56 1.02 1v-1.32h1.62v9.51a7 7 0 01-.59 3.15c-.72 1.41-2.1 2.12-4.13 2.12a5.04 5.04 0 01-2.84-.76c-.77-.5-1.2-1.29-1.29-2.36h1.8c.08.47.24.83.5 1.08.4.4 1.02.59 1.87.59 1.35 0 2.23-.48 2.65-1.43.25-.56.36-1.56.34-3-.35.54-.77.94-1.27 1.2s-1.15.39-1.96.39c-1.13 0-2.13-.4-2.98-1.2-.85-.81-1.27-2.14-1.27-4 0-1.75.43-3.12 1.28-4.1a3.99 3.99 0 013.1-1.47zm3.16 5.38c0-1.3-.27-2.26-.8-2.88a2.57 2.57 0 00-2.04-.94c-1.24 0-2.09.58-2.54 1.74a6.82 6.82 0 00-.36 2.43c0 1.18.24 2.07.71 2.7.48.6 1.13.91 1.93.91a2.7 2.7 0 002.67-1.7c.29-.65.43-1.4.43-2.26z" fill="#33F"/><path d="M325 411l7 7-7 7" stroke="#33F" stroke-width="1.5" stroke-linecap="round" stroke-linejoin="round"/><rect x="17" y="307" width="335" height="70" rx="5" fill="#fff"/><path d="M78.57 334.65h1.97v5.93H88v-5.93h1.96V349H88v-6.7h-7.46v6.7h-1.97v-14.35zm18.32 13.22c1.17 0 1.97-.44 2.4-1.32.43-.89.65-1.87.65-2.95 0-.98-.16-1.77-.47-2.38-.5-.97-1.35-1.45-2.56-1.45-1.07 0-1.85.41-2.34 1.23a5.7 5.7 0 00-.73 2.97c0 1.11.24 2.04.73 2.78.49.75 1.26 1.12 2.32 1.12zm.07-9.63c1.35 0 2.49.45 3.42 1.35.93.9 1.4 2.22 1.4 3.96a6.8 6.8 0 01-1.23 4.18c-.83 1.1-2.1 1.65-3.82 1.65a4.32 4.32 0 01-3.43-1.45 5.79 5.79 0 01-1.27-3.93c0-1.76.45-3.16 1.34-4.2a4.49 4.49 0 013.6-1.56zm6.92.3h1.73v1.48c.42-.5.8-.88 1.14-1.12a3.4 3.4 0 011.97-.6c.83 0 1.5.21 2.01.62.29.24.55.58.78 1.04a3.74 3.74 0 013.16-1.65c1.4 0 2.36.5 2.87 1.52.27.55.4 1.28.4 2.2V349h-1.82v-7.27c0-.7-.18-1.17-.53-1.43-.34-.26-.76-.4-1.27-.4-.69 0-1.28.24-1.78.7-.5.46-.75 1.23-.75 2.32V349h-1.78v-6.83c0-.7-.09-1.22-.26-1.55-.26-.49-.76-.73-1.49-.73a2.6 2.6 0 00-1.82.77c-.54.51-.8 1.44-.8 2.8V349h-1.77v-10.46zm21.01-.23a4.73 4.73 0 013.75 1.87c.35.53.59 1.14.7 1.85.1.48.16 1.25.16 2.3h-7.67a4.5 4.5 0 00.76 2.56c.47.64 1.2.96 2.17.96a2.81 2.81 0 002.86-2.13h1.73a4.5 4.5 0 01-1.32 2.44 4.1 4.1 0 01-1.98 1.06c-.42.1-.9.15-1.43.15-1.3 0-2.4-.47-3.31-1.42-.9-.94-1.36-2.27-1.36-3.98 0-1.68.45-3.04 1.37-4.1a4.51 4.51 0 013.57-1.56zm2.8 4.63a4.54 4.54 0 00-.5-1.83c-.48-.85-1.28-1.27-2.4-1.27-.81 0-1.5.3-2.04.88a3.28 3.28 0 00-.87 2.22h5.81zm4.03-8.29h1.75V349h-1.75v-14.35zm8.76 3.66a4.73 4.73 0 013.75 1.87c.35.53.58 1.14.7 1.85.1.48.16 1.25.16 2.3h-7.67a4.5 4.5 0 00.75 2.56c.47.64 1.2.96 2.18.96a2.81 2.81 0 002.86-2.13h1.73c-.05.38-.2.81-.46 1.29a4.1 4.1 0 01-2.84 2.2c-.43.1-.9.16-1.44.16-1.3 0-2.4-.47-3.3-1.42-.91-.94-1.37-2.27-1.37-3.98 0-1.68.46-3.04 1.37-4.1a4.51 4.51 0 013.58-1.56zm2.8 4.63a4.54 4.54 0 00-.5-1.83c-.48-.85-1.28-1.27-2.41-1.27-.8 0-1.49.3-2.03.88a3.28 3.28 0 00-.87 2.22h5.8zm5.02 2.78c.05.58.2 1.03.44 1.35.44.56 1.2.85 2.3.85.65 0 1.23-.14 1.72-.42.5-.29.74-.73.74-1.32 0-.45-.2-.8-.6-1.03a7.1 7.1 0 00-1.5-.5l-1.4-.35a6.84 6.84 0 01-1.97-.74 2.22 2.22 0 01-1.13-1.97c0-1 .36-1.8 1.07-2.4a4.28 4.28 0 012.88-.92c1.57 0 2.7.46 3.4 1.38.44.59.65 1.22.64 1.9h-1.66c-.03-.4-.17-.76-.42-1.09-.4-.46-1.1-.69-2.1-.69-.66 0-1.17.13-1.51.38-.34.26-.51.6-.51 1 0 .46.22.83.67 1.1.26.17.65.3 1.16.43l1.16.28c1.26.31 2.1.6 2.54.9.68.44 1.02 1.15 1.02 2.11 0 .93-.35 1.74-1.06 2.41-.7.68-1.78 1.02-3.22 1.02-1.56 0-2.66-.35-3.31-1.05a4.04 4.04 0 01-1.04-2.63h1.69zm10 0c.05.58.2 1.03.44 1.35.44.56 1.2.85 2.3.85.65 0 1.23-.14 1.72-.42.5-.29.74-.73.74-1.32 0-.45-.2-.8-.6-1.03a7.1 7.1 0 00-1.5-.5l-1.4-.35a6.84 6.84 0 01-1.97-.74 2.22 2.22 0 01-1.13-1.97c0-1 .36-1.8 1.07-2.4a4.28 4.28 0 012.88-.92c1.57 0 2.7.46 3.4 1.38.44.59.65 1.22.64 1.9h-1.66c-.03-.4-.17-.76-.42-1.09-.4-.46-1.1-.69-2.1-.69-.66 0-1.17.13-1.51.38-.34.26-.51.6-.51 1 0 .46.22.83.67 1.1.26.17.65.3 1.16.43l1.16.28c1.26.31 2.1.6 2.54.9.68.44 1.02 1.15 1.02 2.11 0 .93-.35 1.74-1.06 2.41-.7.68-1.78 1.02-3.22 1.02-1.56 0-2.66-.35-3.31-1.05a4.04 4.04 0 01-1.04-2.63h1.69zm21.02-2.6l-2.17-6.34-2.32 6.34h4.5zm-3.19-8.47h2.2l5.2 14.35h-2.13l-1.45-4.3h-5.67l-1.56 4.3h-1.99l5.4-14.35zm9.98 11.07c.05.58.2 1.03.44 1.35.44.56 1.21.85 2.3.85.66 0 1.23-.14 1.72-.42.5-.29.75-.73.75-1.32 0-.45-.2-.8-.6-1.03-.25-.14-.75-.3-1.5-.5l-1.4-.35a6.84 6.84 0 01-1.97-.74 2.22 2.22 0 01-1.13-1.97c0-1 .35-1.8 1.06-2.4a4.29 4.29 0 012.88-.92c1.58 0 2.71.46 3.4 1.38a3 3 0 01.64 1.9h-1.66c-.03-.4-.17-.76-.42-1.09-.4-.46-1.1-.69-2.1-.69-.66 0-1.17.13-1.51.38-.34.26-.5.6-.5 1 0 .46.22.83.67 1.1.26.17.64.3 1.15.43l1.16.28c1.26.31 2.11.6 2.54.9.68.44 1.03 1.15 1.03 2.11 0 .93-.36 1.74-1.07 2.41-.7.68-1.78 1.02-3.22 1.02-1.56 0-2.66-.35-3.31-1.05a4.04 4.04 0 01-1.04-2.63h1.7zm10 0c.05.58.2 1.03.44 1.35.44.56 1.21.85 2.3.85.66 0 1.23-.14 1.72-.42.5-.29.75-.73.75-1.32 0-.45-.2-.8-.6-1.03-.25-.14-.75-.3-1.5-.5l-1.4-.35a6.84 6.84 0 01-1.97-.74 2.22 2.22 0 01-1.13-1.97c0-1 .35-1.8 1.06-2.4a4.29 4.29 0 012.88-.92c1.58 0 2.71.46 3.4 1.38a3 3 0 01.64 1.9h-1.66c-.03-.4-.17-.76-.42-1.09-.4-.46-1.1-.69-2.1-.69-.66 0-1.17.13-1.51.38-.34.26-.5.6-.5 1 0 .46.22.83.67 1.1.26.17.64.3 1.15.43l1.16.28c1.26.31 2.11.6 2.54.9.68.44 1.03 1.15 1.03 2.11 0 .93-.36 1.74-1.07 2.41-.7.68-1.78 1.02-3.22 1.02-1.56 0-2.66-.35-3.31-1.05a4.04 4.04 0 01-1.04-2.63h1.7zm8.96-7.13h1.78V349h-1.78v-10.41zm0-3.94h1.78v2h-1.78v-2zm5.5 11.07c.05.58.2 1.03.43 1.35.45.56 1.22.85 2.3.85.66 0 1.23-.14 1.73-.42.5-.29.74-.73.74-1.32 0-.45-.2-.8-.6-1.03a7.1 7.1 0 00-1.5-.5l-1.4-.35a6.85 6.85 0 01-1.97-.74 2.22 2.22 0 01-1.13-1.97c0-1 .35-1.8 1.06-2.4a4.29 4.29 0 012.88-.92c1.58 0 2.71.46 3.41 1.38a3 3 0 01.64 1.9h-1.66c-.04-.4-.18-.76-.42-1.09-.4-.46-1.1-.69-2.1-.69-.67 0-1.17.13-1.52.38-.34.26-.5.6-.5 1 0 .46.22.83.67 1.1.26.17.64.3 1.15.43l1.16.28c1.27.31 2.11.6 2.54.9.69.44 1.03 1.15 1.03 2.11 0 .93-.36 1.74-1.07 2.41-.7.68-1.77 1.02-3.22 1.02-1.56 0-2.66-.35-3.31-1.05a4.05 4.05 0 01-1.03-2.63h1.68zm9.3-10.1h1.78v2.92h1.67v1.44h-1.67v6.82c0 .37.12.61.37.74.14.07.36.1.68.1h.28l.34-.03V349a5.89 5.89 0 01-1.34.17c-.82 0-1.38-.21-1.67-.63-.3-.42-.44-.97-.44-1.64v-6.92h-1.41v-1.44h1.41v-2.92zm6.56 10.6c0 .5.19.9.56 1.2.37.3.81.44 1.32.44.62 0 1.22-.15 1.8-.43a2.42 2.42 0 001.46-2.34v-1.41c-.22.13-.5.25-.83.34-.34.1-.67.16-1 .2l-1.06.13c-.64.09-1.12.22-1.44.4-.54.3-.8.8-.8 1.47zm4.26-3.56c.4-.05.68-.22.81-.5.08-.16.12-.39.12-.68 0-.6-.22-1.03-.65-1.3a3.37 3.37 0 00-1.82-.4c-.92 0-1.57.24-1.96.73-.21.28-.35.68-.41 1.22h-1.65c.04-1.29.45-2.18 1.25-2.68.81-.5 1.75-.76 2.8-.76a5.7 5.7 0 013 .7c.77.47 1.15 1.2 1.15 2.19v6.02c0 .19.03.33.1.44.08.11.24.17.48.17a4.43 4.43 0 00.58-.06v1.3a4.8 4.8 0 01-.63.14c-.14.02-.33.04-.58.04-.6 0-1.05-.22-1.32-.65a2.5 2.5 0 01-.3-.97 4.77 4.77 0 01-3.76 1.74c-.97 0-1.77-.3-2.38-.88a2.96 2.96 0 01-.92-2.21c0-.97.3-1.73.9-2.26.61-.53 1.4-.86 2.39-.99l2.8-.35zm5.53-4.12h1.67v1.48a4.68 4.68 0 011.57-1.31 4.2 4.2 0 011.85-.4c1.48 0 2.48.51 3 1.55.3.57.43 1.38.43 2.43V349h-1.78v-6.6c0-.63-.1-1.14-.29-1.53-.3-.66-.88-.98-1.7-.98-.41 0-.75.04-1.02.13-.48.14-.9.43-1.27.86-.3.34-.49.7-.58 1.07-.08.36-.12.89-.12 1.57V349h-1.76v-10.46zm15.16-.3c1.18 0 2.14.28 2.88.86.74.57 1.18 1.56 1.33 2.96h-1.7a3.12 3.12 0 00-.72-1.6c-.37-.44-.96-.65-1.78-.65-1.13 0-1.93.55-2.4 1.64a6.53 6.53 0 00-.48 2.63c0 1.05.23 1.93.67 2.65.44.71 1.14 1.07 2.09 1.07.73 0 1.3-.22 1.73-.67.43-.44.72-1.06.88-1.83h1.71c-.2 1.39-.68 2.4-1.46 3.05-.78.63-1.78.95-3 .95a4 4 0 01-3.27-1.5 5.76 5.76 0 01-1.22-3.74c0-1.84.45-3.27 1.34-4.29a4.32 4.32 0 013.4-1.53zm10.33.07a4.73 4.73 0 013.75 1.87c.35.53.58 1.14.7 1.85.1.48.16 1.25.16 2.3h-7.67c.03 1.06.28 1.92.75 2.56.47.64 1.2.96 2.18.96a2.81 2.81 0 002.86-2.13h1.73c-.05.38-.2.81-.46 1.29a4.1 4.1 0 01-2.84 2.2c-.42.1-.9.16-1.44.16-1.3 0-2.4-.47-3.3-1.42-.91-.94-1.36-2.27-1.36-3.98a6 6 0 011.36-4.1 4.51 4.51 0 013.58-1.56zm2.8 4.63a4.57 4.57 0 00-.5-1.83c-.48-.85-1.28-1.27-2.41-1.27-.8 0-1.49.3-2.03.88a3.28 3.28 0 00-.87 2.22h5.81z" fill="#33F"/><path d="M325 335l7 7-7 7" stroke="#33F" stroke-width="1.5" stroke-linecap="round" stroke-linejoin="round"/><rect x="17" y="535" width="335" height="70" rx="5" fill="#fff"/><path d="M78.7 562.65h6.46c1.28 0 2.3.37 3.09 1.09a3.9 3.9 0 011.17 3.03c0 1.12-.35 2.1-1.04 2.93-.7.82-1.77 1.24-3.22 1.24h-4.5V577H78.7v-14.35zm8.76 4.13c0-1.06-.4-1.77-1.17-2.15-.43-.2-1.02-.3-1.77-.3h-3.87v4.96h3.87c.87 0 1.58-.18 2.12-.55.55-.37.82-1.03.82-1.97zm4.17-4.17h1.76v5.35c.41-.53.79-.9 1.12-1.12a3.79 3.79 0 012.12-.55c1.52 0 2.54.53 3.08 1.59.3.58.44 1.38.44 2.41V577h-1.8v-6.6c0-.76-.1-1.32-.3-1.68-.31-.57-.91-.86-1.8-.86a3 3 0 00-1.97.75c-.6.5-.9 1.45-.9 2.84V577h-1.75v-14.4zm17.67 3.93h1.94c-.25.67-.8 2.2-1.65 4.6-.64 1.79-1.17 3.25-1.6 4.38-1.02 2.68-1.73 4.3-2.15 4.89-.42.58-1.14.88-2.15.88-.25 0-.44-.01-.58-.03a4.8 4.8 0 01-.48-.11v-1.6a6.06 6.06 0 001.02.18c.33 0 .56-.05.71-.16.16-.1.29-.24.4-.4.03-.04.14-.31.34-.8l.45-1.07-3.87-10.76h1.99l2.8 8.52 2.83-8.52zm4.5 7.18c.06.58.2 1.03.45 1.35.44.56 1.2.85 2.3.85.65 0 1.23-.14 1.72-.42.5-.29.74-.73.74-1.32 0-.45-.2-.8-.6-1.03a7.1 7.1 0 00-1.5-.5l-1.4-.35a6.84 6.84 0 01-1.97-.74 2.22 2.22 0 01-1.13-1.97c0-1 .36-1.8 1.06-2.4a4.28 4.28 0 012.89-.92c1.57 0 2.7.46 3.4 1.38.44.59.65 1.22.64 1.9h-1.66c-.03-.4-.17-.76-.42-1.08-.4-.47-1.1-.7-2.1-.7-.66 0-1.17.13-1.52.38-.33.26-.5.6-.5 1 0 .46.22.83.67 1.1.26.16.65.3 1.15.43l1.17.29c1.26.3 2.1.6 2.53.88.69.45 1.03 1.16 1.03 2.12 0 .93-.36 1.74-1.06 2.41-.7.68-1.78 1.02-3.23 1.02-1.55 0-2.66-.35-3.3-1.05a4.05 4.05 0 01-1.04-2.63h1.69zm8.96-7.13h1.79V577h-1.79v-10.41zm0-3.94h1.79v2h-1.79v-2zm8.49 3.59c1.18 0 2.13.28 2.87.86.74.57 1.19 1.56 1.34 2.96h-1.71a3.12 3.12 0 00-.72-1.6c-.37-.44-.96-.65-1.78-.65-1.12 0-1.92.55-2.4 1.64a6.5 6.5 0 00-.47 2.63c0 1.05.22 1.93.66 2.64.44.72 1.14 1.08 2.1 1.08.72 0 1.3-.22 1.72-.66.43-.45.72-1.07.89-1.84h1.7c-.19 1.39-.68 2.4-1.46 3.05-.78.63-1.78.95-3 .95a4 4 0 01-3.27-1.5 5.76 5.76 0 01-1.22-3.74c0-1.84.45-3.27 1.34-4.29a4.32 4.32 0 013.4-1.53zm7.31 7.98c0 .5.19.9.56 1.2.37.3.81.44 1.32.44.62 0 1.22-.15 1.8-.43a2.42 2.42 0 001.46-2.34v-1.41c-.22.13-.5.25-.83.34-.34.1-.67.16-1 .2l-1.06.13c-.64.09-1.12.22-1.44.4-.54.3-.8.8-.8 1.47zm4.26-3.56c.4-.05.67-.22.81-.5.08-.16.12-.39.12-.68 0-.6-.22-1.03-.65-1.3a3.37 3.37 0 00-1.82-.4c-.92 0-1.57.24-1.96.73-.21.28-.35.68-.42 1.22h-1.64c.04-1.28.45-2.18 1.25-2.68.81-.5 1.75-.76 2.8-.76 1.24 0 2.24.23 3 .7.77.47 1.15 1.2 1.15 2.19v6.02c0 .18.03.33.1.44.08.11.24.17.48.17a4.43 4.43 0 00.58-.06v1.3a4.8 4.8 0 01-.63.15l-.58.02c-.6 0-1.05-.21-1.32-.64a2.5 2.5 0 01-.3-.97c-.36.47-.88.88-1.55 1.22-.67.35-1.4.52-2.21.52-.97 0-1.77-.3-2.38-.88a2.96 2.96 0 01-.92-2.21c0-.97.3-1.73.9-2.26.61-.53 1.4-.86 2.39-.99l2.8-.35zm5.58-8h1.75V577h-1.75v-14.35zm11.33 0l4.13 12.21 4.07-12.22h2.17L164.88 577h-2.06l-5.22-14.35h2.14zm11.63 3.93h1.78V577h-1.78v-10.41zm0-3.94h1.78v2h-1.78v-2zm8.6 13.22c1.16 0 1.96-.44 2.4-1.32.43-.89.65-1.87.65-2.95 0-.98-.16-1.77-.47-2.38-.5-.97-1.35-1.45-2.56-1.45-1.08 0-1.86.41-2.34 1.23a5.7 5.7 0 00-.74 2.97c0 1.11.25 2.04.73 2.78.5.75 1.27 1.12 2.33 1.12zm.07-9.63c1.34 0 2.48.45 3.41 1.35.94.9 1.4 2.22 1.4 3.96a6.8 6.8 0 01-1.23 4.18c-.82 1.1-2.1 1.65-3.82 1.65a4.32 4.32 0 01-3.42-1.45 5.79 5.79 0 01-1.27-3.93c0-1.76.44-3.16 1.33-4.2a4.49 4.49 0 013.6-1.56zm6.96-3.59h1.76V577h-1.76v-14.35zm8.76 3.66a4.73 4.73 0 013.75 1.87c.35.53.59 1.14.7 1.85.1.48.16 1.25.16 2.3h-7.67c.04 1.06.29 1.92.75 2.56.47.64 1.2.96 2.18.96a2.81 2.81 0 002.86-2.13h1.73c-.04.38-.2.81-.46 1.29a4.1 4.1 0 01-2.84 2.2c-.42.1-.9.16-1.43.16-1.3 0-2.4-.47-3.31-1.41-.9-.96-1.36-2.28-1.36-3.99a6 6 0 011.37-4.1 4.51 4.51 0 013.57-1.56zm2.8 4.63a4.57 4.57 0 00-.5-1.83c-.48-.85-1.28-1.27-2.4-1.27-.81 0-1.5.3-2.04.88a3.28 3.28 0 00-.87 2.22h5.81zm3.98-4.4h1.67v1.49a4.68 4.68 0 011.57-1.32c.55-.27 1.17-.4 1.84-.4 1.49 0 2.5.51 3.01 1.55.29.57.43 1.38.43 2.43V577h-1.78v-6.6c0-.63-.1-1.14-.29-1.53-.31-.66-.88-.98-1.7-.98-.41 0-.75.04-1.02.13-.48.14-.9.43-1.27.86-.3.34-.49.7-.58 1.07-.08.36-.13.89-.13 1.57V577h-1.75v-10.46zm15.16-.3c1.18 0 2.14.28 2.87.86.75.57 1.2 1.56 1.34 2.96h-1.7a3.12 3.12 0 00-.72-1.6c-.37-.44-.97-.65-1.79-.65-1.12 0-1.92.55-2.4 1.64a6.53 6.53 0 00-.47 2.63c0 1.05.22 1.93.67 2.64.44.72 1.14 1.08 2.09 1.08.72 0 1.3-.22 1.72-.66.43-.45.73-1.07.9-1.84h1.7c-.2 1.39-.68 2.4-1.46 3.05-.78.63-1.78.95-3 .95a4 4 0 01-3.27-1.5 5.76 5.76 0 01-1.22-3.74c0-1.84.44-3.27 1.34-4.29a4.32 4.32 0 013.4-1.53zm10.33.07a4.73 4.73 0 013.75 1.87c.35.53.58 1.14.7 1.85.1.48.16 1.25.16 2.3h-7.67a4.5 4.5 0 00.75 2.56c.47.64 1.2.96 2.18.96a2.81 2.81 0 002.86-2.13h1.73c-.05.38-.2.81-.46 1.29a4.1 4.1 0 01-2.84 2.2c-.43.1-.9.16-1.44.16-1.3 0-2.4-.47-3.3-1.41-.91-.96-1.37-2.28-1.37-3.99 0-1.68.46-3.04 1.37-4.1a4.51 4.51 0 013.58-1.56zm2.8 4.63a4.54 4.54 0 00-.5-1.83c-.48-.85-1.28-1.27-2.41-1.27-.8 0-1.49.3-2.03.88a3.28 3.28 0 00-.87 2.22h5.8zm7.08-8.29v2.18l2.13-.74.39 1.08-2.13.7 1.32 1.83-.97.7-1.28-1.9-1.29 1.9-1-.7 1.34-1.83-2.14-.7.39-1.08 2.1.76v-2.2h1.14z" fill="#33F"/><path d="M325 563l7 7-7 7" stroke="#33F" stroke-width="1.5" stroke-linecap="round" stroke-linejoin="round"/><path d="M49.26 252.41a5.9 5.9 0 013.73 9.2 7.6 7.6 0 01-10.53 1.9 7.6 7.6 0 01-1.9-10.53.97.97 0 111.59 1.1 5.65 5.65 0 009.27 6.44 4 4 0 00-6.56-4.56 2.34 2.34 0 002.33 3.64 2.3 2.3 0 001.5-.97.67.67 0 00.12-.5.62.62 0 00-.3-.45.7.7 0 00-.96.18.97.97 0 01-1.59-1.1 2.63 2.63 0 013.65-.67 2.64 2.64 0 01.66 3.65 4.23 4.23 0 01-5.94 1.05 4.29 4.29 0 01-1.07-5.94 6 6 0 016-2.44z" fill="#33F"/><mask id="a" fill="#fff"><path d="M47.83 246.04c1.06.05 2.13.23 3.15.54l2.2.87c1.7.85 3.18 2.05 4.27 3.49 1.78 2.37 2.76 6.5 2.27 9.63a21.97 21.97 0 01-3.32 8.07c-.91 1.24-1.35 2.13-1.38 2.8-.13 2.54.43 5.02 2 8.83l.27.41c.2.3.1.72-.2.92-.3.2-.19.15-.9.13l-16.22-.02a.67.67 0 01-.53-1.06l.35-.47c.26-.52.35-.73.44-1.47a8.18 8.18 0 00-.32-3.16c-.04-.08-.3-.28-.64-.29-.35 0-.7.03-1.08.07h-.02c-.85.08-1.9.19-3.32-.08a2.05 2.05 0 01-1.36-.91c-.64-1-.43-2.44-.24-3.2v-.08c-.01-.04-.06-.1-.1-.13-.19-.23-.5-.62-.5-1.21v-.02c0-.16 0-.37.07-.6-.58-.88-.16-1.77-.01-2.09l.04-.09.06-.13c-.51-.17-1.63-.6-1.8-1.84-.13-1.02.56-2.04 1.72-3.6l.25-.33c.83-1.12.77-1.65.6-2.03-.54-1.27-.3-2.08-.05-2.94.06-.23.1-.5.17-.85.02-.18.06-.37.1-.58a9.98 9.98 0 014.35-6.66c2.38-1.53 5.37-2.12 9.68-1.92z"/></mask><path d="M47.83 246.04c1.06.05 2.13.23 3.15.54l2.2.87c1.7.85 3.18 2.05 4.27 3.49 1.78 2.37 2.76 6.5 2.27 9.63a21.97 21.97 0 01-3.32 8.07c-.91 1.24-1.35 2.13-1.38 2.8-.13 2.54.43 5.02 2 8.83l.27.41c.2.3.1.72-.2.92-.3.2-.19.15-.9.13l-16.22-.02a.67.67 0 01-.53-1.06l.35-.47c.26-.52.35-.73.44-1.47a8.18 8.18 0 00-.32-3.16c-.04-.08-.3-.28-.64-.29-.35 0-.7.03-1.08.07h-.02 0c-.85.08-1.9.19-3.32-.08a2.05 2.05 0 01-1.36-.91c-.64-1-.43-2.44-.24-3.2v-.08c-.01-.04-.06-.1-.1-.13-.19-.23-.5-.62-.5-1.21v-.02c0-.16 0-.37.07-.6-.58-.88-.16-1.77-.01-2.09h0l.04-.09.06-.13c-.51-.17-1.63-.6-1.8-1.84-.13-1.02.56-2.04 1.72-3.6l.25-.33c.83-1.12.77-1.65.6-2.03-.54-1.27-.3-2.08-.05-2.94h0c.06-.23.1-.5.17-.85.02-.18.06-.37.1-.58a9.98 9.98 0 014.35-6.66c2.38-1.53 5.37-2.12 9.68-1.92z" stroke="#33F" stroke-width="3.5" mask="url(#a)"/><rect x="17" y="459" width="335" height="70" rx="5" fill="#fff"/><path d="M78.52 486.65h2.3l7.24 11.63v-11.63h1.85V501h-2.18l-7.35-11.61V501h-1.86v-14.35zm18.37 13.22c1.17 0 1.97-.44 2.4-1.32.43-.89.65-1.87.65-2.95 0-.98-.16-1.77-.47-2.38-.5-.97-1.35-1.45-2.56-1.45-1.07 0-1.85.41-2.34 1.23a5.7 5.7 0 00-.73 2.97c0 1.11.24 2.04.73 2.78.49.75 1.26 1.12 2.32 1.12zm.07-9.63c1.35 0 2.49.45 3.42 1.35.93.9 1.4 2.22 1.4 3.96a6.8 6.8 0 01-1.23 4.18c-.83 1.1-2.1 1.65-3.82 1.65a4.32 4.32 0 01-3.43-1.45 5.79 5.79 0 01-1.27-3.93c0-1.76.45-3.16 1.34-4.2a4.49 4.49 0 013.6-1.56zm6.92.35h1.78V501h-1.78v-10.41zm0-3.94h1.78v2h-1.78v-2zm5.5 11.07c.05.58.2 1.03.43 1.35.44.56 1.21.85 2.3.85.66 0 1.23-.14 1.73-.42.5-.29.74-.73.74-1.32 0-.45-.2-.8-.6-1.03a7.1 7.1 0 00-1.5-.5l-1.4-.35a6.86 6.86 0 01-1.97-.74 2.22 2.22 0 01-1.13-1.97c0-1 .35-1.8 1.06-2.4a4.28 4.28 0 012.88-.92c1.58 0 2.71.46 3.41 1.38.44.59.65 1.22.64 1.9h-1.66c-.04-.4-.18-.76-.42-1.09-.4-.46-1.1-.69-2.1-.69-.67 0-1.17.13-1.52.38-.34.26-.5.6-.5 1 0 .46.22.83.67 1.1.26.17.64.3 1.15.43l1.16.28c1.27.31 2.11.6 2.54.9.68.44 1.03 1.15 1.03 2.11 0 .93-.36 1.74-1.07 2.41-.7.68-1.78 1.02-3.22 1.02-1.56 0-2.66-.35-3.31-1.05a4.04 4.04 0 01-1.04-2.63h1.7zm13.3-7.41a4.73 4.73 0 013.75 1.87c.35.53.59 1.14.7 1.85.11.48.16 1.25.16 2.3h-7.66a4.5 4.5 0 00.75 2.56c.47.64 1.2.96 2.18.96a2.81 2.81 0 002.86-2.13h1.73c-.05.38-.2.81-.46 1.29a4.1 4.1 0 01-2.84 2.2c-.43.1-.9.16-1.44.16-1.3 0-2.4-.47-3.31-1.42-.9-.94-1.36-2.27-1.36-3.98 0-1.68.46-3.04 1.37-4.1a4.51 4.51 0 013.57-1.56zm2.8 4.63a4.54 4.54 0 00-.5-1.83c-.47-.85-1.28-1.27-2.4-1.27-.81 0-1.49.3-2.03.88a3.28 3.28 0 00-.87 2.22h5.8zm13.97-2.71a7.4 7.4 0 001.28-1.06c.39-.45.58-.94.58-1.48 0-.42-.14-.79-.42-1.1-.28-.3-.66-.45-1.14-.45-.72 0-1.22.24-1.5.72a1.6 1.6 0 00-.22.81c0 .4.11.78.33 1.14.22.37.58.84 1.1 1.42zm-.45 7.56a3.4 3.4 0 001.87-.5c.52-.33.92-.7 1.2-1.11l-3.24-3.96a9.86 9.86 0 00-1.8 1.4 2.61 2.61 0 00-.65 1.8c0 .76.28 1.34.84 1.75.56.41 1.15.62 1.78.62zm-1.15-6.77a7.49 7.49 0 01-1.22-1.76c-.2-.47-.3-.93-.3-1.37 0-.93.3-1.7.93-2.3a3.43 3.43 0 012.51-.92c1 0 1.78.29 2.34.85.56.57.84 1.25.84 2.04 0 .91-.3 1.72-.87 2.4-.34.41-.9.88-1.7 1.4l2.62 3.13c.17-.52.3-.91.36-1.16.07-.26.14-.63.21-1.09h1.67c-.1.92-.33 1.8-.66 2.65-.33.84-.5 1.18-.5 1.01l2.55 3.1h-2.27l-1.34-1.64c-.54.58-1.03 1-1.47 1.27-.77.47-1.67.7-2.68.7-1.49 0-2.57-.4-3.25-1.2a4.13 4.13 0 01-1.01-2.72c0-1.1.33-2 .98-2.73.4-.44 1.16-1 2.26-1.66zm16.32-6.37h2.3l7.24 11.63v-11.63h1.84V501h-2.17l-7.36-11.61V501h-1.85v-14.35zm15.98 3.9v6.93c0 .54.08.97.25 1.31.31.63.9.94 1.75.94 1.22 0 2.05-.55 2.5-1.64a6.5 6.5 0 00.36-2.41v-5.14h1.76V501h-1.67l.03-1.54a3.74 3.74 0 01-3.3 1.83c-1.49 0-2.5-.5-3.04-1.5a4.45 4.45 0 01-.44-2.14v-7.1h1.8zm9.37.04h1.79V501h-1.79v-10.41zm0-3.94h1.79v2h-1.79v-2zm5.5 11.07c.05.58.2 1.03.44 1.35.44.56 1.2.85 2.3.85.65 0 1.23-.14 1.72-.42.5-.29.74-.73.74-1.32 0-.45-.2-.8-.6-1.03a7.1 7.1 0 00-1.5-.5l-1.4-.35a6.84 6.84 0 01-1.97-.74 2.22 2.22 0 01-1.13-1.97c0-1 .36-1.8 1.07-2.4a4.28 4.28 0 012.88-.92c1.57 0 2.7.46 3.4 1.38.44.59.65 1.22.64 1.9h-1.66c-.03-.4-.17-.76-.42-1.09-.4-.46-1.1-.69-2.1-.69-.66 0-1.17.13-1.51.38-.34.26-.51.6-.51 1 0 .46.22.83.67 1.1.26.17.65.3 1.15.43l1.17.28c1.26.31 2.1.6 2.54.9.68.44 1.02 1.15 1.02 2.11 0 .93-.35 1.74-1.06 2.41-.7.68-1.78 1.02-3.23 1.02-1.55 0-2.66-.35-3.3-1.05a4.05 4.05 0 01-1.04-2.63h1.69zm10.3.5c0 .5.19.9.56 1.2.37.3.8.44 1.31.44.62 0 1.22-.15 1.8-.43a2.42 2.42 0 001.47-2.34v-1.41c-.22.13-.5.25-.83.34-.34.1-.67.16-1 .2l-1.06.13c-.64.09-1.12.22-1.44.4-.54.3-.81.8-.81 1.47zm4.26-3.56c.4-.05.67-.22.8-.5.09-.16.13-.39.13-.68 0-.6-.22-1.03-.65-1.3a3.37 3.37 0 00-1.83-.4c-.91 0-1.56.24-1.95.73-.21.28-.35.68-.42 1.22h-1.64c.03-1.29.45-2.18 1.25-2.68s1.74-.76 2.8-.76c1.24 0 2.23.23 3 .7.76.47 1.15 1.2 1.15 2.19v6.02c0 .19.03.33.1.44.08.11.24.17.48.17a4.37 4.37 0 00.58-.06v1.3a4.8 4.8 0 01-.63.14c-.14.02-.34.04-.58.04-.6 0-1.05-.22-1.32-.65a2.48 2.48 0 01-.3-.97c-.36.47-.88.88-1.55 1.22-.67.35-1.4.52-2.22.52-.97 0-1.76-.3-2.38-.88a2.96 2.96 0 01-.92-2.21c0-.97.3-1.73.91-2.26.6-.53 1.4-.86 2.39-.99l2.8-.35zm5.52-4.12h1.68v1.48a4.68 4.68 0 011.57-1.31c.55-.27 1.17-.4 1.84-.4 1.49 0 2.49.51 3.01 1.55.29.57.43 1.38.43 2.43V501h-1.79v-6.6c0-.63-.1-1.14-.28-1.53-.31-.66-.88-.98-1.7-.98-.42 0-.76.04-1.02.13-.49.14-.9.43-1.27.86-.3.34-.49.7-.58 1.07-.08.36-.13.89-.13 1.57V501h-1.76v-10.46zm15.17-.3c1.18 0 2.14.28 2.87.86.75.57 1.2 1.56 1.34 2.96h-1.7a3.12 3.12 0 00-.72-1.6c-.37-.44-.97-.65-1.79-.65-1.12 0-1.92.55-2.4 1.64a6.53 6.53 0 00-.47 2.63c0 1.05.22 1.93.66 2.65.45.71 1.14 1.07 2.1 1.07.72 0 1.3-.22 1.72-.67.43-.44.73-1.06.9-1.83h1.7c-.2 1.39-.68 2.4-1.46 3.05-.79.63-1.78.95-3 .95a4 4 0 01-3.27-1.5 5.76 5.76 0 01-1.22-3.74c0-1.84.44-3.27 1.33-4.29a4.32 4.32 0 013.41-1.53zm10.32.07a4.73 4.73 0 013.75 1.87c.35.53.59 1.14.7 1.85.11.48.16 1.25.16 2.3h-7.66a4.5 4.5 0 00.75 2.56c.47.64 1.2.96 2.18.96a2.81 2.81 0 002.86-2.13h1.73c-.05.38-.2.81-.46 1.29a4.1 4.1 0 01-2.84 2.2c-.43.1-.9.16-1.44.16-1.3 0-2.4-.47-3.31-1.42-.9-.94-1.36-2.27-1.36-3.98a6 6 0 011.37-4.1 4.5 4.5 0 013.57-1.56zm2.8 4.63a4.54 4.54 0 00-.5-1.83c-.47-.85-1.28-1.27-2.4-1.27-.81 0-1.49.3-2.03.88a3.28 3.28 0 00-.87 2.22h5.8zm5.03 2.78c.05.58.2 1.03.44 1.35.44.56 1.2.85 2.3.85.65 0 1.22-.14 1.72-.42.5-.29.74-.73.74-1.32 0-.45-.2-.8-.6-1.03a7.1 7.1 0 00-1.5-.5l-1.4-.35a6.86 6.86 0 01-1.97-.74 2.22 2.22 0 01-1.13-1.97c0-1 .35-1.8 1.06-2.4a4.28 4.28 0 012.88-.92c1.58 0 2.72.46 3.41 1.38.44.59.65 1.22.64 1.9h-1.66c-.03-.4-.17-.76-.42-1.09-.4-.46-1.1-.69-2.1-.69-.67 0-1.17.13-1.52.38-.33.26-.5.6-.5 1 0 .46.22.83.67 1.1.26.17.65.3 1.15.43l1.16.28c1.27.31 2.11.6 2.54.9.69.44 1.03 1.15 1.03 2.11 0 .93-.36 1.74-1.07 2.41-.7.68-1.77 1.02-3.22 1.02-1.55 0-2.66-.35-3.3-1.05a4.04 4.04 0 01-1.04-2.63h1.69z" fill="#33F"/><path d="M325 487l7 7-7 7" stroke="#33F" stroke-width="1.5" stroke-linecap="round" stroke-linejoin="round"/><path d="M45.3 500.46l-.16-.01c-.57-.1-.95-.63-.86-1.21.34-2.17-.53-2.9-1.74-3.93-.92-.77-1.96-1.66-2.23-3.23-.13-.77-.47-3.4.6-5.32.5-.88 1.3-1.53 2.37-1.94a8.8 8.8 0 012.66-.5 5.6 5.6 0 012.76.5c.9.44 1.61 1.12 2.15 2.04 1.19 2.03.4 4.48-.29 6.14-.22.54-.83.8-1.35.56a1.07 1.07 0 01-.55-1.38c.82-1.98.95-3.32.42-4.24-.64-1.1-1.63-1.58-3.03-1.51-1.78.1-2.88.54-3.35 1.38-.58 1.04-.55 2.75-.35 3.9.13.77.66 1.25 1.51 1.98.65.55 1.4 1.18 1.9 2.09.61 1.07.8 2.3.56 3.8-.08.51-.52.88-1.02.88z" fill="#33F" stroke="#fff" stroke-width=".25"/><path d="M44.46 508a5.7 5.7 0 01-3.47-1.25c-1.51-1.18-1.55-2.8-1.6-4.36l-.01-.51a1.05 1.05 0 112.1-.08l.02.54c.03 1.48.08 2.2.78 2.76.97.76 2.11.98 3.2.63a4.3 4.3 0 002.71-2.93l.3-1.1c.35-1.34.67-2.6 1.53-3.96.33-.53.69-1.05 1.03-1.54.72-1.03 1.4-2.01 1.86-3.1 1.13-2.66.99-5.95-.35-8.18-1.57-2.65-4.75-2.89-6.5-2.8-3.64.19-5.95 1.1-6.88 2.74-1.1 1.92-1.21 3.12-1.23 6.05 0 .58-.48 1.04-1.05 1.04h-.01c-.58 0-1.05-.47-1.04-1.06.02-2.96.1-4.62 1.5-7.08a6.93 6.93 0 013.99-3c1.29-.44 2.8-.7 4.61-.8 1.7-.08 3.32.16 4.67.7 1.63.64 2.9 1.7 3.75 3.13a10.49 10.49 0 011.4 5.02c.05 1.75-.27 3.5-.93 5.06-.55 1.3-1.32 2.4-2.06 3.48-.33.48-.67.97-.98 1.46a11.16 11.16 0 00-1.28 3.37l-.3 1.15a6.68 6.68 0 01-1.56 2.73 6.08 6.08 0 01-2.53 1.62c-.55.18-1.11.27-1.67.27z" fill="#33F" stroke="#fff" stroke-width=".25"/><path d="M53.3 409.4l-3.84-2.08v-1.46h.61a.6.6 0 00.6-.61v-3.64a.6.6 0 00-.6-.61h-9.71a.6.6 0 00-.61.6v3.65a.6.6 0 00.6.6h.61v1.47l-3.83 2.09a5.46 5.46 0 00-2.84 4.8v16.54a4.26 4.26 0 004.25 4.25h13.35a4.25 4.25 0 004.25-4.25V414.2a5.46 5.46 0 00-2.84-4.8zm-3.84-2.08h-.6.6v0zm-8.5-5.1h8.5v2.42h-8.5v-2.43zm-3.25 8.25l3.84-2.09a1.2 1.2 0 00.63-1.06v-1.46h6.07v1.46a1.22 1.22 0 00.63 1.06l3.83 2.1a4.25 4.25 0 012.22 3.72v.16H35.5v-.16a4.25 4.25 0 012.21-3.73zm17.22 18.46H35.5v-13.36h19.43v13.36zm-3.04 4.86H38.54a3.04 3.04 0 01-3.04-3.04v-.6h19.43v.6a3.04 3.04 0 01-3.04 3.04zm-11.83-8.1l1.72 1.71a.6.6 0 00.86 0l2.57-2.57 2.58 2.57a.6.6 0 00.86 0l1.72-1.72a.6.6 0 000-.85l-2.58-2.58 2.58-2.58a.6.6 0 000-.86l-1.72-1.71a.6.6 0 00-.86 0l-2.58 2.57-2.57-2.57a.6.6 0 00-.86 0l-1.72 1.71a.6.6 0 000 .86l2.58 2.58-2.58 2.58a.6.6 0 000 .85zm3.87-3.01a.6.6 0 00.13-.66.6.6 0 00-.13-.2l-2.58-2.57.86-.86 2.57 2.57a.62.62 0 00.86 0l2.58-2.57.86.86-2.58 2.57a.6.6 0 00-.18.43.6.6 0 00.18.43l2.58 2.57-.86.86-2.58-2.57a.6.6 0 00-.86 0l-2.57 2.57-.86-.86 2.58-2.57z" fill="#33F" stroke="#33F" stroke-width=".25"/><circle cx="46" cy="342" r="7" fill="#33F"/><circle cx="46" cy="570" r="7" fill="#33F"/></svg>