<svg width="45" height="22" fill="none" xmlns="http://www.w3.org/2000/svg"><path fill-rule="evenodd" clip-rule="evenodd" d="M2 7.3c0 3.98 2.85 6.83 6.66 6.83 2.82 0 3.99-1.26 4.5-1.98h.36v2.4c0 2.4-1.41 3.72-3.9 3.72-1.9 0-3-.96-3.32-2.28l-3.86 1.15c.83 2.98 3.57 4.67 7.18 4.67 4.47 0 7.86-2.55 7.86-7.5V6.96c0-4.1-3.27-7.02-7.68-6.96C5.24.06 2 2.94 2 7.3zm7.74 3.74c-2.25 0-3.78-1.47-3.78-3.75 0-2.28 1.59-3.75 3.78-3.75 2.19 0 3.78 1.41 3.78 3.75 0 2.28-1.53 3.75-3.78 3.75zM23.79.42L18.4 9.9h4.14l2.94-5.28h.36v16.8h3.96v-21h-6zm7.76 9.48l5.4-9.48h6v21h-3.96V4.62h-.36L35.69 9.9h-4.14z" fill="#000"/><path fill="#33F" d="M0 11h45v4H0z"/></svg>