<svg width="714" height="720" fill="none" xmlns="http://www.w3.org/2000/svg"><path fill="#E5E5E5" d="M0 0h714v720H0z"/><path fill="#fff" d="M-566 0H714v720H-566z"/><path fill="#A3EEAA" d="M0 0h714v720H0z"/><mask id="a" maskUnits="userSpaceOnUse" x="0" y="0" width="714" height="720"><path fill="#A3EEAA" d="M0 0h714v720H0z"/></mask><g mask="url(#a)"><rect x="170" y="78" width="375" height="700" rx="36" fill="#000"/><circle cx="357" cy="108" r="8" fill="#575757"/><path fill="#fff" d="M170 750h375V138H170z"/><path fill-rule="evenodd" clip-rule="evenodd" d="M334.98 172.87c0 3.99 2.85 6.84 6.66 6.84 2.82 0 3.99-1.26 4.5-1.98h.36v2.4c0 2.4-1.41 3.72-3.9 3.72-1.9 0-3-.96-3.32-2.28l-3.86 1.15c.83 2.98 3.57 4.67 7.18 4.67 4.47 0 7.86-2.55 7.86-7.5v-7.35c0-4.11-3.27-7.02-7.68-6.96-4.56.06-7.8 2.94-7.8 7.29zm7.74 3.75c-2.25 0-3.78-1.47-3.78-3.75 0-2.28 1.59-3.75 3.78-3.75 2.19 0 3.78 1.41 3.78 3.75 0 2.28-1.53 3.75-3.78 3.75zM356.77 166l-5.4 9.48h4.14l2.94-5.28h.36V187h3.96v-21h-6zm7.75 9.48l5.4-9.48h6v21h-3.96v-16.8h-.35l-2.94 5.28h-4.15z" fill="#000"/><path fill="#33F" d="M333 177h45v3h-45z"/><path d="M196.74 278l-6.15-21.82h4.25l3.93 16.03h.2l4.2-16.03h3.87l4.2 16.05h.2l3.93-16.05h4.25L213.46 278h-3.9l-4.37-15.3h-.17l-4.38 15.3h-3.9zm29.3-9.59V278h-3.85v-21.82h3.77v8.24h.19c.38-.93.98-1.65 1.78-2.19s1.84-.8 3.09-.8c1.13 0 2.13.23 2.97.7.85.48 1.5 1.18 1.96 2.1.47.91.7 2.03.7 3.35V278h-3.85v-9.82c0-1.1-.29-1.96-.86-2.57a3.03 3.03 0 00-2.36-.93c-.68 0-1.3.15-1.83.45-.53.3-.95.71-1.26 1.27a4.2 4.2 0 00-.45 2.01zm19.25 9.92a6.82 6.82 0 01-2.8-.55 4.57 4.57 0 01-1.96-1.67 4.86 4.86 0 01-.71-2.7c0-.93.17-1.69.5-2.3.35-.6.81-1.08 1.4-1.44a7.03 7.03 0 012-.82c.74-.2 1.51-.33 2.3-.42l2.34-.26c.6-.09 1.03-.22 1.3-.39.28-.17.42-.45.42-.82v-.06c0-.8-.24-1.42-.72-1.86-.47-.45-1.16-.67-2.05-.67-.95 0-1.7.21-2.25.62-.55.41-.92.9-1.1 1.46l-3.6-.51a5.76 5.76 0 013.8-4 10.24 10.24 0 015.49-.24c.77.19 1.48.49 2.13.92.65.42 1.17.99 1.56 1.71.4.73.6 1.63.6 2.72V278h-3.71v-2.25h-.13a4.72 4.72 0 01-2.58 2.23 6.4 6.4 0 01-2.23.35zm1-2.83c.78 0 1.45-.16 2.02-.46.57-.31 1-.73 1.3-1.24.32-.5.48-1.07.48-1.67v-1.93c-.12.1-.33.2-.62.28-.28.08-.6.16-.96.22-.35.07-.7.12-1.05.17l-.9.13c-.58.08-1.1.2-1.55.38-.46.18-.82.43-1.08.75-.26.31-.4.72-.4 1.21 0 .72.26 1.25.78 1.61.52.37 1.18.55 1.98.55zm19.7-13.86v2.98h-9.41v-2.98h9.4zm-7.1-3.92h3.87v15.36c0 .52.07.91.23 1.2.16.26.38.45.64.55.26.1.55.14.87.14a3.72 3.72 0 001.13-.15l.65 3.02a7.25 7.25 0 01-2.27.38 6.29 6.29 0 01-2.6-.43 4.06 4.06 0 01-1.85-1.52 4.5 4.5 0 01-.66-2.55v-16zm23.83 20.57a6.2 6.2 0 01-5.86-3.87 10.72 10.72 0 01-.88-4.58c0-1.82.3-3.35.9-4.6a6.26 6.26 0 015.86-3.81c.95 0 1.74.16 2.36.48.62.32 1.1.71 1.47 1.16.36.45.64.88.84 1.27h.16v-8.16h3.87V278h-3.8v-2.58h-.23c-.2.4-.49.82-.86 1.27a4.77 4.77 0 01-3.83 1.6zm1.08-3.17c.81 0 1.51-.22 2.09-.66a4.13 4.13 0 001.3-1.86c.3-.8.45-1.72.45-2.78a7.7 7.7 0 00-.44-2.76 3.93 3.93 0 00-1.3-1.82 3.36 3.36 0 00-2.1-.65 3.4 3.4 0 00-2.15.67c-.58.45-1.01 1.06-1.3 1.85-.3.8-.44 1.7-.44 2.7a8 8 0 00.44 2.75c.3.8.73 1.42 1.3 1.88.59.46 1.3.68 2.15.68zm18.88 3.2c-1.6 0-2.98-.35-4.15-1.06a7.16 7.16 0 01-2.73-2.95 9.7 9.7 0 01-.96-4.43c0-1.69.32-3.17.96-4.44a7.14 7.14 0 012.73-2.96 7.93 7.93 0 014.15-1.06c1.6 0 2.99.35 4.16 1.06a7.08 7.08 0 012.72 2.96c.64 1.27.96 2.75.96 4.44a9.6 9.6 0 01-.96 4.43 7.1 7.1 0 01-2.72 2.95 7.93 7.93 0 01-4.16 1.06zm.02-3.09c.87 0 1.6-.24 2.18-.71a4.3 4.3 0 001.3-1.94c.29-.81.44-1.71.44-2.7 0-1.01-.15-1.92-.44-2.73a4.3 4.3 0 00-1.3-1.94 3.29 3.29 0 00-2.18-.73c-.88 0-1.62.24-2.21.72a4.37 4.37 0 00-1.31 1.95c-.29.81-.43 1.72-.43 2.72 0 1 .14 1.9.43 2.7.29.82.73 1.46 1.3 1.95.6.47 1.34.71 2.22.71zm20.94 8.87a7.83 7.83 0 01-2.52-.41l.9-3c.84.25 1.54.29 2.1.12.58-.15 1.05-.68 1.42-1.58l.33-.89-5.93-16.7h4.1l3.76 12.35h.17l3.78-12.35 4.13.02-6.58 18.32c-.3.85-.7 1.59-1.21 2.2a4.98 4.98 0 01-1.85 1.42c-.73.34-1.6.5-2.6.5zm21.5-5.78c-1.6 0-2.99-.35-4.16-1.06a7.16 7.16 0 01-2.73-2.95 9.7 9.7 0 01-.96-4.43c0-1.69.32-3.17.96-4.44a7.14 7.14 0 012.73-2.96 7.93 7.93 0 014.15-1.06c1.6 0 2.99.35 4.16 1.06a7.07 7.07 0 012.72 2.96c.64 1.27.97 2.75.97 4.44a9.6 9.6 0 01-.97 4.43 7.09 7.09 0 01-2.72 2.95 7.93 7.93 0 01-4.16 1.06zm.02-3.09c.86 0 1.59-.24 2.17-.71a4.3 4.3 0 001.3-1.94c.29-.81.44-1.71.44-2.7 0-1.01-.15-1.92-.44-2.73a4.3 4.3 0 00-1.3-1.94 3.3 3.3 0 00-2.17-.73c-.9 0-1.63.24-2.22.72a4.37 4.37 0 00-1.31 1.95c-.28.81-.43 1.72-.43 2.72 0 1 .15 1.9.43 2.7.3.82.73 1.46 1.31 1.95.59.47 1.33.71 2.22.71zm21.52-4.11v-9.48h3.86V278h-3.74v-2.9h-.17a4.92 4.92 0 01-1.83 2.24 5.3 5.3 0 01-3.1.87 4.95 4.95 0 01-4.76-2.81 7.41 7.41 0 01-.7-3.34v-10.42h3.87v9.82c0 1.04.28 1.86.85 2.47.57.61 1.31.92 2.24.92a3.53 3.53 0 002.96-1.66c.34-.55.52-1.24.52-2.07zm19.12-2.7V278h-3.86v-16.36h3.69v2.78h.19c.38-.92.98-1.65 1.8-2.19a5.53 5.53 0 013.08-.8 5.8 5.8 0 012.95.72c.85.48 1.5 1.18 1.96 2.1.47.91.7 2.02.7 3.33V278h-3.86v-9.82c0-1.1-.29-1.95-.86-2.57a2.99 2.99 0 00-2.33-.93c-.67 0-1.27.15-1.8.45-.52.3-.93.71-1.22 1.27-.3.55-.44 1.22-.44 2.01zm21.67 9.9a8.43 8.43 0 01-4.25-1.02 6.93 6.93 0 01-2.74-2.92 9.78 9.78 0 01-.96-4.47c0-1.68.32-3.16.96-4.43a7.27 7.27 0 016.79-4.06c1 0 1.96.17 2.85.5.9.31 1.7.81 2.39 1.48a7 7 0 011.64 2.58c.4 1.04.6 2.28.6 3.71v1.18h-13.42v-2.6h9.72c-.01-.73-.17-1.4-.48-1.97a3.48 3.48 0 00-1.31-1.37c-.56-.34-1.2-.5-1.94-.5-.79 0-1.48.19-2.08.57-.6.38-1.06.88-1.4 1.5-.32.6-.49 1.28-.5 2v2.28c0 .95.18 1.77.53 2.45.34.67.83 1.19 1.46 1.55.62.36 1.35.54 2.2.54.55 0 1.06-.08 1.52-.24.45-.16.84-.4 1.18-.71.33-.31.58-.7.75-1.16l3.6.4a5.63 5.63 0 01-1.3 2.5 6.33 6.33 0 01-2.42 1.63 9.3 9.3 0 01-3.4.58zm17.78 0a8.42 8.42 0 01-4.25-1.02 6.92 6.92 0 01-2.74-2.92 9.77 9.77 0 01-.96-4.47c0-1.68.32-3.16.96-4.43a7.25 7.25 0 016.79-4.06c1 0 1.96.17 2.85.5.9.31 1.7.81 2.39 1.48a7 7 0 011.64 2.58c.4 1.04.6 2.28.6 3.71v1.18h-13.41v-2.6h9.71c0-.73-.17-1.4-.48-1.97a3.48 3.48 0 00-1.3-1.37c-.56-.34-1.2-.5-1.95-.5-.79 0-1.48.19-2.08.57-.6.38-1.06.88-1.4 1.5-.32.6-.49 1.28-.5 2v2.28c0 .95.18 1.77.53 2.45.35.67.84 1.19 1.46 1.55.63.36 1.36.54 2.2.54.56 0 1.06-.08 1.52-.24.45-.16.85-.4 1.18-.71.33-.31.59-.7.76-1.16l3.6.4a5.63 5.63 0 01-1.3 2.5 6.33 6.33 0 01-2.43 1.63 9.3 9.3 0 01-3.39.58zm16.61-.03a6.2 6.2 0 01-3.45-1 6.73 6.73 0 01-2.4-2.87 10.74 10.74 0 01-.9-4.58c0-1.82.3-3.35.9-4.6a6.27 6.27 0 015.86-3.81c.96 0 1.75.16 2.37.48.62.32 1.1.71 1.47 1.16.36.45.64.88.84 1.27h.16v-8.16h3.87V278h-3.8v-2.58h-.23c-.2.4-.49.82-.86 1.27a4.75 4.75 0 01-3.83 1.6zm1.08-3.17c.81 0 1.51-.22 2.09-.66a4.13 4.13 0 001.3-1.86c.3-.8.45-1.72.45-2.78 0-1.06-.14-1.98-.44-2.76a3.92 3.92 0 00-1.3-1.82 3.36 3.36 0 00-2.1-.65 3.4 3.4 0 00-2.15.67c-.58.45-1.01 1.06-1.3 1.85-.3.8-.44 1.7-.44 2.7a8 8 0 00.44 2.75c.3.8.73 1.42 1.3 1.88.59.46 1.3.68 2.15.68zm-247.1 33.3V318h-3.86v-21.82h3.77v8.24h.2c.38-.93.97-1.65 1.77-2.19.81-.54 1.84-.8 3.1-.8 1.13 0 2.12.23 2.97.7.84.48 1.5 1.18 1.96 2.1.46.91.7 2.03.7 3.35V318h-3.86v-9.82c0-1.1-.28-1.96-.85-2.57a3.03 3.03 0 00-2.37-.93c-.68 0-1.29.15-1.83.45-.53.3-.95.71-1.25 1.27a4.2 4.2 0 00-.45 2.01zm21.78 9.9a8.42 8.42 0 01-4.25-1.02 6.93 6.93 0 01-2.73-2.92 9.77 9.77 0 01-.96-4.47c0-1.68.32-3.16.96-4.43a7.25 7.25 0 016.78-4.06c1.01 0 1.96.17 2.86.5.9.31 1.7.81 2.38 1.48a7 7 0 011.64 2.58c.4 1.04.6 2.28.6 3.71v1.18H211.5v-2.6h9.71c0-.73-.16-1.4-.48-1.97a3.48 3.48 0 00-1.3-1.37c-.56-.34-1.2-.5-1.94-.5-.8 0-1.49.19-2.08.57-.6.38-1.06.88-1.4 1.5a4.3 4.3 0 00-.5 2v2.28c0 .95.18 1.77.52 2.45.35.67.84 1.19 1.46 1.55.63.36 1.36.54 2.2.54.56 0 1.07-.08 1.52-.24.46-.16.85-.4 1.18-.71.34-.31.59-.7.76-1.16l3.6.4a5.63 5.63 0 01-1.3 2.5 6.33 6.33 0 01-2.43 1.63 9.3 9.3 0 01-3.39.58zm14.4-22.14V318h-3.86v-21.82h3.86zm3.97 27.96v-22.5h3.79v2.7h.22c.2-.4.48-.82.84-1.26.37-.46.86-.85 1.47-1.17.62-.32 1.41-.49 2.37-.49a6.23 6.23 0 015.85 3.82c.6 1.25.9 2.78.9 4.6 0 1.8-.3 3.32-.88 4.58a6.73 6.73 0 01-2.4 2.88 6.2 6.2 0 01-3.46.99 4.75 4.75 0 01-3.82-1.6 7.29 7.29 0 01-.87-1.27h-.16v8.72H236zm3.78-14.32c0 1.06.15 1.98.44 2.78.31.8.75 1.42 1.31 1.86.58.44 1.28.66 2.1.66.85 0 1.56-.22 2.13-.68a4.2 4.2 0 001.3-1.88c.3-.8.45-1.72.45-2.74 0-1.02-.14-1.92-.44-2.7-.29-.8-.72-1.41-1.3-1.86a3.4 3.4 0 00-2.15-.67c-.82 0-1.52.21-2.1.65a3.99 3.99 0 00-1.3 1.82 7.9 7.9 0 00-.44 2.76zm25.78 8.18l-4.62-16.36h3.93l2.88 11.5h.15l2.94-11.5h3.89l2.94 11.44h.16l2.83-11.44h3.94L279.96 318h-4.02l-3.07-11.06h-.22L269.58 318h-4.03zm21.73 0v-16.36h3.86V318h-3.86zm1.94-18.69c-.62 0-1.14-.2-1.58-.6-.44-.41-.65-.9-.65-1.48 0-.59.22-1.08.66-1.49.44-.4.96-.61 1.57-.61.61 0 1.14.2 1.57.62.44.4.66.9.66 1.48 0 .57-.22 1.06-.66 1.48-.43.4-.96.6-1.57.6zm14.06 2.33v2.98h-9.4v-2.98h9.4zm-7.09-3.92h3.86v15.36c0 .52.08.91.23 1.2.17.26.38.45.64.55.27.1.56.14.88.14a3.72 3.72 0 001.13-.15l.65 3.02a7.25 7.25 0 01-2.27.38 6.29 6.29 0 01-2.61-.43 4.06 4.06 0 01-1.85-1.52 4.5 4.5 0 01-.66-2.55v-16zm14.52 10.7V318h-3.85v-21.82h3.77v8.24h.19c.38-.93.97-1.65 1.78-2.19.8-.54 1.84-.8 3.09-.8 1.13 0 2.12.23 2.97.7.84.48 1.5 1.18 1.96 2.1.47.91.7 2.03.7 3.35V318h-3.86v-9.82c0-1.1-.28-1.96-.85-2.57a3.03 3.03 0 00-2.36-.93c-.68 0-1.3.15-1.83.45-.54.3-.96.71-1.26 1.27a4.2 4.2 0 00-.45 2.01zm18.23 3.17v-.28c0-1.29.13-2.3.36-3.07.24-.76.58-1.37 1.02-1.83.44-.47.98-.9 1.61-1.29a7.5 7.5 0 001.16-.88c.35-.33.63-.7.82-1.1.2-.4.3-.85.3-1.34 0-.56-.13-1.05-.4-1.46a2.67 2.67 0 00-1.06-.96 3.18 3.18 0 00-1.48-.34c-.5 0-.98.1-1.44.33a2.8 2.8 0 00-1.12.98c-.29.43-.45.98-.48 1.65h-3.8c.04-1.35.37-2.48.98-3.39a5.8 5.8 0 012.47-2.05 8.36 8.36 0 013.41-.68c1.36 0 2.55.24 3.58.72a5.47 5.47 0 013.3 5.15c0 .8-.14 1.53-.4 2.17-.25.63-.62 1.2-1.1 1.7a8 8 0 01-1.69 1.33c-.58.36-1.05.73-1.42 1.11-.36.38-.63.83-.8 1.35a6.27 6.27 0 00-.27 1.9v.28h-3.55zm1.85 6.64c-.64 0-1.19-.22-1.65-.68-.46-.45-.7-1-.7-1.66 0-.64.24-1.19.7-1.64a2.27 2.27 0 011.65-.68c.63 0 1.18.23 1.64.68.47.45.7 1 .7 1.64 0 .43-.1.83-.32 1.18-.22.36-.5.64-.86.86-.34.2-.73.3-1.16.3z" fill="#000"/><path fill="#CFCFCF" d="M190 426h335v1H190zM190 351h335v1H190zM190 502h335v1H190zM190 578h335v1H190zM190 654h335v1H190z"/><rect x="190" y="430" width="335" height="70" rx="5" fill="#fff"/><path d="M251.3 458.9h2.9l3.88 9.5h.15l3.89-9.5h2.9V472h-2.27v-9h-.13l-3.61 8.96h-1.7l-3.62-8.97h-.12V472h-2.28v-13.1zm20.55 13.3c-.99 0-1.84-.21-2.55-.62-.71-.41-1.26-1-1.65-1.75a5.86 5.86 0 01-.57-2.68c0-1.01.2-1.9.57-2.66a4.35 4.35 0 014.08-2.44c.6 0 1.17.1 1.71.3.54.19 1.02.49 1.43.9.42.4.75.91.99 1.54.23.62.35 1.36.35 2.22v.71h-8.04v-1.56H274c0-.44-.1-.83-.3-1.18a2.08 2.08 0 00-.78-.82c-.33-.2-.72-.3-1.16-.3-.47 0-.89.11-1.25.34-.36.23-.63.53-.83.9-.2.36-.3.77-.3 1.2v1.37c0 .57.1 1.06.3 1.47.22.4.5.71.88.93.38.21.82.32 1.32.32.34 0 .64-.05.91-.14.28-.1.51-.24.71-.43.2-.19.36-.42.46-.7l2.16.25c-.14.57-.4 1.07-.78 1.5a3.8 3.8 0 01-1.46.98c-.6.23-1.27.34-2.03.34zm8.63-5.95V472h-2.3v-9.82h2.2v1.67h.12a2.8 2.8 0 011.08-1.31c.5-.32 1.11-.49 1.85-.49.67 0 1.26.15 1.77.44.5.29.9.7 1.17 1.26.28.55.42 1.21.42 2V472h-2.32v-5.9a2.2 2.2 0 00-.5-1.53 1.8 1.8 0 00-1.4-.56c-.41 0-.77.09-1.09.27-.3.17-.55.43-.73.76-.18.33-.26.73-.26 1.2zm13.56-4.07v1.8h-5.64v-1.8h5.64zm-4.25-2.35h2.32v9.22c0 .3.04.55.14.71.1.17.22.28.38.34.16.05.33.08.52.08a2.3 2.3 0 00.68-.08l.4 1.8a5.07 5.07 0 01-1.37.23c-.58.02-1.1-.07-1.57-.26-.46-.2-.83-.5-1.1-.9a2.7 2.7 0 01-.4-1.54v-9.6zm9.01 12.37a4.1 4.1 0 01-1.68-.33c-.5-.23-.88-.56-1.17-1a2.92 2.92 0 01-.43-1.63c0-.55.1-1 .3-1.37.2-.36.49-.65.84-.87.36-.22.75-.38 1.2-.5.44-.1.9-.19 1.38-.24l1.4-.16c.36-.05.62-.13.78-.23.17-.1.25-.27.25-.5v-.03c0-.48-.14-.85-.43-1.12-.28-.26-.7-.4-1.23-.4-.56 0-1.01.13-1.35.38-.33.24-.55.53-.66.87l-2.16-.3a3.46 3.46 0 012.28-2.4 6.1 6.1 0 013.3-.14c.46.1.89.28 1.28.54.38.25.7.6.93 1.03.24.43.36.98.36 1.63V472h-2.23v-1.35h-.07a2.83 2.83 0 01-1.55 1.34c-.38.14-.82.2-1.34.2zm.6-1.7c.47 0 .87-.1 1.21-.28.34-.18.6-.43.79-.74.19-.3.28-.64.28-1v-1.16c-.07.06-.2.12-.37.17a16.64 16.64 0 01-1.75.31 4 4 0 00-.93.23c-.27.1-.49.26-.64.45-.16.19-.24.43-.24.73 0 .42.15.75.46.96.32.22.71.33 1.2.33zm9.23-11.6V472h-2.32v-13.1h2.32zm6.94 13.1v-13.1h2.38v5.55H324v-5.54h2.38V472h-2.38v-5.56h-6.06V472h-2.38zm17.64.2c-.98 0-1.83-.21-2.55-.62-.7-.41-1.26-1-1.64-1.75a5.88 5.88 0 01-.57-2.68c0-1.01.19-1.9.57-2.66a4.35 4.35 0 014.07-2.44c.6 0 1.18.1 1.72.3.54.19 1.01.49 1.43.9.41.4.74.91.98 1.54.24.62.36 1.36.36 2.22v.71h-8.05v-1.56h5.83c0-.44-.1-.83-.29-1.18a2.08 2.08 0 00-.78-.82c-.34-.2-.72-.3-1.17-.3-.47 0-.88.11-1.24.34-.36.23-.64.53-.84.9-.2.36-.3.77-.3 1.2v1.37c0 .57.1 1.06.31 1.47.21.4.5.71.88.93.37.21.81.32 1.31.32.34 0 .65-.05.92-.14.27-.1.5-.24.7-.43.2-.19.36-.42.46-.7l2.16.25c-.13.57-.4 1.07-.78 1.5a3.8 3.8 0 01-1.45.98c-.6.23-1.27.34-2.04.34zm9.15 0a4.1 4.1 0 01-1.68-.33c-.5-.23-.89-.56-1.18-1a2.92 2.92 0 01-.42-1.63c0-.55.1-1 .3-1.37.2-.36.49-.65.84-.87.35-.22.75-.38 1.2-.5.44-.1.9-.19 1.38-.24a55.7 55.7 0 001.4-.16c.36-.05.62-.13.78-.23.17-.1.25-.27.25-.5v-.03c0-.48-.14-.85-.43-1.12-.28-.26-.7-.4-1.23-.4-.57 0-1.02.13-1.35.38-.33.24-.55.53-.66.87l-2.16-.3a3.45 3.45 0 012.28-2.4 6.12 6.12 0 013.3-.14c.46.1.89.28 1.27.54.4.25.7.6.94 1.03.24.43.36.98.36 1.63V472h-2.23v-1.35h-.07a2.81 2.81 0 01-1.55 1.34c-.38.14-.83.2-1.34.2zm.6-1.7c.47 0 .87-.1 1.21-.28.34-.18.6-.43.79-.74.19-.3.28-.64.28-1v-1.16c-.07.06-.2.12-.37.17a16.64 16.64 0 01-1.75.31c-.35.05-.66.12-.93.23-.27.1-.49.26-.65.45a1.1 1.1 0 00-.23.73c0 .42.15.75.46.96.31.22.71.33 1.2.33zm9.23-11.6V472h-2.32v-13.1h2.32zm7.28 3.28v1.8h-5.65v-1.8h5.65zm-4.25-2.35h2.31v9.22c0 .3.05.55.14.71.1.17.23.28.39.34.15.05.33.08.52.08a2.28 2.28 0 00.68-.08l.39 1.8a5.07 5.07 0 01-1.36.23c-.58.02-1.1-.07-1.57-.26-.46-.2-.83-.5-1.1-.9a2.7 2.7 0 01-.4-1.54v-9.6zm8.7 6.42V472h-2.3v-13.1h2.26v4.95h.11c.23-.55.59-1 1.07-1.31.49-.32 1.1-.49 1.85-.49.69 0 1.28.15 1.79.43.5.29.9.7 1.17 1.25.28.56.43 1.23.43 2.02V472h-2.32v-5.9c0-.65-.17-1.17-.51-1.53a1.82 1.82 0 00-1.42-.56c-.4 0-.78.09-1.1.27-.32.17-.57.43-.75.76-.18.33-.27.73-.27 1.2z" fill="#404040"/><path d="M498 458l7 7-7 7" stroke="#B9B9B9" stroke-width="1.5" stroke-linecap="round" stroke-linejoin="round"/><rect x="190" y="582" width="335" height="70" rx="5" fill="#fff"/><path d="M255.73 624h-4.44v-13.1h4.53c1.3 0 2.41.27 3.35.8a5.26 5.26 0 012.16 2.24c.5.97.75 2.14.75 3.5 0 1.36-.25 2.54-.76 3.52a5.26 5.26 0 01-2.18 2.25c-.94.53-2.08.79-3.41.79zm-2.07-2.05h1.95c.91 0 1.68-.17 2.28-.5a3.18 3.18 0 001.38-1.5 6 6 0 00.46-2.5c0-1.01-.16-1.84-.46-2.5a3.13 3.13 0 00-1.36-1.49c-.6-.33-1.34-.5-2.23-.5h-2.02v8.99zm10.57 2.05v-9.82h2.25v1.64h.1a2.45 2.45 0 012.42-1.78 5.75 5.75 0 01.83.07v2.12a4.28 4.28 0 00-1.07-.13c-.42 0-.8.1-1.14.27a2.02 2.02 0 00-1.07 1.86V624h-2.32zm13.4-4.13v-5.69h2.31V624h-2.24v-1.75h-.1c-.23.55-.6 1-1.1 1.35-.5.35-1.12.53-1.86.53a2.98 2.98 0 01-2.86-1.69 4.45 4.45 0 01-.41-2v-6.26h2.31v5.9c0 .62.17 1.11.51 1.48.35.37.8.55 1.35.55.34 0 .67-.09.99-.25.32-.17.58-.41.78-.74.21-.34.32-.75.32-1.25zm8.96 7.98c-.83 0-1.54-.11-2.14-.33a3.85 3.85 0 01-1.44-.9 3.07 3.07 0 01-.75-1.21l2.08-.5c.1.17.23.35.4.53.19.19.43.34.73.46.3.13.7.2 1.16.2.65 0 1.2-.16 1.63-.48.43-.31.64-.82.64-1.52v-1.86h-.11c-.12.23-.3.48-.53.73-.22.25-.52.46-.9.63-.37.17-.83.26-1.4.26-.75 0-1.44-.18-2.05-.53a3.8 3.8 0 01-1.46-1.6 5.92 5.92 0 01-.53-2.67c0-1.08.18-1.99.53-2.73.37-.75.85-1.31 1.47-1.7a3.76 3.76 0 013.47-.28c.37.19.67.42.9.7.21.26.38.52.5.75h.13v-1.62h2.28v9.98c0 .82-.2 1.5-.6 2.05-.4.55-.95.96-1.65 1.23-.69.27-1.48.4-2.36.4zm.02-5.8c.49 0 .9-.13 1.25-.36.35-.24.6-.59.79-1.03.18-.45.27-.99.27-1.61a4.5 4.5 0 00-.27-1.63 2.32 2.32 0 00-.78-1.08 2.02 2.02 0 00-1.26-.39c-.52 0-.95.14-1.3.4-.34.27-.6.64-.77 1.11-.18.46-.26 1-.26 1.59 0 .6.08 1.12.26 1.58.18.44.44.8.78 1.04.35.25.78.37 1.29.37zm14.72-5.27l-2.11.23a1.7 1.7 0 00-.9-1.06 2.14 2.14 0 00-.9-.17c-.49 0-.9.1-1.22.31-.33.21-.49.48-.48.81 0 .29.1.52.31.7.22.18.58.33 1.08.44l1.67.36c.93.2 1.62.52 2.07.95.46.44.69 1 .7 1.71-.01.62-.2 1.16-.55 1.64-.36.46-.85.83-1.48 1.1-.63.26-1.35.4-2.17.4-1.2 0-2.17-.26-2.9-.76a3.04 3.04 0 01-1.31-2.12l2.25-.22c.1.45.32.78.65 1 .34.23.77.35 1.3.35.55 0 1-.12 1.32-.34.34-.23.5-.5.5-.84 0-.28-.1-.51-.32-.7a2.27 2.27 0 00-1-.42l-1.67-.35a3.99 3.99 0 01-2.09-.99 2.44 2.44 0 01-.67-1.78c0-.6.16-1.13.5-1.57.33-.45.8-.8 1.4-1.04.6-.24 1.29-.37 2.07-.37 1.15 0 2.06.25 2.72.74a3.1 3.1 0 011.23 1.99zm11.93-6.49l-4.22 15.68H307l4.22-15.68h2.03zM319.3 624v-13.1h4.91c1 0 1.85.2 2.53.57.69.38 1.2.9 1.56 1.55.35.65.52 1.4.52 2.22 0 .84-.17 1.59-.52 2.24a3.8 3.8 0 01-1.57 1.54c-.7.37-1.54.56-2.55.56h-3.25v-1.95h2.93a3 3 0 001.44-.31c.38-.2.65-.49.83-.84.19-.36.28-.77.28-1.24 0-.46-.1-.87-.28-1.22a1.87 1.87 0 00-.83-.83c-.38-.2-.86-.3-1.45-.3h-2.18V624h-2.37zm15.63.2c-.96 0-1.8-.22-2.5-.64a4.3 4.3 0 01-1.63-1.77 5.83 5.83 0 01-.58-2.66c0-1.01.2-1.9.57-2.67a4.3 4.3 0 011.64-1.77c.7-.43 1.54-.64 2.5-.64.95 0 1.78.22 2.49.64.7.42 1.24 1.01 1.63 1.77.38.77.58 1.65.58 2.67 0 1.01-.2 1.9-.58 2.66a4.26 4.26 0 01-1.63 1.77c-.7.42-1.54.63-2.5.63zm0-1.86a2 2 0 001.31-.43c.35-.29.61-.68.78-1.16.18-.49.26-1.03.26-1.63 0-.6-.08-1.14-.26-1.63a2.57 2.57 0 00-.78-1.17 1.97 1.97 0 00-1.3-.43c-.54 0-.98.14-1.33.43-.35.3-.61.68-.79 1.17a4.89 4.89 0 00-.25 1.63c0 .6.08 1.14.25 1.63.18.48.44.87.79 1.16.35.29.8.43 1.33.43zm6.66 1.66v-9.82h2.32V624h-2.32zm1.17-11.21c-.37 0-.7-.12-.96-.37a1.18 1.18 0 01-.39-.88c0-.35.14-.65.4-.9.26-.24.58-.36.95-.36.36 0 .68.12.94.37.26.24.4.54.4.89 0 .34-.14.64-.4.88-.26.25-.58.37-.94.37zm11.29 3.99l-2.11.23a1.7 1.7 0 00-.32-.6 1.56 1.56 0 00-.58-.46 2.14 2.14 0 00-.91-.17c-.48 0-.89.1-1.22.31-.32.21-.48.48-.48.81 0 .29.1.52.32.7.21.18.57.33 1.07.44l1.68.36c.93.2 1.62.52 2.07.95.45.44.68 1 .69 1.71 0 .62-.19 1.16-.55 1.64-.35.46-.84.83-1.47 1.1-.63.26-1.36.4-2.18.4-1.2 0-2.17-.26-2.9-.76a3.04 3.04 0 01-1.3-2.12l2.25-.22c.1.45.32.78.65 1 .33.23.76.35 1.3.35.55 0 .99-.12 1.32-.34.34-.23.5-.5.5-.84 0-.28-.1-.51-.32-.7a2.27 2.27 0 00-1-.42l-1.67-.35a3.99 3.99 0 01-2.1-.99 2.44 2.44 0 01-.66-1.78c0-.6.16-1.13.49-1.57.34-.45.8-.8 1.4-1.04.6-.24 1.3-.37 2.08-.37 1.15 0 2.05.25 2.71.74a3.1 3.1 0 011.24 1.99zm6.4 7.41c-.96 0-1.8-.2-2.5-.63a4.3 4.3 0 01-1.63-1.77 5.81 5.81 0 01-.58-2.66c0-1.01.2-1.9.58-2.67.39-.76.93-1.35 1.63-1.77.7-.43 1.54-.64 2.5-.64s1.79.22 2.5.64c.7.42 1.24 1.01 1.62 1.77.39.77.58 1.65.58 2.67 0 1.01-.2 1.9-.58 2.66a4.25 4.25 0 01-1.63 1.77c-.7.42-1.53.63-2.5.63zm.01-1.85a2 2 0 001.3-.43c.35-.29.61-.68.79-1.16.17-.49.26-1.03.26-1.63 0-.6-.1-1.14-.26-1.63a2.59 2.59 0 00-.79-1.17 1.97 1.97 0 00-1.3-.43c-.53 0-.97.14-1.33.43-.35.3-.61.68-.78 1.17a4.91 4.91 0 00-.26 1.63c0 .6.09 1.14.26 1.63.17.48.43.87.78 1.16.36.29.8.43 1.33.43zm8.97-4.1V624h-2.31v-9.82h2.2v1.67h.12a2.8 2.8 0 011.08-1.31c.5-.32 1.12-.49 1.85-.49.68 0 1.27.15 1.77.44.5.29.9.7 1.18 1.26.28.55.42 1.21.41 2V624h-2.31v-5.9c0-.65-.17-1.16-.51-1.53a1.8 1.8 0 00-1.4-.56c-.4 0-.77.09-1.08.27-.31.17-.56.43-.74.76-.17.33-.26.73-.26 1.2zm8.65 5.76v-9.82h2.32V624h-2.31zm1.17-11.21c-.37 0-.69-.12-.95-.37a1.18 1.18 0 01-.4-.88c0-.35.14-.65.4-.9.27-.24.58-.36.95-.36s.68.12.94.37c.26.24.4.54.4.89 0 .34-.14.64-.4.88-.26.25-.57.37-.94.37zm5.84 5.46V624h-2.31v-9.82h2.21v1.67h.12a2.8 2.8 0 011.08-1.31c.5-.32 1.11-.49 1.84-.49.68 0 1.27.15 1.77.44.51.29.9.7 1.18 1.26.28.55.42 1.21.41 2V624h-2.3v-5.9c0-.65-.18-1.16-.52-1.53a1.8 1.8 0 00-1.4-.56c-.4 0-.77.09-1.08.27-.31.17-.56.43-.73.76-.18.33-.27.73-.27 1.2zm12.93 9.6c-.83 0-1.55-.11-2.14-.33a3.84 3.84 0 01-1.44-.9 3.07 3.07 0 01-.76-1.21l2.09-.5c.1.17.23.35.4.53.19.19.43.34.73.46.3.13.7.2 1.16.2.65 0 1.2-.16 1.63-.48.43-.31.64-.82.64-1.52v-1.86h-.11c-.12.23-.3.48-.53.73a2.7 2.7 0 01-.9.63c-.37.17-.84.26-1.4.26-.75 0-1.44-.18-2.05-.53a3.8 3.8 0 01-1.46-1.6 5.92 5.92 0 01-.53-2.67c0-1.08.17-1.99.53-2.73.36-.75.85-1.31 1.47-1.7a3.76 3.76 0 013.47-.28c.37.19.67.42.9.7.21.26.38.52.5.75h.12v-1.62h2.29v9.98c0 .82-.2 1.5-.6 2.05-.4.55-.95.96-1.65 1.23s-1.48.4-2.36.4zm.02-5.8c.49 0 .9-.13 1.25-.36.34-.24.6-.59.79-1.03.18-.45.26-.99.26-1.61a4.5 4.5 0 00-.26-1.63 2.32 2.32 0 00-.78-1.08 2.02 2.02 0 00-1.26-.39c-.52 0-.95.14-1.3.4-.34.27-.6.64-.77 1.11-.18.46-.27 1-.27 1.59 0 .6.1 1.12.27 1.58.17.44.44.8.78 1.04.35.25.78.37 1.29.37z" fill="#404040"/><path d="M498 610l7 7-7 7" stroke="#B9B9B9" stroke-width="1.5" stroke-linecap="round" stroke-linejoin="round"/><rect x="190" y="506" width="335" height="70" rx="5" fill="#fff"/><path d="M251.3 548v-13.1h2.36v5.55h6.07v-5.54h2.38V548h-2.38v-5.56h-6.07V548h-2.37zm17.57.2c-.96 0-1.8-.22-2.5-.64a4.3 4.3 0 01-1.63-1.77 5.81 5.81 0 01-.58-2.66c0-1.01.2-1.9.58-2.67.38-.76.93-1.35 1.63-1.77.7-.43 1.54-.64 2.5-.64.95 0 1.79.22 2.49.64.7.42 1.25 1.01 1.63 1.77.39.77.58 1.65.58 2.67 0 1.01-.2 1.9-.58 2.66a4.26 4.26 0 01-1.63 1.77c-.7.42-1.54.63-2.5.63zm0-1.86a2 2 0 001.31-.43c.35-.29.61-.68.78-1.16.18-.49.27-1.03.27-1.63 0-.6-.1-1.14-.27-1.63a2.59 2.59 0 00-.78-1.17 1.97 1.97 0 00-1.3-.43c-.53 0-.98.14-1.33.43-.35.3-.61.68-.79 1.17a4.91 4.91 0 00-.25 1.63c0 .6.08 1.14.25 1.63.18.48.44.87.79 1.16.35.29.8.43 1.33.43zm6.67 1.66v-9.82h2.2v1.67h.12c.2-.56.54-1 1.02-1.32a2.96 2.96 0 011.7-.48c.66 0 1.22.17 1.67.49.46.32.79.76.97 1.31h.1c.22-.55.59-.98 1.1-1.3.53-.33 1.14-.5 1.85-.5.9 0 1.64.29 2.22.86.57.57.85 1.4.85 2.5V548h-2.32v-6.23c0-.61-.16-1.06-.48-1.34a1.73 1.73 0 00-1.2-.43c-.55 0-.99.18-1.3.53-.31.34-.47.8-.47 1.35V548h-2.27v-6.33c0-.5-.15-.91-.46-1.21-.3-.3-.7-.46-1.19-.46a1.79 1.79 0 00-1.56.97c-.16.3-.24.65-.24 1.06V548h-2.31zm20.5.2c-.99 0-1.84-.21-2.56-.62-.7-.42-1.25-1-1.64-1.75a5.88 5.88 0 01-.57-2.68c0-1.01.19-1.9.57-2.66a4.35 4.35 0 014.07-2.44c.6 0 1.18.1 1.72.3.54.19 1.02.49 1.43.9.42.4.75.91.98 1.54.24.62.36 1.36.36 2.22v.71h-8.05v-1.56h5.83c0-.44-.1-.83-.28-1.18a2.09 2.09 0 00-.8-.82c-.32-.2-.71-.3-1.15-.3-.48 0-.9.11-1.25.34-.36.23-.64.53-.84.9-.2.36-.3.77-.3 1.2v1.37c0 .57.1 1.06.31 1.47.21.4.5.71.88.93.38.21.81.32 1.32.32.33 0 .64-.05.91-.14.27-.1.51-.24.71-.43.2-.19.35-.42.45-.7l2.17.25c-.14.57-.4 1.07-.78 1.5-.38.41-.87.74-1.46.98-.6.23-1.27.34-2.03.34zm8.63-13.3V548h-2.31v-13.1h2.31zm6.73 13.3c-.99 0-1.84-.21-2.55-.62-.71-.42-1.26-1-1.64-1.75a5.86 5.86 0 01-.58-2.68c0-1.01.2-1.9.58-2.66a4.35 4.35 0 014.07-2.44c.6 0 1.17.1 1.71.3.54.19 1.02.49 1.43.9.42.4.75.91.99 1.54.23.62.35 1.36.35 2.22v.71h-8.04v-1.56h5.83c0-.44-.1-.83-.3-1.18a2.1 2.1 0 00-.78-.82c-.33-.2-.72-.3-1.16-.3-.47 0-.89.11-1.25.34-.36.23-.63.53-.83.9-.2.36-.3.77-.3 1.2v1.37c0 .57.1 1.06.3 1.47.22.4.5.71.88.93.38.21.82.32 1.32.32.34 0 .64-.05.92-.14.27-.1.5-.24.7-.43.2-.19.36-.42.46-.7l2.16.25c-.14.57-.4 1.07-.78 1.5a3.8 3.8 0 01-1.46.98c-.6.23-1.27.34-2.03.34zm14.08-7.42l-2.1.23a1.7 1.7 0 00-.9-1.06 2.14 2.14 0 00-.92-.17c-.48 0-.88.1-1.21.31-.33.21-.48.48-.48.81 0 .29.1.52.31.7.22.18.58.33 1.08.44l1.67.36c.93.2 1.62.52 2.07.95.46.44.69 1 .7 1.71-.01.62-.2 1.16-.55 1.64-.35.46-.85.83-1.48 1.1-.63.26-1.35.4-2.17.4-1.2 0-2.17-.26-2.9-.76a3.04 3.04 0 01-1.31-2.12l2.25-.22c.1.45.32.78.66 1 .33.23.76.35 1.3.35s.98-.12 1.32-.34c.33-.23.5-.5.5-.84 0-.28-.1-.51-.32-.7a2.28 2.28 0 00-1-.42l-1.68-.35a3.99 3.99 0 01-2.09-.99 2.44 2.44 0 01-.67-1.78c0-.6.16-1.13.5-1.57.33-.45.8-.8 1.4-1.04.6-.24 1.29-.37 2.07-.37 1.15 0 2.06.25 2.72.74a3.1 3.1 0 011.23 1.99zm9.88 0l-2.1.23a1.7 1.7 0 00-.91-1.06 2.14 2.14 0 00-.9-.17c-.49 0-.9.1-1.22.31-.33.21-.49.48-.48.81 0 .29.1.52.31.7.22.18.58.33 1.08.44l1.67.36c.93.2 1.62.52 2.07.95.46.44.69 1 .7 1.71-.01.62-.2 1.16-.55 1.64-.35.46-.85.83-1.48 1.1-.63.26-1.35.4-2.17.4-1.2 0-2.17-.26-2.9-.76a3.04 3.04 0 01-1.31-2.12l2.25-.22c.1.45.32.78.65 1 .34.23.77.35 1.3.35.55 0 1-.12 1.32-.34.34-.23.51-.5.51-.84 0-.28-.1-.51-.33-.7a2.27 2.27 0 00-1-.42l-1.67-.35a3.99 3.99 0 01-2.09-.99 2.44 2.44 0 01-.67-1.78c0-.6.16-1.13.5-1.57.33-.45.8-.8 1.4-1.04.6-.24 1.29-.37 2.07-.37 1.15 0 2.06.25 2.72.74a3.1 3.1 0 011.23 1.99zm8.37 7.22h-2.53l4.6-13.1h2.93l4.62 13.1h-2.53l-3.5-10.4h-.1l-3.5 10.4zm.08-5.13h6.9v1.9h-6.9v-1.9zm18.76-2.1l-2.1.24a1.71 1.71 0 00-.32-.6 1.56 1.56 0 00-.59-.46 2.14 2.14 0 00-.9-.17c-.49 0-.9.1-1.22.31-.32.21-.49.48-.48.81 0 .29.1.52.31.7.22.18.58.33 1.08.44l1.67.36c.93.2 1.62.52 2.07.95.46.44.69 1 .7 1.71-.01.62-.2 1.16-.55 1.64-.35.46-.85.83-1.48 1.1-.63.26-1.35.4-2.17.4-1.2 0-2.17-.26-2.9-.76a3.04 3.04 0 01-1.31-2.12l2.25-.22c.1.45.32.78.66 1 .33.23.76.35 1.3.35s.98-.12 1.32-.34c.33-.23.5-.5.5-.84 0-.28-.1-.51-.33-.7a2.27 2.27 0 00-1-.42l-1.67-.35a3.99 3.99 0 01-2.09-.99 2.44 2.44 0 01-.67-1.78c0-.6.16-1.13.5-1.57.33-.45.8-.8 1.4-1.04.6-.24 1.29-.37 2.07-.37 1.15 0 2.06.25 2.72.74a3.1 3.1 0 011.23 1.99zm9.88 0l-2.1.24a1.7 1.7 0 00-.91-1.06 2.14 2.14 0 00-.9-.17c-.49 0-.9.1-1.22.31-.33.21-.49.48-.48.81 0 .29.1.52.31.7.22.18.58.33 1.08.44l1.67.36c.93.2 1.62.52 2.07.95.46.44.69 1 .7 1.71-.01.62-.2 1.16-.55 1.64-.36.46-.85.83-1.48 1.1-.63.26-1.35.4-2.17.4-1.2 0-2.17-.26-2.9-.76a3.04 3.04 0 01-1.31-2.12l2.25-.22c.1.45.32.78.66 1 .33.23.76.35 1.3.35s.98-.12 1.31-.34c.34-.23.51-.5.51-.84 0-.28-.1-.51-.33-.7a2.27 2.27 0 00-1-.42l-1.67-.35a3.99 3.99 0 01-2.09-.99 2.44 2.44 0 01-.67-1.78c0-.6.16-1.13.5-1.57.33-.45.8-.8 1.4-1.04.6-.24 1.29-.37 2.07-.37 1.15 0 2.06.25 2.72.74a3.1 3.1 0 011.23 1.99zm2.12 7.23v-9.82h2.31V548h-2.31zm1.16-11.21c-.37 0-.69-.12-.95-.37a1.18 1.18 0 01-.39-.88c0-.35.13-.65.4-.9.26-.24.58-.36.94-.36.37 0 .68.12.94.37.27.24.4.54.4.89 0 .34-.13.64-.4.88-.26.25-.57.37-.94.37zm11.3 3.99l-2.12.23a1.7 1.7 0 00-.9-1.06 2.14 2.14 0 00-.9-.17c-.49 0-.9.1-1.22.31-.32.21-.48.48-.48.81 0 .29.1.52.31.7.22.18.58.33 1.08.44l1.67.36c.93.2 1.62.52 2.07.95.46.44.69 1 .7 1.71-.01.62-.2 1.16-.55 1.64-.35.46-.84.83-1.48 1.1-.63.26-1.35.4-2.17.4-1.2 0-2.17-.26-2.9-.76a3.04 3.04 0 01-1.31-2.12l2.25-.22c.1.45.32.78.66 1 .33.23.76.35 1.3.35s.98-.12 1.32-.34c.33-.23.5-.5.5-.84 0-.28-.1-.51-.32-.7a2.28 2.28 0 00-1-.42l-1.68-.35a3.98 3.98 0 01-2.09-.99 2.44 2.44 0 01-.67-1.78c0-.6.16-1.13.5-1.57.33-.45.8-.8 1.4-1.04.6-.24 1.29-.37 2.07-.37 1.15 0 2.06.25 2.72.74a3.1 3.1 0 011.23 1.99zm7.02-2.6v1.8h-5.65v-1.8h5.65zm-4.26-2.35h2.32v9.22c0 .3.04.55.14.71.1.16.22.28.38.34.16.05.33.08.53.08a2.3 2.3 0 00.67-.08l.4 1.8a5.07 5.07 0 01-1.37.23c-.58.02-1.1-.07-1.56-.26-.47-.2-.84-.5-1.11-.9a2.7 2.7 0 01-.4-1.54v-9.6zm9.01 12.37a4.1 4.1 0 01-1.68-.33c-.49-.23-.88-.56-1.17-1a2.91 2.91 0 01-.43-1.63c0-.55.1-1 .3-1.37.21-.36.49-.65.84-.87.36-.22.76-.38 1.2-.5.45-.1.9-.19 1.39-.24l1.4-.16c.35-.05.61-.13.78-.23.16-.1.25-.27.25-.5v-.03c0-.48-.15-.86-.43-1.12-.29-.26-.7-.4-1.24-.4-.56 0-1.01.13-1.34.38-.33.24-.56.53-.67.87l-2.16-.3a3.46 3.46 0 012.28-2.4 6.1 6.1 0 013.3-.14c.46.1.89.28 1.28.54.39.25.7.6.93 1.03.24.43.36.98.36 1.63V548h-2.23v-1.35h-.07a2.83 2.83 0 01-1.55 1.34c-.38.14-.82.2-1.33.2zm.6-1.7c.47 0 .87-.1 1.21-.28.34-.18.6-.43.79-.74.19-.3.28-.64.28-1v-1.16c-.07.06-.2.12-.37.17a16.64 16.64 0 01-1.75.31 4 4 0 00-.93.23c-.27.1-.49.26-.64.45-.16.18-.24.43-.24.73 0 .42.16.75.47.96.3.22.7.33 1.19.33zm9.23-4.25V548h-2.31v-9.82h2.2v1.67h.12a2.8 2.8 0 011.08-1.31c.5-.32 1.12-.49 1.85-.49.68 0 1.27.15 1.77.44.5.29.9.7 1.18 1.26.28.55.42 1.21.41 2V548h-2.31v-5.9c0-.65-.17-1.16-.51-1.53a1.8 1.8 0 00-1.4-.56c-.4 0-.77.09-1.08.27-.31.17-.56.43-.74.76-.17.33-.26.73-.26 1.2zm12.94 5.94a4.32 4.32 0 01-4.14-2.43 5.9 5.9 0 01-.57-2.63c0-1 .2-1.88.58-2.64a4.3 4.3 0 011.62-1.79c.7-.43 1.54-.65 2.5-.65.8 0 1.5.15 2.11.45a3.62 3.62 0 012.1 3.08h-2.2c-.1-.47-.31-.87-.65-1.18a1.84 1.84 0 00-1.33-.48c-.48 0-.9.13-1.25.38-.36.25-.64.62-.84 1.1-.2.46-.3 1.03-.3 1.7 0 .66.1 1.24.3 1.72.2.47.47.84.83 1.1.36.26.78.39 1.26.39.34 0 .64-.07.91-.2s.5-.32.68-.57c.19-.24.31-.54.38-.9h2.21a3.63 3.63 0 01-2.06 3.1c-.6.3-1.32.45-2.14.45zm10.45 0c-.98 0-1.83-.2-2.55-.61-.71-.42-1.26-1-1.64-1.75a5.86 5.86 0 01-.58-2.68c0-1.01.2-1.9.58-2.66a4.35 4.35 0 014.07-2.44c.6 0 1.18.1 1.71.3.54.19 1.02.49 1.43.9.42.4.75.91.99 1.54.24.62.36 1.36.36 2.22v.71h-8.05v-1.56h5.83c0-.44-.1-.83-.29-1.18a2.1 2.1 0 00-.79-.82c-.33-.2-.72-.3-1.16-.3-.47 0-.89.11-1.25.34-.35.23-.63.53-.83.9-.2.36-.3.77-.3 1.2v1.37c0 .57.1 1.06.3 1.47.22.4.51.71.88.93.38.21.82.32 1.32.32.34 0 .64-.05.92-.14.27-.1.5-.24.7-.43.2-.19.36-.42.46-.7l2.16.25c-.14.57-.4 1.07-.78 1.5a3.8 3.8 0 01-1.46.98c-.59.23-1.27.34-2.03.34z" fill="#404040"/><path d="M498 534l7 7-7 7" stroke="#B9B9B9" stroke-width="1.5" stroke-linecap="round" stroke-linejoin="round"/><path d="M222.26 451.41a5.9 5.9 0 013.73 9.2 7.6 7.6 0 01-10.53 1.9 7.6 7.6 0 01-1.9-10.53.96.96 0 111.59 1.1 5.65 5.65 0 009.27 6.44 4 4 0 00-6.56-4.56 2.34 2.34 0 002.33 3.64c.62-.1 1.15-.46 1.5-.97.11-.15.15-.34.12-.5a.62.62 0 00-.3-.45.7.7 0 00-.95.18.97.97 0 11-1.6-1.11 2.63 2.63 0 014.73 1.02 2.6 2.6 0 01-.42 1.97 4.23 4.23 0 01-5.94 1.05 4.29 4.29 0 01-1.07-5.94 6 6 0 016-2.44z" fill="#33F"/><mask id="b" fill="#fff"><path d="M220.83 445.04c1.06.05 2.13.23 3.15.54l2.2.87c1.7.85 3.18 2.05 4.27 3.49 1.78 2.37 2.76 6.5 2.27 9.63a21.97 21.97 0 01-3.32 8.07c-.91 1.24-1.35 2.13-1.39 2.8-.12 2.54.44 5.02 2.02 8.83l.26.41c.2.3.1.72-.2.92-.3.2-.19.15-.9.13l-16.22-.02a.67.67 0 01-.53-1.06l.35-.47c.25-.52.36-.73.44-1.47a8.2 8.2 0 00-.32-3.16c-.04-.08-.3-.28-.65-.29-.34 0-.7.03-1.07.07h-.02c-.85.08-1.9.19-3.32-.08a2.05 2.05 0 01-1.36-.91c-.64-1-.43-2.44-.25-3.2l.02-.08-.1-.13c-.2-.23-.51-.62-.5-1.21v-.02c-.01-.16 0-.37.06-.6-.58-.88-.16-1.77-.01-2.09l.04-.09.06-.13c-.51-.17-1.63-.6-1.8-1.84-.13-1.02.56-2.04 1.73-3.6l.24-.33c.83-1.12.77-1.65.6-2.03-.54-1.27-.3-2.08-.05-2.94.06-.23.1-.5.16-.85l.1-.58a9.98 9.98 0 014.36-6.66c2.38-1.53 5.36-2.12 9.68-1.92z"/></mask><path d="M220.83 445.04c1.06.05 2.13.23 3.15.54l2.2.87c1.7.85 3.18 2.05 4.27 3.49 1.78 2.37 2.76 6.5 2.27 9.63a21.97 21.97 0 01-3.32 8.07c-.91 1.24-1.35 2.13-1.39 2.8-.12 2.54.44 5.02 2.02 8.83l.26.41c.2.3.1.72-.2.92-.3.2-.19.15-.9.13l-16.22-.02a.67.67 0 01-.53-1.06l.35-.47c.25-.52.36-.73.44-1.47a8.2 8.2 0 00-.32-3.16c-.04-.08-.3-.28-.65-.29-.34 0-.7.03-1.07.07h-.02 0c-.85.08-1.9.19-3.32-.08a2.05 2.05 0 01-1.36-.91c-.64-1-.43-2.44-.25-3.2l.02-.08-.1-.13c-.2-.23-.51-.62-.5-1.21v-.02c-.01-.16 0-.37.06-.6-.58-.88-.16-1.77-.01-2.09h0l.04-.09.06-.13c-.51-.17-1.63-.6-1.8-1.84-.13-1.02.56-2.04 1.73-3.6l.24-.33c.83-1.12.77-1.65.6-2.03-.54-1.27-.3-2.08-.05-2.94h0c.06-.23.1-.5.16-.85l.1-.58a9.98 9.98 0 014.36-6.66c2.38-1.53 5.36-2.12 9.68-1.92z" stroke="#33F" stroke-width="3.5" mask="url(#b)"/><rect x="190" y="658" width="335" height="70" rx="5" fill="#fff"/><path d="M253.66 686.9V700h-2.37v-13.1h2.37zm2.47 13.1v-9.82h2.21v1.67h.12c.2-.56.54-1 1.01-1.32a2.96 2.96 0 011.7-.48c.66 0 1.22.17 1.68.49.46.32.78.76.97 1.31h.1c.22-.55.58-.98 1.1-1.3.52-.33 1.13-.5 1.85-.5a3 3 0 012.2.86c.58.57.87 1.4.87 2.5V700h-2.32v-6.23c0-.61-.17-1.06-.5-1.34a1.73 1.73 0 00-1.18-.43c-.56 0-1 .18-1.31.53-.31.34-.47.8-.47 1.35V700h-2.27v-6.33c0-.5-.15-.91-.46-1.21-.3-.3-.7-.46-1.19-.46a1.78 1.78 0 00-1.56.97c-.16.3-.24.65-.24 1.06V700h-2.31zm16.15 0v-9.82h2.21v1.67h.12c.2-.56.54-1 1.02-1.32a2.96 2.96 0 011.69-.48c.66 0 1.23.17 1.68.49.46.32.79.76.97 1.31h.1c.22-.55.59-.98 1.1-1.3.52-.33 1.14-.5 1.85-.5.9 0 1.64.29 2.21.86.57.57.86 1.4.86 2.5V700h-2.32v-6.23c0-.61-.16-1.06-.49-1.34a1.73 1.73 0 00-1.19-.43c-.55 0-1 .18-1.3.53-.32.34-.47.8-.47 1.35V700h-2.27v-6.33c0-.5-.16-.91-.46-1.21-.3-.3-.7-.46-1.2-.46a1.79 1.79 0 00-1.56.97c-.15.3-.23.65-.23 1.06V700h-2.32zm16.16 0v-9.82h2.31V700h-2.31zm1.16-11.21c-.37 0-.69-.12-.95-.37a1.18 1.18 0 01-.4-.88c0-.35.14-.65.4-.9.27-.24.58-.36.95-.36s.68.12.94.37c.26.24.4.54.4.89 0 .34-.14.64-.4.88-.26.25-.57.37-.94.37zm7.8 15.06c-.83 0-1.54-.11-2.14-.33a3.84 3.84 0 01-1.44-.9 3.07 3.07 0 01-.75-1.21l2.08-.5c.1.17.23.35.4.53.19.19.43.34.73.46.3.13.7.2 1.16.2.66 0 1.2-.16 1.63-.48.43-.31.64-.82.64-1.52v-1.86h-.11c-.12.23-.3.48-.53.73a2.7 2.7 0 01-.9.63c-.37.17-.83.26-1.4.26-.75 0-1.43-.18-2.05-.53a3.8 3.8 0 01-1.46-1.6 5.92 5.92 0 01-.53-2.67c0-1.08.18-1.99.53-2.73.37-.75.86-1.31 1.47-1.7a3.76 3.76 0 013.47-.28c.37.19.67.42.9.7.22.26.38.52.5.75h.13v-1.62H302v9.98c0 .82-.2 1.5-.6 2.05-.4.55-.95.96-1.65 1.23-.69.27-1.48.4-2.36.4zm.02-5.8c.49 0 .9-.13 1.25-.36.35-.24.6-.59.79-1.03.18-.45.27-.99.27-1.61a4.5 4.5 0 00-.27-1.63 2.31 2.31 0 00-.78-1.08 2.02 2.02 0 00-1.26-.39c-.52 0-.95.14-1.3.4-.34.27-.6.64-.77 1.11-.18.46-.26 1-.26 1.59 0 .6.08 1.12.26 1.58.18.44.44.8.78 1.04.35.25.78.37 1.29.37zm6.96 1.95v-9.82h2.24v1.64h.1a2.45 2.45 0 012.43-1.78 5.73 5.73 0 01.83.07v2.12a4.27 4.27 0 00-1.07-.13c-.43 0-.8.1-1.14.27a2.02 2.02 0 00-1.08 1.86V700h-2.31zm9.77.2a4.1 4.1 0 01-1.68-.33c-.5-.23-.89-.56-1.18-1a2.92 2.92 0 01-.43-1.63c0-.55.1-1 .31-1.37.2-.36.48-.65.84-.87.35-.22.75-.38 1.2-.5.44-.1.9-.19 1.38-.24a55.7 55.7 0 001.4-.16c.36-.05.62-.13.78-.23.17-.1.25-.27.25-.5v-.03c0-.48-.14-.86-.43-1.12-.28-.26-.7-.4-1.23-.4-.57 0-1.02.13-1.35.38-.33.24-.55.53-.67.87l-2.16-.3a3.46 3.46 0 012.28-2.4 6.12 6.12 0 013.3-.14c.47.1.9.28 1.28.54.39.25.7.6.94 1.03.23.43.35.98.35 1.63V700h-2.22v-1.35h-.08a2.81 2.81 0 01-1.54 1.34c-.38.14-.83.2-1.34.2zm.6-1.7c.46 0 .87-.1 1.2-.28.35-.18.61-.43.8-.74.18-.3.27-.64.27-1v-1.16c-.07.06-.2.12-.37.17a16.92 16.92 0 01-1.75.31c-.34.05-.65.12-.92.23-.28.1-.5.26-.65.45a1.1 1.1 0 00-.24.73c0 .42.16.75.47.96.31.22.7.33 1.19.33zm11.81-8.32v1.8h-5.64v-1.8h5.64zm-4.25-2.35h2.32v9.22c0 .3.04.55.14.71.1.16.22.28.38.34.16.05.33.08.52.08a2.28 2.28 0 00.68-.08l.4 1.8a4.97 4.97 0 01-1.37.23c-.58.02-1.1-.07-1.57-.26-.46-.2-.83-.5-1.1-.9a2.7 2.7 0 01-.4-1.54v-9.6zM328.5 700v-9.82h2.31V700h-2.31zm1.16-11.21c-.37 0-.69-.12-.95-.37a1.18 1.18 0 01-.4-.88c0-.35.14-.65.4-.9.27-.24.58-.36.95-.36s.68.12.94.37c.26.24.4.54.4.89 0 .34-.13.64-.4.88-.26.25-.57.37-.94.37zm7.81 11.4c-.96 0-1.79-.2-2.49-.63a4.3 4.3 0 01-1.64-1.77 5.83 5.83 0 01-.57-2.66c0-1.01.2-1.9.57-2.67a4.3 4.3 0 011.64-1.77c.7-.43 1.53-.64 2.5-.64.95 0 1.78.22 2.49.64.7.42 1.24 1.01 1.63 1.77.38.77.58 1.65.58 2.67 0 1.01-.2 1.9-.58 2.66a4.24 4.24 0 01-1.63 1.77c-.7.42-1.54.63-2.5.63zm.02-1.85a2 2 0 001.3-.43c.35-.29.61-.68.78-1.16.18-.49.26-1.03.26-1.63 0-.6-.08-1.14-.26-1.63a2.57 2.57 0 00-.78-1.17 1.97 1.97 0 00-1.3-.43c-.54 0-.98.14-1.33.43-.35.3-.62.68-.79 1.17a4.89 4.89 0 00-.25 1.63c0 .6.08 1.14.25 1.63.18.48.44.87.79 1.16.35.29.8.43 1.33.43zm8.97-4.1V700h-2.32v-9.82h2.21v1.67h.12a2.8 2.8 0 011.08-1.31c.5-.32 1.11-.49 1.85-.49.67 0 1.26.15 1.77.44.5.29.9.7 1.17 1.26.28.55.42 1.21.42 2V700h-2.31v-5.9c0-.65-.18-1.16-.52-1.53a1.8 1.8 0 00-1.4-.56c-.4 0-.76.09-1.08.27-.3.17-.55.43-.73.76-.18.33-.26.73-.26 1.2z" fill="#404040"/><path d="M498 686l7 7-7 7" stroke="#B9B9B9" stroke-width="1.5" stroke-linecap="round" stroke-linejoin="round"/><rect x="205" y="531" width="4" height="21" rx="1" stroke="#33F" stroke-width="1.75"/><rect x="230" y="541" width="4" height="11" rx="1" stroke="#33F" stroke-width="1.75"/><path stroke="#33F" stroke-width="1.75" d="M209 544h21v4h-21z"/><rect x="209" y="540" width="8" height="4" rx="2" stroke="#33F" stroke-width="1.75"/><rect x="190" y="354" width="335" height="70" rx="5" fill="#fff"/><path d="M251.3 396v-13.1h4.9c1 0 1.85.2 2.53.57.69.38 1.2.9 1.56 1.55.35.65.52 1.4.52 2.22 0 .84-.17 1.59-.52 2.24a3.8 3.8 0 01-1.57 1.54c-.7.37-1.54.56-2.55.56h-3.26v-1.95h2.94a3 3 0 001.44-.31c.38-.2.65-.49.83-.84.19-.36.28-.77.28-1.24 0-.46-.1-.87-.28-1.22a1.87 1.87 0 00-.83-.83c-.38-.2-.86-.3-1.45-.3h-2.18V396h-2.37zm13.79-5.75V396h-2.32v-13.1h2.27v4.95h.11c.23-.55.59-1 1.07-1.31.48-.32 1.1-.49 1.85-.49.68 0 1.28.15 1.79.43.5.29.9.7 1.17 1.25.28.56.42 1.23.42 2.02V396h-2.31v-5.9c0-.65-.17-1.17-.51-1.53a1.82 1.82 0 00-1.42-.56c-.41 0-.78.09-1.1.27-.32.17-.57.43-.75.76-.18.33-.27.73-.27 1.2zm9.8 9.41a4.69 4.69 0 01-1.5-.25l.54-1.8c.5.15.92.18 1.26.08.35-.1.63-.41.85-.95l.2-.54-3.56-10.02h2.45l2.27 7.42h.1l2.27-7.42 2.47.01-3.94 11c-.18.51-.43.95-.73 1.32-.3.37-.67.66-1.11.85-.44.2-.96.3-1.56.3zm16.72-10.88l-2.11.23a1.7 1.7 0 00-.9-1.06 2.14 2.14 0 00-.9-.17c-.5 0-.9.1-1.22.31-.33.21-.49.48-.48.81 0 .29.1.52.31.7.22.18.57.33 1.07.44l1.68.36c.93.2 1.62.52 2.07.95.46.44.69 1 .69 1.71 0 .62-.19 1.16-.54 1.64-.36.47-.85.83-1.48 1.1-.63.26-1.36.4-2.17.4-1.2 0-2.17-.26-2.9-.76a3.04 3.04 0 01-1.32-2.12l2.26-.22c.1.45.32.78.65 1 .33.23.77.35 1.3.35.55 0 1-.12 1.32-.34.34-.23.5-.5.5-.84 0-.28-.1-.51-.32-.7a2.28 2.28 0 00-1-.42l-1.67-.35a3.99 3.99 0 01-2.09-.99 2.44 2.44 0 01-.67-1.78c0-.6.16-1.13.5-1.57.33-.45.8-.8 1.4-1.03.6-.25 1.29-.38 2.07-.38 1.15 0 2.05.25 2.71.74a3.1 3.1 0 011.24 1.99zm2.12 7.22v-9.82h2.31V396h-2.31zm1.16-11.21c-.37 0-.69-.12-.95-.37a1.18 1.18 0 01-.4-.88c0-.35.14-.65.4-.9.27-.24.58-.36.95-.36s.68.12.94.37c.27.24.4.54.4.89 0 .34-.13.64-.4.88-.26.25-.57.37-.94.37zm7.81 11.4a4.3 4.3 0 01-4.14-2.43 5.9 5.9 0 01-.56-2.63c0-1 .2-1.88.57-2.64.39-.77.93-1.36 1.63-1.79.7-.43 1.53-.65 2.5-.65.79 0 1.5.15 2.1.44a3.62 3.62 0 012.11 3.1h-2.21a2.1 2.1 0 00-.64-1.19 1.84 1.84 0 00-1.34-.48c-.47 0-.89.13-1.24.38-.36.25-.64.62-.84 1.1-.2.46-.3 1.03-.3 1.7 0 .66.1 1.23.3 1.72.2.47.47.84.82 1.1.36.26.78.39 1.26.39.34 0 .65-.07.92-.2s.5-.32.68-.56c.18-.25.31-.55.38-.9h2.21a3.62 3.62 0 01-2.06 3.1c-.6.3-1.32.44-2.15.44zm8.94 0a4.1 4.1 0 01-1.69-.32c-.49-.23-.88-.56-1.17-1a2.92 2.92 0 01-.43-1.63c0-.55.1-1 .3-1.37.21-.36.49-.65.84-.87.36-.22.76-.38 1.2-.5.45-.1.9-.19 1.39-.24l1.4-.16c.35-.05.61-.13.78-.23.16-.1.25-.27.25-.5v-.03c0-.48-.15-.85-.43-1.12-.29-.26-.7-.4-1.24-.4-.56 0-1.01.13-1.34.38-.33.24-.56.53-.67.87l-2.16-.3a3.46 3.46 0 012.28-2.4 6.1 6.1 0 013.3-.14c.46.1.89.28 1.28.54.39.25.7.6.93 1.03.24.43.36.98.36 1.63V396h-2.22v-1.35h-.08a2.83 2.83 0 01-1.55 1.34c-.38.14-.82.2-1.34.2zm.6-1.7c.46 0 .86-.08 1.2-.27.35-.18.6-.43.79-.74.19-.3.28-.64.28-1v-1.16c-.07.06-.2.12-.37.17a16.64 16.64 0 01-1.75.31 4 4 0 00-.93.23c-.27.1-.48.26-.64.45-.16.19-.24.43-.24.73 0 .42.16.75.47.96.3.22.7.33 1.19.33zm9.22-11.58V396h-2.31v-13.1h2.31zm8.7 0l3.4 10.3h.14l3.4-10.3h2.6L335.1 396h-2.94l-4.6-13.1h2.6zM341.33 396v-9.82h2.31V396h-2.31zm1.16-11.21c-.37 0-.69-.12-.95-.37a1.18 1.18 0 01-.39-.88c0-.35.13-.65.4-.9.26-.24.58-.36.94-.36.37 0 .68.12.94.37.27.24.4.54.4.89 0 .34-.13.64-.4.88-.26.25-.57.37-.94.37zm7.82 11.4c-.96 0-1.8-.2-2.5-.63a4.3 4.3 0 01-1.63-1.77 5.83 5.83 0 01-.58-2.66c0-1.01.2-1.9.58-2.67a4.3 4.3 0 011.63-1.77c.7-.43 1.54-.64 2.5-.64.95 0 1.79.21 2.49.64.7.42 1.25 1.01 1.63 1.77.39.77.58 1.66.58 2.67s-.2 1.9-.58 2.66a4.24 4.24 0 01-1.63 1.77c-.7.42-1.54.63-2.5.63zm0-1.85a2 2 0 001.31-.43c.35-.29.61-.68.78-1.16.18-.49.26-1.03.26-1.63 0-.6-.08-1.14-.26-1.63a2.57 2.57 0 00-.78-1.17 1.97 1.97 0 00-1.3-.43c-.53 0-.98.14-1.33.43-.35.3-.61.68-.79 1.17a4.89 4.89 0 00-.25 1.63c0 .6.08 1.14.25 1.63.18.48.44.87.79 1.16.35.28.8.43 1.33.43zm8.98-11.43V396h-2.32v-13.1h2.32zm6.72 13.28c-.98 0-1.83-.2-2.55-.61-.7-.41-1.26-1-1.64-1.75a5.86 5.86 0 01-.57-2.68c0-1.01.19-1.9.57-2.66a4.35 4.35 0 014.07-2.44c.6 0 1.18.1 1.72.3.54.19 1.01.49 1.43.9.41.4.74.91.98 1.54.24.62.36 1.36.36 2.22v.71h-8.05v-1.56h5.83c0-.44-.1-.83-.29-1.18a2.08 2.08 0 00-.78-.82c-.33-.2-.72-.3-1.16-.3-.48 0-.9.11-1.25.34-.36.23-.64.53-.84.9-.2.36-.3.77-.3 1.2v1.37c0 .57.1 1.06.31 1.47.21.4.5.71.88.93.37.21.81.32 1.32.32.33 0 .64-.05.91-.14.27-.1.5-.24.71-.43.2-.19.35-.42.45-.7l2.16.25c-.13.57-.4 1.07-.78 1.5a3.8 3.8 0 01-1.45.98c-.6.23-1.27.34-2.04.34zm8.64-5.94V396h-2.31v-9.82h2.2v1.67h.12a2.8 2.8 0 011.08-1.31c.5-.32 1.12-.49 1.85-.49.68 0 1.27.15 1.77.44.5.29.9.7 1.18 1.26.28.55.42 1.21.41 2V396h-2.31v-5.9a2.2 2.2 0 00-.51-1.53 1.8 1.8 0 00-1.4-.56c-.4 0-.77.09-1.08.27-.31.17-.56.43-.74.76-.17.33-.26.73-.26 1.2zm12.94 5.94a4.3 4.3 0 01-4.14-2.43 5.9 5.9 0 01-.57-2.63c0-1 .2-1.88.58-2.64.38-.77.92-1.36 1.62-1.79.7-.43 1.54-.65 2.5-.65.8 0 1.5.15 2.11.44a3.6 3.6 0 012.1 3.1h-2.2a2.1 2.1 0 00-.65-1.19 1.84 1.84 0 00-1.33-.48c-.48 0-.9.13-1.25.38-.36.25-.64.62-.84 1.1-.2.46-.29 1.03-.29 1.7 0 .66.1 1.23.3 1.72.19.47.47.84.82 1.1.36.26.78.39 1.26.39.34 0 .64-.07.91-.2.28-.13.5-.32.69-.56.18-.25.3-.55.37-.9h2.22a3.63 3.63 0 01-2.06 3.1c-.61.3-1.33.44-2.15.44zm10.45 0c-.98 0-1.83-.2-2.55-.61-.71-.41-1.26-1-1.64-1.75a5.88 5.88 0 01-.58-2.68c0-1.01.2-1.9.58-2.66a4.35 4.35 0 014.07-2.44c.6 0 1.18.1 1.71.3.54.19 1.02.49 1.44.9.41.4.74.91.98 1.54.24.62.36 1.36.36 2.22v.71h-8.05v-1.56h5.83c0-.44-.1-.83-.29-1.18a2.08 2.08 0 00-.78-.82c-.34-.2-.73-.3-1.17-.3-.47 0-.89.11-1.25.34-.35.23-.63.53-.83.9-.2.36-.3.77-.3 1.2v1.37c0 .57.1 1.06.31 1.47.21.4.5.71.88.93.37.21.81.32 1.31.32.34 0 .64-.05.92-.14.27-.1.5-.24.7-.43.2-.19.36-.42.46-.7l2.16.25c-.13.57-.4 1.07-.78 1.5a3.8 3.8 0 01-1.46.98c-.59.23-1.27.34-2.03.34z" fill="#404040"/><path d="M498 382l7 7-7 7" stroke="#B9B9B9" stroke-width="1.5" stroke-linecap="round" stroke-linejoin="round"/><path d="M209.69 394.08a3.93 3.93 0 006.68 1.36c1.09 2.35 3.53 2.23 3.6 2.25v.6c0 1.5 1.21 2.7 2.74 2.7 0 0 0 0 0 0 3.23-.14 4.91.42 7.1-.83l.05-.04.17-.1c2.51-1.33 3.78-3.25 3.78-5.65.05-.49.41-4.85-.02-6.4-.47-1.74-2.98-5.38-3.96-6.8-1.76-2.82-4.09-.76-7.07-2.27-1.82-.91-3.58-1.3-5.58-.37-1.3.4-1.12 1.07-4.38 1-1.86-.06-3.37.01-4.36 1.72-.68 1.2-1.94 1.06-2 1.07a3.42 3.42 0 00-3.44 3.4v5.68c0 3.4 4.23 5.16 6.69 2.69zm20.63-.25c-.05-4.22-.02-6.81 0-8.53l.01-1.08c1.06 1.63 1.99 3.24 2.22 4.08.31 1.13.09 4.69-.03 6.02 0 2.62-1.77 3.87-3.1 4.58a2.7 2.7 0 00-.3.18c-1.78 1-3.29.5-6.44.63-1.76 0-1.4-2.15-1.43-2.25.7-.26 1.47-.82 1.92-1.5 2.1 3.14 7.15 1.73 7.15-2.13zm-26.03-8.12c0-1.16.96-2.11 2.15-2.11.06-.02 2.06.16 3.13-1.72.79-1.37 2.13-1.07 4-1.07 2.5 0 3.27-.82 4.16-1.12 3.12-1.44 3.98 1.12 7.84 1.12 1.36.08 2.37-.28 3.18 1.05.2.35.31 12.06.22 12.5-.62 3-5.15 2.55-5.15-.52V387.36a.64.64 0 00-.65-.63.64.64 0 00-.64.63v6.5c-.01 1.25-.94 2.47-2.62 2.56a2.6 2.6 0 01-2.6-2.58v-6.48a.64.64 0 00-.65-.63.64.64 0 00-.64.63v5.57c0 2.27-2.79 3.45-4.46 1.81-.84-.82-.75-1.74-.76-1.81v-5.57a.64.64 0 00-.64-.63.64.64 0 00-.65.63v4.04c0 2.28-2.82 3.42-4.45 1.82-1.27-1.26-.57-2.5-.77-7.5z" fill="#33F" stroke="#33F" stroke-width=".75"/><path d="M226.5 607.07l-4.13-2.26v-1.57h.65a.66.66 0 00.66-.66v-3.93a.65.65 0 00-.66-.65h-10.47a.65.65 0 00-.66.65v3.93a.65.65 0 00.66.66h.65v1.57l-4.13 2.26a5.9 5.9 0 00-3.07 5.17v17.84a4.6 4.6 0 004.58 4.59h14.4a4.6 4.6 0 004.6-4.59v-17.84a5.88 5.88 0 00-3.08-5.17zm-13.3-7.76h9.17v2.62h-9.17v-2.62zm-3.5 8.9l4.13-2.25a1.3 1.3 0 00.68-1.15v-1.57h6.55v1.57a1.3 1.3 0 00.68 1.15l4.13 2.26a4.58 4.58 0 012.4 4.02v.16H207.3v-.16a4.57 4.57 0 012.39-4.02zm18.56 21.22h-20.95V612.4h20.95v17.02zm-3.27 3.93h-14.4a3.27 3.27 0 01-3.28-3.28v-.65h20.95v.65a3.28 3.28 0 01-3.27 3.28zm-12.76-8.74l1.85 1.85a.66.66 0 00.93 0l2.78-2.78 2.77 2.78a.66.66 0 00.93 0l1.85-1.85a.66.66 0 000-.93l-2.78-2.77 2.78-2.78a.66.66 0 000-.93l-1.85-1.85a.66.66 0 00-.93 0l-2.77 2.78-2.78-2.78a.66.66 0 00-.93 0l-1.85 1.85a.65.65 0 000 .93l2.78 2.78-2.78 2.77a.66.66 0 000 .93zm4.17-3.24a.67.67 0 00.19-.46.68.68 0 00-.05-.25.67.67 0 00-.14-.22l-2.78-2.77.92-.93 2.78 2.78a.67.67 0 00.93 0l2.78-2.78.92.93-2.77 2.77a.66.66 0 00-.15.72c.04.08.08.15.15.21l2.77 2.78-.92.92-2.78-2.78a.67.67 0 00-.46-.19.68.68 0 00-.25.05.67.67 0 00-.22.14l-2.78 2.78-.92-.92 2.78-2.78z" fill="#33F"/><path d="M222.37 604.81l4.13 2.26a5.9 5.9 0 013.07 5.17v17.84a4.59 4.59 0 01-4.58 4.59h-14.4a4.6 4.6 0 01-4.59-4.59v-17.84a5.9 5.9 0 013.07-5.17l4.13-2.26v-1.57h-.65a.65.65 0 01-.66-.66v-3.93a.65.65 0 01.66-.65h10.47a.66.66 0 01.66.65v3.93a.65.65 0 01-.66.66h-.65v1.57zm0 0h-.66m6.55 7.6v-.17a4.59 4.59 0 00-2.39-4.02l-4.13-2.26a1.3 1.3 0 01-.68-1.15v-1.57h-6.55v1.57a1.3 1.3 0 01-.68 1.15l-4.13 2.26a4.59 4.59 0 00-2.39 4.02v.16m20.95 0h-20.95m20.95 0v17.03m-20.95-17.02v17.02m20.95 0h-20.95m20.95 0v.65a3.28 3.28 0 01-3.27 3.28h-14.4a3.27 3.27 0 01-3.28-3.28v-.65m5.9-30.12h9.16v2.62h-9.17v-2.62zm-.98 25.31l1.85 1.85a.66.66 0 00.93 0l2.78-2.78 2.77 2.78a.66.66 0 00.93 0l1.85-1.85a.66.66 0 000-.93l-2.78-2.77 2.78-2.78a.66.66 0 000-.93l-1.85-1.85a.66.66 0 00-.93 0l-2.77 2.78-2.78-2.78a.66.66 0 00-.93 0l-1.85 1.85a.65.65 0 000 .93l2.78 2.78-2.78 2.77a.66.66 0 000 .93zm4.17-3.24a.67.67 0 00.19-.46.68.68 0 00-.05-.25.67.67 0 00-.14-.22l-2.78-2.77.92-.93 2.78 2.78a.67.67 0 00.93 0l2.78-2.78.92.93-2.77 2.77a.66.66 0 00-.15.72c.04.08.08.15.15.21l2.77 2.78-.92.92-2.78-2.78a.67.67 0 00-.46-.19.68.68 0 00-.25.05.67.67 0 00-.22.14l-2.78 2.78-.92-.92 2.78-2.78z" stroke="#33F" stroke-width=".25"/><rect x="204.88" y="682.88" width="29.56" height="20.25" rx="1.13" stroke="#33F" stroke-width="1.75" stroke-linejoin="round"/><path d="M213.06 693a2.56 2.56 0 110-5.11 2.56 2.56 0 010 5.11zm0-4.68a2.13 2.13 0 100 4.26 2.13 2.13 0 000-4.26z" fill="#000" stroke="#33F" stroke-width="1.25"/><rect x="221.44" y="687.89" width="7.3" height="1.46" rx=".73" fill="#33F"/><rect x="221.44" y="690.81" width="9.48" height="1.46" rx=".73" fill="#33F"/><rect x="221.44" y="693.73" width="9.48" height="1.46" rx=".73" fill="#33F"/><rect x="221.44" y="696.65" width="9.48" height="1.46" rx=".73" fill="#33F"/><path fill-rule="evenodd" clip-rule="evenodd" d="M217.8 698.41c0-2.18-2.37-3.95-4.75-3.95-2.37 0-4.74 1.77-4.74 3.95h.66c0-1.81 1.77-3.3 4.09-3.3 2.37 0 4.08 1.49 4.08 3.3h.66z" fill="#000"/><path d="M217.8 698.41v.5h.5v-.5h-.5zm-9.49 0h-.5v.5h.5v-.5zm.66 0v.5h.5v-.5h-.5zm8.17 0h-.5v.5h.5v-.5zm-4.08-3.45c1.06 0 2.14.4 2.94 1.05.8.64 1.3 1.5 1.3 2.4h1c0-1.28-.7-2.4-1.67-3.18a5.8 5.8 0 00-3.57-1.27v1zm-4.25 3.45c0-.9.5-1.75 1.3-2.4a4.8 4.8 0 012.94-1.05v-1c-1.3 0-2.6.49-3.57 1.27a4.15 4.15 0 00-1.67 3.18h1zm-.5.5h.66v-1h-.66v1zm4.75-4.3c-2.5 0-4.59 1.62-4.59 3.8h1c0-1.45 1.44-2.8 3.59-2.8v-1zm4.58 3.8c0-2.18-2.03-3.8-4.58-3.8v1c2.19 0 3.58 1.35 3.58 2.8h1zm-.5.5h.66v-1h-.66v1zM207 611h22v1.5h-22zM207 629h22v1.5h-22z" fill="#33F"/></g></svg>