<svg width="375" height="642" fill="none" xmlns="http://www.w3.org/2000/svg"><path d="M0 134h375V42a40 40 0 00-40-40H40A40 40 0 000 42v92z" fill="#000"/><path fill="#33F" d="M0 672h375V60H0z"/><circle cx="187" cy="30" r="8" fill="#575757"/><path fill-rule="evenodd" clip-rule="evenodd" d="M164.98 94.87c0 3.99 2.85 6.84 6.66 6.84 2.82 0 3.99-1.26 4.5-1.98h.36v2.4c0 2.4-1.41 3.72-3.9 3.72-1.9 0-3-.96-3.32-2.28l-3.86 1.15c.83 2.98 3.57 4.67 7.18 4.67 4.47 0 7.86-2.55 7.86-7.5v-7.35c0-4.11-3.27-7.02-7.68-6.96-4.56.06-7.8 2.94-7.8 7.29zm7.74 3.75c-2.25 0-3.78-1.47-3.78-3.75 0-2.28 1.59-3.75 3.78-3.75 2.19 0 3.78 1.41 3.78 3.75 0 2.28-1.53 3.75-3.78 3.75zM186.77 88l-5.4 9.48h4.14l2.94-5.28h.36V109h3.96V88h-6zm7.75 9.48l5.4-9.48h6v21h-3.95V92.2h-.37l-2.94 5.28h-4.13z" fill="#fff"/><path fill="#000" d="M163 99h45v3h-45z"/><path d="M26.74 200l-6.15-21.82h4.25l3.93 16.03h.2l4.2-16.03h3.86l4.21 16.05h.2l3.93-16.05h4.25L43.46 200h-3.9l-4.37-15.3h-.17L30.64 200h-3.9zm29.3-9.59V200H52.2v-21.82h3.77v8.24h.19c.38-.93.98-1.65 1.78-2.19a5.46 5.46 0 013.09-.8c1.13 0 2.13.23 2.97.7.85.48 1.5 1.18 1.96 2.1.47.91.7 2.03.7 3.35V200H62.8v-9.82c0-1.1-.29-1.96-.85-2.57a3.03 3.03 0 00-2.37-.93c-.68 0-1.3.15-1.83.45-.53.3-.95.71-1.26 1.27a4.2 4.2 0 00-.45 2.01zm19.25 9.92a6.82 6.82 0 01-2.8-.55 4.57 4.57 0 01-1.96-1.67 4.86 4.86 0 01-.71-2.7c0-.92.17-1.69.5-2.3.35-.6.82-1.08 1.4-1.44a7.03 7.03 0 012-.82c.74-.2 1.51-.33 2.3-.42l2.34-.26c.6-.09 1.03-.22 1.3-.39.28-.17.42-.45.42-.82v-.06c0-.8-.24-1.43-.72-1.87-.47-.44-1.16-.66-2.05-.66-.95 0-1.7.21-2.25.62-.55.41-.92.9-1.1 1.46l-3.6-.51a5.75 5.75 0 013.8-4 10.24 10.24 0 015.49-.24c.77.19 1.49.49 2.13.92.65.42 1.17.99 1.56 1.71.4.73.6 1.63.6 2.72V200h-3.71v-2.25h-.13a4.7 4.7 0 01-2.58 2.23 6.4 6.4 0 01-2.23.35zm1-2.83c.78 0 1.45-.16 2.02-.46.57-.31 1-.73 1.3-1.24.32-.5.48-1.07.48-1.67v-1.93c-.12.1-.33.2-.62.28-.28.08-.6.16-.96.22a30 30 0 01-1.05.17l-.9.13c-.58.08-1.1.2-1.55.38-.46.18-.82.43-1.08.75-.26.31-.4.72-.4 1.21 0 .72.27 1.25.78 1.61.52.37 1.18.55 1.99.55zM96 183.64v2.98h-9.41v-2.98h9.4zm-7.1-3.92h3.86v15.36c0 .52.08.91.24 1.2.16.26.38.45.64.54.26.1.55.15.87.15a3.73 3.73 0 001.13-.15l.65 3.02a7.24 7.24 0 01-2.27.38 6.29 6.29 0 01-2.6-.43 4.06 4.06 0 01-1.85-1.52 4.5 4.5 0 01-.66-2.55v-16zm23.83 20.57a6.2 6.2 0 01-5.86-3.87 10.72 10.72 0 01-.88-4.58c0-1.82.3-3.35.9-4.6a6.26 6.26 0 015.86-3.81c.95 0 1.74.16 2.36.48.62.32 1.1.71 1.47 1.16.36.45.64.88.84 1.27h.16v-8.16h3.87V200h-3.8v-2.58h-.23c-.2.4-.49.82-.86 1.27a4.77 4.77 0 01-3.83 1.6zm1.08-3.17c.81 0 1.51-.22 2.09-.66a4.13 4.13 0 001.3-1.86c.3-.8.45-1.72.45-2.78a7.7 7.7 0 00-.44-2.76 3.93 3.93 0 00-1.3-1.82 3.36 3.36 0 00-2.1-.65 3.4 3.4 0 00-2.15.67c-.58.45-1.01 1.06-1.3 1.85-.3.8-.44 1.7-.44 2.7a8 8 0 00.44 2.75c.3.8.73 1.42 1.3 1.88.59.46 1.3.68 2.15.68zm18.88 3.2c-1.6 0-2.98-.35-4.15-1.06a7.16 7.16 0 01-2.73-2.95 9.7 9.7 0 01-.96-4.43c0-1.69.32-3.17.96-4.44a7.14 7.14 0 012.73-2.96 7.93 7.93 0 014.15-1.06c1.6 0 2.99.36 4.16 1.06a7.08 7.08 0 012.72 2.96c.64 1.27.97 2.75.97 4.44a9.6 9.6 0 01-.97 4.43 7.1 7.1 0 01-2.72 2.95 7.93 7.93 0 01-4.16 1.06zm.03-3.09c.86 0 1.59-.24 2.17-.71a4.3 4.3 0 001.3-1.94c.29-.81.44-1.71.44-2.7 0-1.01-.15-1.92-.44-2.72a4.3 4.3 0 00-1.3-1.95 3.29 3.29 0 00-2.17-.73c-.9 0-1.63.24-2.22.73a4.37 4.37 0 00-1.31 1.94c-.28.81-.43 1.72-.43 2.72 0 1 .15 1.9.43 2.7.29.82.73 1.46 1.3 1.95.6.47 1.34.71 2.23.71zm20.93 8.87a7.83 7.83 0 01-2.52-.41l.9-3c.83.25 1.54.29 2.1.12.58-.15 1.05-.68 1.42-1.59l.33-.88-5.93-16.7h4.1l3.76 12.35h.17l3.78-12.35 4.13.02-6.58 18.32c-.3.85-.7 1.59-1.21 2.2a4.98 4.98 0 01-1.85 1.42c-.73.34-1.6.5-2.6.5zm21.5-5.78c-1.6 0-2.99-.35-4.16-1.06a7.16 7.16 0 01-2.73-2.95 9.7 9.7 0 01-.96-4.43c0-1.69.32-3.17.96-4.44a7.14 7.14 0 012.73-2.96 7.93 7.93 0 014.16-1.06c1.6 0 2.98.36 4.15 1.06a7.07 7.07 0 012.72 2.96c.64 1.27.97 2.75.97 4.44a9.6 9.6 0 01-.97 4.43 7.09 7.09 0 01-2.72 2.95 7.93 7.93 0 01-4.16 1.06zm.02-3.09c.86 0 1.59-.24 2.17-.71a4.3 4.3 0 001.3-1.94c.29-.81.44-1.71.44-2.7 0-1.01-.15-1.92-.44-2.72a4.3 4.3 0 00-1.3-1.95 3.3 3.3 0 00-2.17-.73c-.9 0-1.63.24-2.22.73a4.37 4.37 0 00-1.31 1.94c-.28.81-.43 1.72-.43 2.72 0 1 .15 1.9.43 2.7.3.82.73 1.46 1.31 1.95.59.47 1.33.71 2.22.71zm21.52-4.11v-9.48h3.85V200h-3.73v-2.9h-.17a4.92 4.92 0 01-1.83 2.24 5.3 5.3 0 01-3.1.87 4.95 4.95 0 01-4.76-2.81 7.41 7.41 0 01-.7-3.34v-10.42h3.87v9.82c0 1.04.28 1.86.85 2.47.57.61 1.31.92 2.23.92a3.53 3.53 0 002.97-1.66c.34-.55.52-1.24.52-2.07zm19.12-2.7V200h-3.86v-16.36h3.69v2.78h.19c.38-.92.98-1.65 1.8-2.19a5.53 5.53 0 013.08-.8 5.8 5.8 0 012.95.72c.85.48 1.5 1.18 1.96 2.1.47.91.7 2.02.7 3.33V200h-3.86v-9.82c0-1.1-.29-1.95-.86-2.57a2.99 2.99 0 00-2.33-.93c-.67 0-1.27.15-1.8.45-.52.3-.93.71-1.22 1.27-.3.55-.44 1.22-.44 2.01zm21.67 9.9a8.43 8.43 0 01-4.25-1.02 6.93 6.93 0 01-2.74-2.92 9.78 9.78 0 01-.96-4.47c0-1.68.32-3.16.96-4.43a7.27 7.27 0 016.79-4.06c1 0 1.96.17 2.85.5.9.31 1.7.81 2.39 1.49a7 7 0 011.64 2.57c.4 1.04.6 2.28.6 3.71v1.18h-13.42v-2.6h9.72c-.01-.74-.17-1.4-.48-1.97a3.48 3.48 0 00-1.31-1.37c-.56-.34-1.2-.5-1.94-.5-.79 0-1.48.19-2.08.57-.6.38-1.06.88-1.4 1.5-.32.6-.49 1.28-.5 2v2.28c0 .95.18 1.76.53 2.45.34.67.83 1.19 1.46 1.55.62.36 1.35.53 2.2.53.55 0 1.06-.07 1.51-.23.46-.16.85-.4 1.19-.71.33-.31.58-.7.75-1.16l3.6.4a5.63 5.63 0 01-1.3 2.5 6.33 6.33 0 01-2.42 1.63 9.3 9.3 0 01-3.4.58zm17.78 0a8.42 8.42 0 01-4.25-1.02 6.92 6.92 0 01-2.74-2.92 9.77 9.77 0 01-.96-4.47c0-1.68.32-3.16.96-4.43a7.25 7.25 0 016.79-4.06c1 0 1.96.17 2.85.5.9.31 1.7.81 2.39 1.49a7 7 0 011.64 2.57c.4 1.04.6 2.28.6 3.71v1.18h-13.41v-2.6h9.71c0-.74-.17-1.4-.48-1.97a3.48 3.48 0 00-1.3-1.37c-.56-.34-1.2-.5-1.95-.5-.79 0-1.48.19-2.07.57-.6.38-1.07.88-1.4 1.5-.33.6-.5 1.28-.5 2v2.28c0 .95.17 1.76.52 2.45.35.67.84 1.19 1.46 1.55.63.36 1.36.53 2.2.53.56 0 1.06-.07 1.52-.23.45-.16.85-.4 1.18-.71.33-.31.59-.7.76-1.16l3.6.4a5.63 5.63 0 01-1.3 2.5 6.33 6.33 0 01-2.43 1.63 9.3 9.3 0 01-3.39.58zm16.61-.03a6.2 6.2 0 01-3.45-1 6.73 6.73 0 01-2.4-2.87 10.74 10.74 0 01-.9-4.58c0-1.82.3-3.35.9-4.6a6.27 6.27 0 015.86-3.81c.96 0 1.75.16 2.37.48.62.32 1.1.71 1.47 1.16.36.45.64.88.84 1.27h.16v-8.16h3.87V200h-3.8v-2.58h-.23c-.2.4-.49.82-.86 1.27a4.75 4.75 0 01-3.83 1.6zm1.08-3.17c.81 0 1.51-.22 2.09-.66a4.13 4.13 0 001.3-1.86c.3-.8.45-1.72.45-2.78 0-1.06-.14-1.98-.44-2.76a3.92 3.92 0 00-1.3-1.82 3.36 3.36 0 00-2.1-.65 3.4 3.4 0 00-2.15.67c-.58.45-1.01 1.06-1.3 1.85-.3.8-.44 1.7-.44 2.7a8 8 0 00.44 2.75c.3.8.73 1.42 1.3 1.88.59.46 1.3.68 2.15.68zm-247.1 33.3V240h-3.86v-21.82h3.77v8.24h.2c.38-.93.97-1.65 1.77-2.19a5.46 5.46 0 013.1-.8c1.13 0 2.12.23 2.97.7.84.48 1.5 1.18 1.96 2.1.46.91.7 2.03.7 3.35V240h-3.86v-9.82c0-1.1-.28-1.96-.85-2.57a3.03 3.03 0 00-2.36-.93c-.69 0-1.3.15-1.84.45-.53.3-.95.71-1.25 1.27a4.2 4.2 0 00-.45 2.01zm21.78 9.9a8.43 8.43 0 01-4.25-1.02 6.93 6.93 0 01-2.73-2.92 9.77 9.77 0 01-.96-4.47c0-1.68.32-3.16.96-4.43a7.26 7.26 0 016.78-4.06c1.01 0 1.96.17 2.86.5.9.31 1.7.81 2.38 1.49a7 7 0 011.64 2.57c.4 1.04.6 2.28.6 3.71v1.18H41.5v-2.6h9.71c0-.74-.16-1.4-.48-1.97a3.49 3.49 0 00-1.3-1.37c-.56-.34-1.2-.5-1.94-.5-.8 0-1.49.19-2.08.57-.6.38-1.06.88-1.4 1.5a4.3 4.3 0 00-.5 2v2.28c0 .95.18 1.76.52 2.45.35.67.84 1.19 1.46 1.55.63.36 1.36.53 2.2.53.56 0 1.07-.07 1.52-.23.46-.16.85-.4 1.18-.71.34-.31.59-.7.76-1.16l3.6.4a5.62 5.62 0 01-1.3 2.5 6.33 6.33 0 01-2.43 1.63 9.3 9.3 0 01-3.39.58zm14.4-22.14V240h-3.86v-21.82h3.86zm3.97 27.96v-22.5h3.79v2.7H70c.2-.4.48-.82.84-1.27.37-.45.86-.84 1.47-1.16.62-.32 1.41-.49 2.37-.49a6.23 6.23 0 015.85 3.82c.6 1.25.9 2.78.9 4.6 0 1.8-.3 3.32-.88 4.58a6.73 6.73 0 01-2.4 2.88 6.2 6.2 0 01-3.46.99 4.76 4.76 0 01-3.82-1.6 7.32 7.32 0 01-.87-1.27h-.16v8.72H66zm3.78-14.32c0 1.06.15 1.98.44 2.78.31.8.75 1.42 1.32 1.86.57.44 1.27.66 2.08.66.86 0 1.57-.22 2.14-.68a4.2 4.2 0 001.3-1.88c.3-.8.45-1.72.45-2.74 0-1.02-.14-1.92-.44-2.7-.29-.8-.72-1.41-1.3-1.86a3.4 3.4 0 00-2.15-.67c-.82 0-1.52.21-2.1.65a4 4 0 00-1.3 1.82 7.9 7.9 0 00-.44 2.76zM95.55 240l-4.62-16.36h3.93l2.88 11.5h.15l2.94-11.5h3.89l2.94 11.44h.16l2.83-11.44h3.94L109.96 240h-4.02l-3.07-11.06h-.22L99.58 240h-4.03zm21.73 0v-16.36h3.86V240h-3.86zm1.94-18.69c-.61 0-1.14-.2-1.58-.6-.44-.42-.65-.9-.65-1.48 0-.59.22-1.08.66-1.48.44-.42.96-.62 1.57-.62.61 0 1.14.2 1.57.62.44.4.66.9.66 1.48 0 .57-.22 1.06-.66 1.48-.43.4-.96.6-1.57.6zm14.06 2.33v2.98h-9.4v-2.98h9.4zm-7.09-3.92h3.86v15.36c0 .52.08.91.23 1.2.17.26.38.45.64.54.27.1.56.15.88.15a3.72 3.72 0 001.13-.15l.65 3.02a7.25 7.25 0 01-2.27.38 6.29 6.29 0 01-2.61-.43 4.06 4.06 0 01-1.85-1.52 4.5 4.5 0 01-.66-2.55v-16zm14.52 10.7V240h-3.86v-21.82h3.78v8.24h.19c.38-.93.97-1.65 1.78-2.19.8-.54 1.84-.8 3.09-.8 1.13 0 2.12.23 2.97.7.84.48 1.5 1.18 1.96 2.1.47.91.7 2.03.7 3.35V240h-3.85v-9.82c0-1.1-.29-1.96-.86-2.57a3.03 3.03 0 00-2.36-.93c-.68 0-1.3.15-1.83.45-.54.3-.96.71-1.26 1.27a4.2 4.2 0 00-.45 2.01zm18.23 3.17v-.28c0-1.29.13-2.3.36-3.07.24-.76.58-1.37 1.02-1.83.44-.47.98-.9 1.61-1.29a7.5 7.5 0 001.16-.88c.35-.33.63-.7.82-1.1.2-.4.3-.85.3-1.34 0-.56-.13-1.05-.4-1.46a2.67 2.67 0 00-1.06-.96 3.18 3.18 0 00-1.48-.34c-.5 0-.98.1-1.44.33a2.8 2.8 0 00-1.12.98c-.29.43-.45.98-.49 1.65h-3.79c.04-1.35.36-2.48.98-3.39a5.8 5.8 0 012.47-2.05 8.36 8.36 0 013.41-.68c1.36 0 2.55.24 3.58.72a5.47 5.47 0 013.3 5.15c0 .8-.14 1.53-.4 2.17-.26.64-.62 1.2-1.1 1.7a8 8 0 01-1.69 1.33c-.58.36-1.05.73-1.42 1.11-.36.38-.63.84-.8 1.35a6.27 6.27 0 00-.27 1.9v.28h-3.55zm1.85 6.64c-.64 0-1.19-.22-1.65-.68-.46-.45-.7-1-.7-1.66 0-.64.24-1.18.7-1.64a2.27 2.27 0 011.65-.68c.64 0 1.18.22 1.64.68.47.46.7 1 .7 1.64 0 .43-.1.83-.32 1.18-.22.36-.5.64-.86.86-.34.2-.73.3-1.16.3z" fill="#fff"/><path fill="#CFCFCF" d="M20 348h335v1H20zM20 273h335v1H20zM20 424h335v1H20zM20 500h335v1H20zM20 576h335v1H20z"/><path d="M81.3 380.9V394h2.27v-9.01h.12l3.62 8.97H89l3.61-8.95h.13V394h2.27v-13.1h-2.9l-3.89 9.5h-.15l-3.89-9.5h-2.9zm20.55 13.3c2.29 0 3.86-1.13 4.27-2.83l-2.16-.25c-.32.83-1.08 1.27-2.08 1.27-1.5 0-2.49-.99-2.5-2.67h6.83v-.7c0-3.45-2.07-4.97-4.48-4.97-2.82 0-4.65 2.07-4.65 5.1 0 3.08 1.8 5.04 4.77 5.04zm-2.47-6.04c.07-1.25 1-2.3 2.38-2.3 1.33 0 2.22.97 2.24 2.3h-4.62zm11.1.09c0-1.42.86-2.24 2.08-2.24 1.2 0 1.91.79 1.91 2.1V394h2.32v-6.25c0-2.35-1.34-3.7-3.36-3.7-1.48 0-2.49.7-2.93 1.8h-.12v-1.67h-2.2V394h2.3v-5.75zm13.56-4.07h-1.93v-2.35h-2.32v2.35h-1.4v1.8h1.4v5.45c-.01 1.85 1.33 2.75 3.07 2.7a4.65 4.65 0 001.36-.23l-.39-1.8c-.13.03-.39.08-.68.08-.58 0-1.04-.2-1.04-1.13v-5.08h1.93v-1.79zm4.76 10.02c1.54 0 2.46-.72 2.89-1.55h.07V394H134v-6.57c0-2.6-2.12-3.38-4-3.38-2.06 0-3.64.92-4.15 2.71l2.16.31c.23-.67.88-1.25 2.01-1.25 1.08 0 1.66.55 1.66 1.52v.04c0 .66-.7.7-2.43.88-1.9.2-3.72.77-3.72 2.99 0 1.93 1.41 2.95 3.28 2.95zm.6-1.7c-.96 0-1.65-.44-1.65-1.3 0-.88.77-1.25 1.8-1.4.61-.08 1.83-.24 2.13-.48v1.16c0 1.1-.88 2.02-2.28 2.02zm9.23-11.6h-2.32V394h2.32v-13.1zm6.94 13.1h2.38v-5.56H154V394h2.38v-13.1h-2.38v5.55h-6.06v-5.54h-2.38V394zm17.64.2c2.3 0 3.86-1.13 4.27-2.83l-2.16-.25c-.31.83-1.08 1.27-2.07 1.27-1.5 0-2.5-.99-2.51-2.67h6.84v-.7c0-3.45-2.07-4.97-4.49-4.97-2.81 0-4.65 2.07-4.65 5.1 0 3.08 1.81 5.04 4.77 5.04zm-2.46-6.04c.07-1.25 1-2.3 2.37-2.3 1.33 0 2.23.97 2.24 2.3h-4.61zm11.61 6.04c1.54 0 2.46-.72 2.88-1.55h.08V394h2.23v-6.57c0-2.6-2.12-3.38-4-3.38-2.06 0-3.64.92-4.15 2.71l2.16.31c.23-.67.88-1.25 2.01-1.25 1.07 0 1.66.55 1.66 1.52v.04c0 .66-.7.7-2.43.88-1.9.2-3.72.77-3.72 2.99 0 1.93 1.4 2.95 3.28 2.95zm.6-1.7c-.96 0-1.65-.44-1.65-1.3 0-.88.77-1.25 1.8-1.4.61-.08 1.83-.24 2.13-.48v1.16c0 1.1-.88 2.02-2.28 2.02zm9.23-11.6h-2.32V394h2.32v-13.1zm7.28 3.28h-1.94v-2.35h-2.31v2.35h-1.4v1.8h1.4v5.45c-.01 1.85 1.33 2.75 3.07 2.7a4.66 4.66 0 001.36-.23l-.4-1.8c-.12.03-.38.08-.67.08-.58 0-1.05-.2-1.05-1.13v-5.08h1.94v-1.79zm4.46 4.07c0-1.42.88-2.24 2.12-2.24 1.21 0 1.93.77 1.93 2.1V394h2.31v-6.25c0-2.37-1.34-3.7-3.38-3.7-1.5 0-2.46.69-2.92 1.8h-.11v-4.94h-2.26V394h2.3v-5.75z" fill="#fff"/><path d="M328 380l7 7-7 7" stroke="#B9B9B9" stroke-width="1.5" stroke-linecap="round" stroke-linejoin="round"/><path d="M85.73 546c3.99 0 6.35-2.47 6.35-6.56 0-4.08-2.36-6.53-6.26-6.53h-4.53V546h4.44zm-2.07-2.05v-8.99h2.02c2.66 0 4.05 1.48 4.05 4.48 0 3.01-1.39 4.5-4.12 4.5h-1.95zM94.23 546h2.32v-5.77c0-1.25.94-2.13 2.2-2.13.4 0 .88.07 1.08.13v-2.13a5.6 5.6 0 00-.83-.06c-1.12 0-2.06.64-2.42 1.78h-.1v-1.64h-2.25V546zm13.4-4.13c0 1.5-1.07 2.24-2.1 2.24-1.1 0-1.85-.79-1.85-2.03v-5.9h-2.31v6.25c0 2.36 1.34 3.7 3.27 3.7 1.47 0 2.5-.78 2.95-1.88h.1V546h2.25v-9.82h-2.31v5.7zm8.96 8.02c2.65 0 4.6-1.22 4.6-3.73v-9.98h-2.27v1.63h-.13a2.93 2.93 0 00-2.82-1.76c-2.27 0-4.05 1.78-4.05 5 0 3.21 1.78 4.8 4.04 4.8 1.68 0 2.47-.9 2.83-1.61h.11v1.86c0 1.44-.96 2.03-2.27 2.03-1.4 0-2-.65-2.29-1.23l-2.08.5c.42 1.38 1.83 2.49 4.33 2.49zm.02-5.85c-1.53 0-2.33-1.18-2.33-3 0-1.78.79-3.09 2.33-3.09 1.49 0 2.3 1.24 2.3 3.1 0 1.87-.83 3-2.3 3zm14.72-5.26c-.32-1.66-1.65-2.73-3.95-2.73-2.37 0-3.98 1.17-3.97 2.98 0 1.43.88 2.38 2.76 2.77l1.68.35c.9.2 1.32.56 1.32 1.12 0 .67-.73 1.18-1.83 1.18-1.06 0-1.75-.46-1.95-1.35l-2.25.22c.28 1.8 1.8 2.87 4.2 2.87 2.46 0 4.2-1.27 4.2-3.13 0-1.4-.9-2.26-2.76-2.66l-1.67-.36c-1-.22-1.4-.57-1.4-1.13 0-.67.74-1.13 1.7-1.13 1.07 0 1.63.58 1.81 1.23l2.11-.23zm11.93-6.49h-2.03l-4.22 15.68h2.03l4.22-15.68zM149.3 546h2.37v-4.42h2.5c3.03 0 4.66-1.82 4.66-4.34 0-2.5-1.6-4.33-4.62-4.33h-4.9V546zm2.37-6.37v-4.74h2.18c1.77 0 2.56.96 2.56 2.35 0 1.4-.79 2.39-2.55 2.39h-2.19zm13.26 6.56c2.87 0 4.7-2.03 4.7-5.06 0-3.04-1.83-5.08-4.7-5.08-2.88 0-4.71 2.04-4.71 5.08 0 3.03 1.83 5.06 4.7 5.06zm0-1.85c-1.58 0-2.36-1.42-2.36-3.22 0-1.8.78-3.23 2.37-3.23 1.56 0 2.34 1.44 2.34 3.23 0 1.8-.78 3.22-2.34 3.22zm6.66 1.66h2.32v-9.82h-2.32V546zm1.17-11.21c.73 0 1.33-.56 1.33-1.25 0-.7-.6-1.26-1.33-1.26-.75 0-1.35.56-1.35 1.26 0 .69.6 1.25 1.35 1.25zm11.29 3.99c-.32-1.66-1.65-2.73-3.95-2.73-2.37 0-3.98 1.17-3.97 2.98-.01 1.43.87 2.38 2.76 2.77l1.67.35c.9.2 1.33.56 1.33 1.12 0 .67-.73 1.18-1.83 1.18-1.06 0-1.75-.46-1.95-1.35l-2.26.22c.29 1.8 1.8 2.87 4.21 2.87 2.46 0 4.2-1.27 4.2-3.13 0-1.4-.91-2.26-2.76-2.66l-1.68-.36c-1-.22-1.4-.57-1.39-1.13 0-.67.73-1.13 1.7-1.13 1.07 0 1.63.58 1.8 1.23l2.12-.23zm6.4 7.41c2.88 0 4.7-2.03 4.7-5.06 0-3.04-1.83-5.08-4.7-5.08-2.88 0-4.7 2.04-4.7 5.08 0 3.03 1.82 5.06 4.7 5.06zm.01-1.85c-1.6 0-2.37-1.42-2.37-3.22 0-1.8.78-3.23 2.37-3.23 1.57 0 2.35 1.44 2.35 3.23 0 1.8-.78 3.22-2.35 3.22zm8.97-4.1c0-1.41.86-2.23 2.08-2.23 1.2 0 1.9.79 1.9 2.1V546h2.32v-6.25c.01-2.35-1.33-3.7-3.36-3.7-1.47 0-2.48.7-2.93 1.8h-.11v-1.67h-2.21V546h2.31v-5.75zm8.66 5.76h2.3v-9.82h-2.3V546zm1.16-11.21c.73 0 1.34-.56 1.34-1.25 0-.7-.6-1.26-1.34-1.26-.74 0-1.34.56-1.34 1.26 0 .69.6 1.25 1.34 1.25zm5.84 5.46c0-1.42.86-2.24 2.08-2.24 1.2 0 1.91.79 1.91 2.1V546h2.31v-6.25c.01-2.35-1.33-3.7-3.36-3.7-1.47 0-2.48.7-2.93 1.8H215v-1.67h-2.21V546h2.31v-5.75zm12.93 9.64c2.65 0 4.6-1.22 4.6-3.73v-9.98h-2.28v1.63h-.12a2.93 2.93 0 00-2.82-1.76c-2.27 0-4.06 1.78-4.06 5 0 3.21 1.79 4.8 4.05 4.8 1.68 0 2.47-.9 2.83-1.61h.11v1.86c0 1.44-.96 2.03-2.27 2.03-1.4 0-2.01-.65-2.3-1.23l-2.08.5c.42 1.38 1.84 2.49 4.34 2.49zm.02-5.85c-1.53 0-2.34-1.18-2.34-3 0-1.78.8-3.09 2.34-3.09 1.49 0 2.3 1.24 2.3 3.1 0 1.87-.83 3-2.3 3z" fill="#fff"/><path d="M328 532l7 7-7 7" stroke="#B9B9B9" stroke-width="1.5" stroke-linecap="round" stroke-linejoin="round"/><path d="M81.3 470h2.36v-5.56h6.07V470h2.38v-13.1h-2.38v5.55h-6.07v-5.54H81.3V470zm17.57.2c2.87 0 4.7-2.03 4.7-5.07 0-3.04-1.83-5.08-4.7-5.08-2.88 0-4.7 2.04-4.7 5.08s1.82 5.06 4.7 5.06zm0-1.86c-1.58 0-2.36-1.42-2.36-3.22 0-1.8.78-3.23 2.37-3.23 1.56 0 2.34 1.44 2.34 3.23 0 1.8-.78 3.22-2.34 3.22zm6.66 1.66h2.32v-5.97c0-1.2.8-2.03 1.8-2.03.98 0 1.65.66 1.65 1.67V470h2.27v-6.12c0-1.1.66-1.88 1.78-1.88.93 0 1.67.55 1.67 1.77V470h2.32v-6.59c0-2.2-1.26-3.36-3.07-3.36-1.42 0-2.5.7-2.94 1.8h-.1c-.38-1.11-1.34-1.8-2.66-1.8-1.31 0-2.3.68-2.7 1.8h-.12v-1.67h-2.22V470zm20.5.2c2.3 0 3.87-1.13 4.28-2.83l-2.16-.25c-.32.83-1.09 1.27-2.08 1.27-1.5 0-2.49-.99-2.5-2.67h6.83v-.7c0-3.45-2.07-4.97-4.49-4.97-2.8 0-4.64 2.07-4.64 5.1 0 3.08 1.8 5.04 4.77 5.04zm-2.46-6.04c.07-1.25 1-2.3 2.38-2.3 1.33 0 2.22.97 2.23 2.3h-4.61zm11.1-7.25h-2.31V470h2.31v-13.1zm6.73 13.28c2.29 0 3.86-1.12 4.27-2.82l-2.16-.25c-.31.83-1.08 1.27-2.08 1.27-1.5 0-2.49-.99-2.5-2.67h6.83v-.7c0-3.45-2.07-4.97-4.48-4.97-2.81 0-4.65 2.07-4.65 5.1 0 3.08 1.8 5.04 4.77 5.04zm-2.47-6.03c.07-1.25 1-2.3 2.38-2.3 1.33 0 2.22.97 2.24 2.3h-4.62zm16.55-1.38c-.32-1.66-1.65-2.73-3.95-2.73-2.36 0-3.97 1.17-3.97 2.98 0 1.43.88 2.38 2.76 2.77l1.68.35c.9.2 1.32.56 1.32 1.12 0 .67-.73 1.18-1.83 1.18-1.06 0-1.75-.46-1.95-1.35l-2.25.22c.28 1.8 1.8 2.87 4.21 2.87 2.45 0 4.19-1.27 4.2-3.13-.01-1.4-.91-2.26-2.77-2.66l-1.67-.36c-1-.22-1.4-.57-1.39-1.14 0-.66.73-1.12 1.7-1.12 1.06 0 1.62.58 1.8 1.23l2.11-.23zm9.88 0c-.32-1.66-1.65-2.73-3.95-2.73-2.36 0-3.97 1.17-3.97 2.98 0 1.43.88 2.38 2.76 2.77l1.68.35c.9.2 1.32.56 1.32 1.12 0 .67-.73 1.18-1.83 1.18-1.06 0-1.75-.46-1.95-1.35l-2.25.22c.28 1.8 1.8 2.87 4.2 2.87 2.46 0 4.2-1.27 4.2-3.13 0-1.4-.9-2.26-2.76-2.66l-1.67-.36c-1-.22-1.4-.57-1.4-1.14 0-.66.74-1.12 1.7-1.12 1.07 0 1.63.58 1.81 1.23l2.11-.23zm8.37 7.22l1.08-3.23h4.92l1.09 3.23h2.53l-4.62-13.1h-2.92L171.2 470h2.53zm1.72-5.13l1.77-5.28h.1l1.77 5.28h-3.64zm17.12-2.1c-.32-1.65-1.65-2.72-3.95-2.72-2.36 0-3.97 1.17-3.97 2.98 0 1.43.88 2.38 2.76 2.77l1.68.35c.9.2 1.32.56 1.32 1.12 0 .67-.73 1.18-1.83 1.18-1.06 0-1.75-.46-1.95-1.35l-2.25.22c.28 1.8 1.8 2.87 4.21 2.87 2.45 0 4.19-1.27 4.2-3.13-.01-1.4-.91-2.26-2.77-2.66l-1.67-.36c-1-.22-1.4-.57-1.39-1.14 0-.66.73-1.12 1.7-1.12 1.06 0 1.62.58 1.8 1.23l2.11-.23zm9.88 0c-.32-1.65-1.65-2.72-3.95-2.72-2.37 0-3.97 1.17-3.97 2.98 0 1.43.88 2.38 2.76 2.77l1.68.35c.9.2 1.32.56 1.32 1.12 0 .67-.73 1.18-1.83 1.18-1.06 0-1.75-.46-1.95-1.35l-2.25.22c.28 1.8 1.8 2.87 4.2 2.87 2.46 0 4.2-1.27 4.2-3.13 0-1.4-.9-2.26-2.76-2.66l-1.67-.36c-1-.22-1.4-.57-1.4-1.14 0-.66.74-1.12 1.7-1.12 1.07 0 1.63.58 1.81 1.23l2.11-.23zm2.12 7.23h2.31v-9.82h-2.31V470zm1.16-11.21c.74 0 1.34-.56 1.34-1.25 0-.7-.6-1.26-1.34-1.26-.74 0-1.34.56-1.34 1.26 0 .69.6 1.25 1.34 1.25zm11.3 3.99c-.33-1.66-1.66-2.73-3.96-2.73-2.36 0-3.97 1.17-3.97 2.98 0 1.43.88 2.38 2.77 2.77l1.67.35c.9.2 1.32.56 1.32 1.12 0 .67-.73 1.18-1.83 1.18-1.06 0-1.75-.46-1.94-1.35l-2.26.22c.29 1.8 1.8 2.87 4.21 2.87 2.46 0 4.19-1.27 4.2-3.13-.01-1.4-.91-2.26-2.77-2.66l-1.67-.36c-1-.22-1.4-.57-1.39-1.14 0-.66.73-1.12 1.7-1.12 1.06 0 1.63.58 1.8 1.23l2.11-.23zm7.01-2.6h-1.93v-2.35h-2.32v2.35h-1.39v1.8h1.4v5.45c-.02 1.85 1.32 2.75 3.06 2.7a4.65 4.65 0 001.36-.23l-.39-1.8c-.12.03-.39.08-.67.08-.59 0-1.05-.2-1.05-1.13v-5.08h1.93v-1.79zm4.77 10.02c1.54 0 2.46-.72 2.88-1.55h.07V470H234v-6.57c0-2.6-2.12-3.38-3.99-3.38-2.06 0-3.65.92-4.16 2.71l2.16.31c.23-.67.88-1.25 2.01-1.25 1.08 0 1.67.55 1.67 1.52v.04c0 .66-.7.7-2.43.88-1.9.2-3.73.77-3.73 2.99 0 1.93 1.41 2.95 3.28 2.95zm.6-1.7c-.97 0-1.66-.44-1.66-1.3 0-.88.77-1.25 1.8-1.4.62-.08 1.83-.24 2.13-.48v1.16c0 1.1-.88 2.02-2.27 2.02zm9.22-4.25c0-1.42.86-2.24 2.08-2.24 1.2 0 1.9.79 1.9 2.1V470h2.32v-6.25c0-2.35-1.33-3.7-3.36-3.7-1.47 0-2.48.7-2.93 1.8h-.11v-1.67h-2.21V470h2.31v-5.75zm12.94 5.94c2.47 0 4.04-1.46 4.2-3.55h-2.2a1.92 1.92 0 01-1.98 1.67c-1.45 0-2.38-1.21-2.38-3.22 0-1.98.95-3.17 2.38-3.17 1.1 0 1.8.72 1.97 1.66h2.21c-.16-2.13-1.82-3.53-4.22-3.53-2.87 0-4.69 2.08-4.69 5.08 0 2.97 1.77 5.06 4.7 5.06zm10.45 0c2.29 0 3.86-1.12 4.27-2.82l-2.16-.25c-.31.83-1.08 1.27-2.08 1.27-1.5 0-2.49-.99-2.5-2.67h6.84v-.7c0-3.45-2.07-4.97-4.5-4.97-2.8 0-4.64 2.07-4.64 5.1 0 3.08 1.81 5.04 4.77 5.04zm-2.47-6.03c.07-1.25 1-2.3 2.38-2.3 1.33 0 2.22.97 2.24 2.3h-4.62z" fill="#fff"/><path d="M328 456l7 7-7 7" stroke="#B9B9B9" stroke-width="1.5" stroke-linecap="round" stroke-linejoin="round"/><path d="M52.26 373.41a5.9 5.9 0 013.73 9.2 7.6 7.6 0 01-10.53 1.9 7.6 7.6 0 01-1.9-10.53.97.97 0 111.59 1.1 5.65 5.65 0 009.27 6.44 4 4 0 00-6.56-4.56 2.34 2.34 0 002.33 3.64 2.3 2.3 0 001.5-.97.67.67 0 00.12-.5.62.62 0 00-.3-.45.7.7 0 00-.96.18.97.97 0 01-1.59-1.1 2.63 2.63 0 013.65-.67 2.64 2.64 0 01.66 3.65 4.23 4.23 0 01-5.94 1.05 4.29 4.29 0 01-1.07-5.94 6 6 0 016-2.44z" fill="#fff"/><mask id="a" fill="#fff"><path d="M50.83 367.04c1.06.05 2.13.23 3.15.54l2.2.87c1.7.85 3.18 2.05 4.27 3.49 1.78 2.37 2.76 6.5 2.27 9.63a21.97 21.97 0 01-3.32 8.07c-.91 1.24-1.35 2.13-1.38 2.8-.13 2.54.43 5.02 2 8.83l.27.41c.2.3.1.72-.2.92-.3.2-.19.15-.9.13l-16.22-.02a.67.67 0 01-.53-1.06l.35-.47c.26-.52.35-.73.44-1.47a8.18 8.18 0 00-.32-3.16c-.04-.08-.3-.28-.64-.29-.35 0-.7.03-1.08.07h-.02c-.85.08-1.9.19-3.32-.08a2.05 2.05 0 01-1.36-.91c-.64-1-.43-2.44-.24-3.2v-.08c-.01-.04-.06-.1-.1-.13-.19-.23-.5-.62-.5-1.21v-.02c0-.16 0-.37.07-.6-.58-.88-.16-1.77-.01-2.09l.04-.09.06-.13c-.51-.17-1.63-.6-1.8-1.84-.13-1.02.56-2.04 1.72-3.6l.25-.33c.83-1.12.77-1.65.6-2.03-.54-1.27-.3-2.08-.05-2.94.06-.23.1-.5.17-.85.02-.18.06-.37.1-.58a9.98 9.98 0 014.35-6.66c2.38-1.53 5.37-2.12 9.68-1.92z"/></mask><path d="M50.83 367.04c1.06.05 2.13.23 3.15.54l2.2.87c1.7.85 3.18 2.05 4.27 3.49 1.78 2.37 2.76 6.5 2.27 9.63a21.97 21.97 0 01-3.32 8.07c-.91 1.24-1.35 2.13-1.38 2.8-.13 2.54.43 5.02 2 8.83l.27.41c.2.3.1.72-.2.92-.3.2-.19.15-.9.13l-16.22-.02a.67.67 0 01-.53-1.06l.35-.47c.26-.52.35-.73.44-1.47a8.18 8.18 0 00-.32-3.16c-.04-.08-.3-.28-.64-.29-.35 0-.7.03-1.08.07h-.02 0c-.85.08-1.9.19-3.32-.08a2.05 2.05 0 01-1.36-.91c-.64-1-.43-2.44-.24-3.2v-.08c-.01-.04-.06-.1-.1-.13-.19-.23-.5-.62-.5-1.21v-.02c0-.16 0-.37.07-.6-.58-.88-.16-1.77-.01-2.09h0l.04-.09.06-.13c-.51-.17-1.63-.6-1.8-1.84-.13-1.02.56-2.04 1.72-3.6l.25-.33c.83-1.12.77-1.65.6-2.03-.54-1.27-.3-2.08-.05-2.94h0c.06-.23.1-.5.17-.85.02-.18.06-.37.1-.58a9.98 9.98 0 014.35-6.66c2.38-1.53 5.37-2.12 9.68-1.92z" stroke="#fff" stroke-width="3.5" mask="url(#a)"/><path d="M83.66 608.9H81.3V622h2.37v-13.1zm2.47 13.1h2.31v-5.97c0-1.2.8-2.03 1.8-2.03.98 0 1.65.66 1.65 1.67V622h2.27v-6.12c0-1.1.66-1.88 1.78-1.88.93 0 1.67.55 1.67 1.77V622h2.33v-6.59c0-2.2-1.27-3.36-3.07-3.36-1.43 0-2.52.7-2.95 1.8h-.1c-.38-1.11-1.33-1.8-2.65-1.8-1.32 0-2.3.68-2.71 1.8h-.12v-1.67h-2.21V622zm16.15 0h2.32v-5.97c0-1.2.8-2.03 1.8-2.03.98 0 1.65.66 1.65 1.67V622h2.27v-6.12c0-1.1.66-1.88 1.77-1.88.94 0 1.68.55 1.68 1.77V622h2.32v-6.59c0-2.2-1.27-3.36-3.07-3.36-1.42 0-2.51.7-2.94 1.8h-.1c-.39-1.11-1.34-1.8-2.66-1.8s-2.3.68-2.71 1.8h-.12v-1.67h-2.2V622zm16.16 0h2.31v-9.82h-2.31V622zm1.16-11.21c.73 0 1.34-.56 1.34-1.25 0-.7-.6-1.26-1.34-1.26-.74 0-1.34.56-1.34 1.26 0 .69.6 1.25 1.34 1.25zm7.8 15.1c2.65 0 4.6-1.22 4.6-3.73v-9.98h-2.27v1.63h-.13a2.93 2.93 0 00-2.82-1.76c-2.27 0-4.05 1.78-4.05 5 0 3.21 1.78 4.8 4.04 4.8 1.69 0 2.47-.9 2.83-1.61h.11v1.86c0 1.44-.96 2.03-2.27 2.03-1.4 0-2-.65-2.29-1.23l-2.08.5c.42 1.38 1.83 2.49 4.33 2.49zm.02-5.85c-1.53 0-2.33-1.18-2.33-3 0-1.78.79-3.09 2.33-3.09 1.49 0 2.3 1.24 2.3 3.1 0 1.87-.82 3-2.3 3zm6.96 1.96h2.31v-5.77c0-1.25.94-2.13 2.22-2.13.39 0 .87.07 1.07.13v-2.13a5.61 5.61 0 00-.83-.06c-1.13 0-2.07.64-2.42 1.78h-.1v-1.64h-2.25V622zm9.77.2c1.54 0 2.46-.72 2.88-1.55h.08V622h2.22v-6.57c0-2.6-2.11-3.38-3.99-3.38-2.06 0-3.65.92-4.16 2.71l2.16.31c.23-.67.89-1.25 2.02-1.25 1.07 0 1.66.55 1.66 1.52v.04c0 .66-.7.7-2.43.88-1.9.2-3.73.77-3.73 2.99 0 1.92 1.42 2.95 3.29 2.95zm.6-1.7c-.97 0-1.66-.44-1.66-1.3 0-.88.78-1.25 1.81-1.4.61-.08 1.82-.24 2.13-.48v1.16c0 1.1-.89 2.02-2.28 2.02zm11.81-8.32h-1.93v-2.35h-2.32v2.35h-1.4v1.8h1.4v5.45c-.01 1.85 1.33 2.75 3.07 2.7a4.65 4.65 0 001.36-.23l-.39-1.8c-.13.03-.39.08-.68.08-.58 0-1.04-.2-1.04-1.13v-5.08h1.93v-1.79zm1.94 9.82h2.31v-9.82h-2.31V622zm1.16-11.21c.74 0 1.34-.56 1.34-1.25 0-.7-.6-1.26-1.34-1.26-.74 0-1.34.56-1.34 1.26 0 .69.6 1.25 1.34 1.25zm7.81 11.4c2.88 0 4.7-2.03 4.7-5.06 0-3.04-1.82-5.08-4.7-5.08-2.87 0-4.7 2.04-4.7 5.08 0 3.03 1.83 5.06 4.7 5.06zm.02-1.85c-1.6 0-2.38-1.42-2.38-3.22 0-1.8.78-3.23 2.38-3.23 1.56 0 2.34 1.44 2.34 3.23 0 1.8-.78 3.22-2.34 3.22zm8.97-4.1c0-1.41.85-2.23 2.07-2.23 1.2 0 1.91.79 1.91 2.1V622h2.32v-6.25c0-2.35-1.34-3.7-3.36-3.7-1.47 0-2.48.7-2.93 1.8h-.12v-1.67h-2.2V622h2.3v-5.75z" fill="#fff"/><path d="M328 608l7 7-7 7" stroke="#B9B9B9" stroke-width="1.5" stroke-linecap="round" stroke-linejoin="round"/><rect x="35" y="453" width="4" height="21" rx="1" stroke="#fff" stroke-width="1.75"/><rect x="60" y="463" width="4" height="11" rx="1" stroke="#fff" stroke-width="1.75"/><path stroke="#fff" stroke-width="1.75" d="M39 466h21v4H39z"/><rect x="39" y="462" width="8" height="4" rx="2" stroke="#fff" stroke-width="1.75"/><path d="M81.3 318h2.36v-4.42h2.5c3.03 0 4.66-1.82 4.66-4.34 0-2.5-1.6-4.33-4.62-4.33h-4.9V318zm2.36-6.37v-4.74h2.18c1.77 0 2.56.96 2.56 2.35 0 1.4-.79 2.39-2.55 2.39h-2.19zm11.43.62c0-1.42.88-2.24 2.12-2.24 1.21 0 1.93.77 1.93 2.1V318h2.31v-6.25c0-2.37-1.34-3.7-3.38-3.7-1.5 0-2.47.69-2.92 1.8h-.11v-4.94h-2.27V318h2.32v-5.75zm9.8 9.43c1.81 0 2.85-.93 3.4-2.5l3.95-10.99h-2.47l-2.27 7.4h-.1l-2.27-7.4h-2.45l3.56 10.01-.2.54c-.43 1.11-1.1 1.19-2.11.9l-.54 1.8c.31.13.88.24 1.5.24zm16.72-10.9c-.32-1.66-1.65-2.73-3.95-2.73-2.37 0-3.98 1.17-3.97 2.98 0 1.43.88 2.38 2.76 2.77l1.67.35c.9.2 1.33.56 1.33 1.12 0 .67-.73 1.18-1.83 1.18-1.06 0-1.75-.46-1.95-1.35l-2.26.22c.3 1.8 1.8 2.87 4.22 2.87 2.45 0 4.18-1.27 4.19-3.13 0-1.4-.9-2.26-2.76-2.66l-1.68-.36c-1-.22-1.39-.57-1.38-1.14-.01-.66.72-1.12 1.7-1.12 1.06 0 1.62.58 1.8 1.23l2.1-.23zm2.12 7.22h2.31v-9.82h-2.31V318zm1.16-11.21c.74 0 1.34-.56 1.34-1.25 0-.7-.6-1.26-1.34-1.26-.74 0-1.34.56-1.34 1.26 0 .69.6 1.25 1.34 1.25zm7.81 11.4c2.47 0 4.04-1.46 4.21-3.55h-2.21a1.91 1.91 0 01-1.98 1.67c-1.44 0-2.38-1.21-2.38-3.22 0-1.98.96-3.17 2.38-3.17 1.12 0 1.8.72 1.98 1.66h2.21c-.16-2.13-1.82-3.53-4.22-3.53-2.88 0-4.7 2.08-4.7 5.08 0 2.97 1.78 5.06 4.71 5.06zm8.94 0c1.54 0 2.46-.71 2.88-1.54h.07V318h2.23v-6.57c0-2.6-2.12-3.38-3.99-3.38-2.06 0-3.65.92-4.16 2.71l2.16.31c.23-.67.88-1.25 2.01-1.25 1.08 0 1.66.55 1.66 1.52v.04c0 .66-.7.7-2.42.88-1.9.2-3.73.77-3.73 2.99 0 1.93 1.41 2.95 3.28 2.95zm.6-1.7c-.97 0-1.66-.43-1.66-1.28 0-.9.77-1.26 1.81-1.41.6-.08 1.82-.24 2.12-.48v1.16c0 1.1-.88 2.02-2.27 2.02zm9.22-11.58h-2.31V318h2.31v-13.1zm8.7 0h-2.6l4.6 13.09h2.93l4.62-13.1h-2.61l-3.4 10.31h-.13l-3.41-10.3zM171.33 318h2.31v-9.82h-2.31V318zm1.16-11.21c.74 0 1.34-.56 1.34-1.25 0-.7-.6-1.26-1.34-1.26-.74 0-1.34.56-1.34 1.26 0 .69.6 1.25 1.34 1.25zm7.82 11.4c2.87 0 4.7-2.02 4.7-5.06 0-3.04-1.83-5.08-4.7-5.08-2.88 0-4.7 2.04-4.7 5.08s1.82 5.06 4.7 5.06zm0-1.85c-1.58 0-2.36-1.42-2.36-3.22 0-1.8.78-3.23 2.37-3.23 1.56 0 2.34 1.44 2.34 3.23 0 1.8-.78 3.22-2.34 3.22zm8.98-11.43h-2.32V318h2.32v-13.1zm6.72 13.28c2.3 0 3.87-1.12 4.27-2.82l-2.16-.25c-.31.83-1.08 1.27-2.07 1.27-1.5 0-2.5-.99-2.51-2.67h6.84v-.7c0-3.45-2.07-4.97-4.49-4.97-2.81 0-4.64 2.07-4.64 5.1 0 3.08 1.8 5.04 4.76 5.04zm-2.46-6.03c.07-1.25 1-2.3 2.38-2.3 1.32 0 2.22.97 2.23 2.3h-4.61zm11.1.09c0-1.42.86-2.24 2.08-2.24 1.2 0 1.91.79 1.91 2.1V318h2.31v-6.25c.01-2.35-1.33-3.7-3.36-3.7-1.47 0-2.48.7-2.93 1.8h-.11v-1.67h-2.21V318h2.31v-5.75zm12.94 5.94c2.47 0 4.04-1.46 4.2-3.55h-2.2a1.91 1.91 0 01-1.98 1.67c-1.45 0-2.38-1.21-2.38-3.22 0-1.98.95-3.17 2.38-3.17 1.11 0 1.8.72 1.97 1.66h2.21c-.16-2.13-1.82-3.53-4.21-3.53-2.88 0-4.7 2.08-4.7 5.08 0 2.97 1.78 5.06 4.7 5.06zm10.45 0c2.29 0 3.86-1.12 4.27-2.82l-2.16-.25c-.31.83-1.08 1.27-2.08 1.27-1.5 0-2.48-.99-2.5-2.67h6.84v-.7c0-3.45-2.07-4.97-4.49-4.97-2.81 0-4.65 2.07-4.65 5.1 0 3.08 1.81 5.04 4.77 5.04zm-2.47-6.03c.07-1.25 1-2.3 2.38-2.3 1.33 0 2.23.97 2.24 2.3h-4.62z" fill="#fff"/><path d="M328 304l7 7-7 7" stroke="#B9B9B9" stroke-width="1.5" stroke-linecap="round" stroke-linejoin="round"/><path d="M39.69 316.08a3.93 3.93 0 006.68 1.36c1.09 2.35 3.53 2.23 3.6 2.25v.6c0 1.5 1.21 2.7 2.74 2.7 0 0 0 0 0 0 3.23-.14 4.91.42 7.1-.83l.05-.04.17-.1c2.51-1.33 3.78-3.25 3.78-5.65.05-.49.41-4.85-.02-6.4-.47-1.74-2.98-5.38-3.96-6.8-1.76-2.82-4.09-.76-7.07-2.27-1.83-.91-3.58-1.3-5.58-.37-1.3.4-1.12 1.07-4.38 1-1.85-.06-3.37.01-4.36 1.72-.68 1.2-1.94 1.06-2 1.07a3.42 3.42 0 00-3.44 3.4v5.68c0 3.4 4.23 5.16 6.69 2.69zm20.63-.25a337.52 337.52 0 01.01-9.61c1.06 1.63 1.99 3.24 2.22 4.08.31 1.13.09 4.69-.03 6.02 0 2.62-1.77 3.87-3.1 4.58-.14.08-.23.12-.3.18-1.78 1-3.29.5-6.44.63-1.76 0-1.4-2.15-1.42-2.25.7-.26 1.46-.82 1.91-1.5 2.1 3.14 7.15 1.73 7.15-2.13zm-26.03-8.12c0-1.16.96-2.11 2.15-2.11.06-.02 2.06.16 3.13-1.72.79-1.37 2.13-1.07 4-1.07 2.5 0 3.26-.82 4.16-1.12 3.12-1.44 3.98 1.12 7.85 1.12 1.35.08 2.36-.28 3.17 1.05.2.35.31 12.06.23 12.5-.63 3-5.16 2.55-5.16-.52V309.36a.64.64 0 00-.65-.63.64.64 0 00-.65.63v6.5c0 1.25-.93 2.47-2.6 2.56a2.6 2.6 0 01-2.61-2.58v-6.48a.64.64 0 00-.65-.63.64.64 0 00-.64.63v5.57c0 2.27-2.79 3.45-4.46 1.81-.84-.82-.74-1.74-.76-1.81v-5.57a.64.64 0 00-.64-.63.64.64 0 00-.65.63v4.04c0 2.28-2.82 3.42-4.45 1.82-1.27-1.26-.57-2.5-.77-7.5z" fill="#fff" stroke="#fff" stroke-width=".75"/><path d="M56.5 529.07l-4.13-2.26v-1.57h.65a.65.65 0 00.66-.66v-3.93a.65.65 0 00-.66-.65H42.55a.65.65 0 00-.66.65v3.93a.65.65 0 00.66.66h.65v1.57l-4.13 2.26a5.9 5.9 0 00-3.07 5.17v17.84a4.6 4.6 0 004.58 4.59h14.4a4.6 4.6 0 004.6-4.59v-17.84a5.9 5.9 0 00-3.08-5.17zm-13.3-7.76h9.17v2.62H43.2v-2.62zm-3.5 8.9l4.13-2.25a1.3 1.3 0 00.68-1.15v-1.57h6.55v1.57a1.3 1.3 0 00.68 1.15l4.13 2.26a4.58 4.58 0 012.4 4.02v.16H37.3v-.16a4.58 4.58 0 012.39-4.02zm18.56 21.22H37.31V534.4h20.95v17.02zM55 555.36h-14.4a3.28 3.28 0 01-3.28-3.28v-.65h20.95v.65a3.28 3.28 0 01-3.27 3.28zm-12.76-8.74l1.85 1.85a.66.66 0 00.93 0l2.78-2.78 2.77 2.78a.66.66 0 00.93 0l1.85-1.85a.65.65 0 000-.93l-2.78-2.77 2.78-2.78a.65.65 0 000-.93l-1.85-1.85a.65.65 0 00-.93 0l-2.77 2.78-2.78-2.78a.65.65 0 00-.93 0l-1.85 1.85a.65.65 0 000 .93l2.78 2.78-2.78 2.77a.66.66 0 000 .93zm4.17-3.24a.66.66 0 000-.93l-2.78-2.77.92-.93 2.78 2.78a.68.68 0 00.93 0l2.78-2.78.92.93-2.78 2.77a.66.66 0 00-.14.72c.04.08.08.15.14.21l2.78 2.78-.92.92-2.78-2.78a.67.67 0 00-.46-.19.67.67 0 00-.47.2l-2.78 2.77-.92-.92 2.78-2.78z" fill="#fff"/><path d="M52.37 526.81l4.13 2.26a5.9 5.9 0 013.07 5.17v17.84a4.6 4.6 0 01-4.58 4.59h-14.4a4.6 4.6 0 01-4.59-4.59v-17.84a5.9 5.9 0 013.07-5.17l4.13-2.26v-1.57h-.65a.65.65 0 01-.66-.66v-3.93a.65.65 0 01.66-.65h10.47a.65.65 0 01.66.65v3.93a.65.65 0 01-.66.66h-.65v1.57zm0 0h-.66m6.55 7.6v-.17a4.58 4.58 0 00-2.39-4.02l-4.13-2.26a1.3 1.3 0 01-.68-1.15v-1.57h-6.55v1.57a1.3 1.3 0 01-.68 1.15l-4.13 2.26a4.58 4.58 0 00-2.4 4.02v.16m20.96 0H37.31m20.95 0v17.03M37.31 534.4v17.02m20.95 0H37.31m20.95 0v.65a3.28 3.28 0 01-3.27 3.28h-14.4a3.28 3.28 0 01-3.28-3.28v-.65m5.9-30.12h9.16v2.62H43.2v-2.62zm-.98 25.31l1.85 1.85a.66.66 0 00.93 0l2.78-2.78 2.77 2.78a.66.66 0 00.93 0l1.85-1.85a.65.65 0 000-.93l-2.78-2.77 2.78-2.78a.65.65 0 000-.93l-1.85-1.85a.65.65 0 00-.93 0l-2.77 2.78-2.78-2.78a.65.65 0 00-.93 0l-1.85 1.85a.65.65 0 000 .93l2.78 2.78-2.78 2.77a.66.66 0 000 .93zm4.17-3.24a.66.66 0 000-.93l-2.78-2.77.92-.93 2.78 2.78a.68.68 0 00.93 0l2.78-2.78.92.93-2.78 2.77a.66.66 0 00-.14.72c.04.08.08.15.14.21l2.78 2.78-.92.92-2.78-2.78a.67.67 0 00-.46-.19.67.67 0 00-.47.2l-2.78 2.77-.92-.92 2.78-2.78z" stroke="#fff" stroke-width=".25"/><rect x="34.88" y="604.88" width="29.56" height="20.25" rx="1.13" stroke="#fff" stroke-width="1.75" stroke-linejoin="round"/><path d="M43.05 615a2.56 2.56 0 11.01-5.11 2.56 2.56 0 010 5.11zm0-4.68a2.13 2.13 0 10.01 4.26 2.13 2.13 0 000-4.26z" fill="#000" stroke="#fff" stroke-width="1.25"/><rect x="51.45" y="609.89" width="7.3" height="1.46" rx=".73" fill="#fff"/><rect x="51.45" y="612.81" width="9.48" height="1.46" rx=".73" fill="#fff"/><rect x="51.45" y="615.73" width="9.48" height="1.46" rx=".73" fill="#fff"/><rect x="51.45" y="618.65" width="9.48" height="1.46" rx=".73" fill="#fff"/><path fill-rule="evenodd" clip-rule="evenodd" d="M47.8 620.41c0-2.18-2.37-3.95-4.74-3.95-2.38 0-4.75 1.77-4.75 3.95h.66c0-1.81 1.76-3.3 4.09-3.3 2.37 0 4.08 1.49 4.08 3.3h.66z" fill="#000"/><path d="M47.8 620.41v.5h.5v-.5h-.5zm-9.49 0h-.5v.5h.5v-.5zm.66 0v.5h.5v-.5h-.5zm8.17 0h-.5v.5h.5v-.5zm-4.09-3.45c1.07 0 2.15.4 2.95 1.05.8.64 1.3 1.5 1.3 2.4h1c0-1.28-.7-2.4-1.67-3.18a5.8 5.8 0 00-3.58-1.27v1zm-4.24 3.45c0-.9.5-1.75 1.3-2.4a4.8 4.8 0 012.95-1.05v-1c-1.31 0-2.6.49-3.58 1.27a4.15 4.15 0 00-1.67 3.18h1zm-.5.5h.66v-1h-.66v1zm4.74-4.3c-2.5 0-4.58 1.62-4.58 3.8h1c0-1.45 1.44-2.8 3.59-2.8v-1zm4.59 3.8c0-2.18-2.03-3.8-4.59-3.8v1c2.2 0 3.59 1.35 3.59 2.8h1zm-.5.5h.66v-1h-.66v1zM37 533h22v1.5H37zM37 551h22v1.5H37z" fill="#fff"/></svg>