<svg xmlns="http://www.w3.org/2000/svg" width="135" height="40"><defs><linearGradient id="a" x1="91.5%" x2="-38.336%" y1="4.963%" y2="71.904%"><stop offset="0%" stop-color="#00A0FF"/><stop offset=".657%" stop-color="#00A1FF"/><stop offset="26.01%" stop-color="#00BEFF"/><stop offset="51.22%" stop-color="#00D2FF"/><stop offset="76.04%" stop-color="#00DFFF"/><stop offset="100%" stop-color="#00E3FF"/></linearGradient><linearGradient id="b" x1="107.59%" x2="-130.463%" y1="50%" y2="50%"><stop offset="0%" stop-color="#FFE000"/><stop offset="40.87%" stop-color="#FFBD00"/><stop offset="77.54%" stop-color="orange"/><stop offset="100%" stop-color="#FF9C00"/></linearGradient><linearGradient id="c" x1="86.247%" x2="-50.141%" y1="17.846%" y2="194.81%"><stop offset="0%" stop-color="#FF3A44"/><stop offset="100%" stop-color="#C31162"/></linearGradient><linearGradient id="d" x1="-18.806%" x2="42.097%" y1="-54.153%" y2="24.869%"><stop offset="0%" stop-color="#32A071"/><stop offset="6.85%" stop-color="#2DA771"/><stop offset="47.62%" stop-color="#15CF74"/><stop offset="80.09%" stop-color="#06E775"/><stop offset="100%" stop-color="#00F076"/></linearGradient></defs><g fill="none"><path fill="#000" d="M130 40H5c-2.75 0-5-2.25-5-5V5c0-2.75 2.25-5 5-5h125c2.75 0 5 2.25 5 5v30c0 2.75-2.25 5-5 5z"/><path fill="#A6A6A6" d="M130 .8c2.316 0 4.2 1.884 4.2 4.2v30c0 2.316-1.884 4.2-4.2 4.2H5A4.205 4.205 0 0 1 .8 35V5C.8 2.684 2.684.8 5 .8h125zm0-.8H5C2.25 0 0 2.25 0 5v30c0 2.75 2.25 5 5 5h125c2.75 0 5-2.25 5-5V5c0-2.75-2.25-5-5-5z"/><path d="M47.418 10.243c0 .838-.248 1.506-.745 2.003-.564.592-1.3.888-2.204.888-.866 0-1.602-.3-2.208-.9-.606-.601-.909-1.346-.909-2.234 0-.889.303-1.633.91-2.233.605-.6 1.34-.901 2.207-.901.43 0 .841.084 1.232.251.39.168.704.391.938.67l-.527.529c-.398-.475-.945-.712-1.643-.712a2.28 2.28 0 0 0-1.638.666c-.462.444-.692 1.02-.692 1.73s.23 1.286.692 1.73a2.28 2.28 0 0 0 1.638.667c.67 0 1.229-.224 1.676-.67.29-.291.458-.696.503-1.216h-2.179v-.72h2.907c.029.156.042.307.042.452zm4.61-2.506h-2.733V9.64h2.464v.72h-2.464v1.903h2.733V13h-3.503V7h3.503zM55.279 13h-.772V7.737h-1.676V7h4.123v.737H55.28V13zm4.659 0V7h.77v6zm4.19 0h-.771V7.737H61.68V7h4.123v.737h-1.676zm9.482-.775c-.59.606-1.324.909-2.2.909-.878 0-1.611-.303-2.2-.91-.59-.605-.884-1.347-.884-2.224 0-.877.294-1.619.884-2.225.589-.606 1.322-.91 2.2-.91.871 0 1.603.305 2.195.914.592.61.888 1.35.888 2.221 0 .877-.295 1.619-.884 2.225zm-3.83-.503c.444.45.987.675 1.63.675a2.2 2.2 0 0 0 1.629-.675c.444-.45.667-1.024.667-1.722s-.223-1.272-.667-1.722a2.201 2.201 0 0 0-1.63-.674c-.642 0-1.185.224-1.63.674-.443.45-.666 1.024-.666 1.722s.223 1.273.666 1.722zM75.575 13V7h.939l2.916 4.668h.033l-.033-1.157v-3.51h.771v6h-.805l-3.05-4.895h-.034l.034 1.157V13h-.77z" fill="#FFF" stroke="#FFF" stroke-width=".2"/><path fill="#FFF" d="M68.136 21.752c-2.352 0-4.27 1.788-4.27 4.253 0 2.449 1.918 4.253 4.27 4.253 2.352 0 4.27-1.804 4.27-4.253 0-2.465-1.918-4.253-4.27-4.253zm0 6.83c-1.289 0-2.4-1.063-2.4-2.577 0-1.53 1.111-2.578 2.4-2.578s2.4 1.047 2.4 2.578c0 1.514-1.111 2.578-2.4 2.578zm-9.314-6.83c-2.352 0-4.269 1.788-4.269 4.253 0 2.449 1.917 4.253 4.27 4.253 2.351 0 4.269-1.804 4.269-4.253 0-2.465-1.918-4.253-4.27-4.253zm0 6.83c-1.288 0-2.4-1.063-2.4-2.577 0-1.53 1.112-2.578 2.4-2.578 1.29 0 2.4 1.047 2.4 2.578 0 1.514-1.11 2.578-2.4 2.578zm-11.078-5.525v1.804h4.317c-.129 1.015-.467 1.756-.983 2.272-.628.628-1.61 1.32-3.334 1.32-2.659 0-4.737-2.142-4.737-4.8s2.078-4.801 4.737-4.801c1.434 0 2.48.564 3.254 1.289l1.273-1.273c-1.08-1.031-2.514-1.82-4.527-1.82-3.641 0-6.702 2.964-6.702 6.605 0 3.64 3.06 6.605 6.702 6.605 1.965 0 3.447-.644 4.607-1.853 1.192-1.192 1.563-2.867 1.563-4.22 0-.42-.032-.806-.097-1.128h-6.073zm45.308 1.401c-.355-.95-1.434-2.706-3.641-2.706-2.191 0-4.012 1.724-4.012 4.253 0 2.384 1.805 4.253 4.221 4.253 1.95 0 3.077-1.192 3.545-1.885l-1.45-.967c-.484.71-1.144 1.177-2.095 1.177-.95 0-1.627-.436-2.062-1.29l5.687-2.351-.193-.484zm-5.8 1.418c-.048-1.643 1.273-2.481 2.223-2.481.741 0 1.37.37 1.58.902l-3.803 1.579zM82.628 30h1.87V17.5h-1.87V30zm-3.06-7.298h-.065c-.419-.5-1.224-.95-2.24-.95-2.126 0-4.075 1.869-4.075 4.269 0 2.384 1.95 4.237 4.076 4.237 1.015 0 1.82-.451 2.239-.967h.064v.613c0 1.627-.87 2.497-2.271 2.497-1.144 0-1.853-.822-2.143-1.515l-1.627.677c.467 1.128 1.708 2.513 3.77 2.513 2.19 0 4.044-1.289 4.044-4.43v-7.637h-1.773v.693zm-2.143 5.88c-1.289 0-2.368-1.079-2.368-2.561 0-1.498 1.079-2.594 2.368-2.594 1.273 0 2.271 1.096 2.271 2.594 0 1.482-.998 2.562-2.271 2.562zm24.38-11.083h-4.47V30H99.2v-4.736h2.606c2.068 0 4.101-1.497 4.101-3.883 0-2.385-2.033-3.882-4.101-3.882zm.049 6.025H99.2v-4.285h2.654c1.395 0 2.187 1.155 2.187 2.142 0 .97-.792 2.143-2.187 2.143zm11.532-1.795c-1.351 0-2.75.595-3.33 1.914l1.657.691c.354-.691 1.013-.917 1.705-.917.965 0 1.946.58 1.962 1.609v.128c-.338-.193-1.062-.482-1.946-.482-1.785 0-3.603.981-3.603 2.814 0 1.673 1.464 2.75 3.104 2.75 1.255 0 1.946-.562 2.38-1.222h.065v.965h1.801v-4.792c0-2.22-1.656-3.458-3.795-3.458zm-.225 6.851c-.612 0-1.464-.305-1.464-1.061 0-.965 1.061-1.335 1.978-1.335.82 0 1.206.177 1.705.418a2.262 2.262 0 0 1-2.22 1.978zm10.582-6.578l-2.139 5.42h-.064l-2.22-5.42h-2.01l3.33 7.575-1.899 4.214h1.946l5.131-11.789h-2.075zM106.936 30h1.866V17.5h-1.866V30z"/><path fill="url(#a)" d="M1.435.538c-.29.308-.463.786-.463 1.405v22.116c0 .62.172 1.097.463 1.405l.074.072L13.9 13.147v-.292L1.508.465l-.074.073z" transform="translate(9 7)"/><path fill="url(#b)" d="M18.028 17.279l-4.13-4.132v-.292l4.13-4.13.094.053 4.893 2.78c1.397.794 1.397 2.093 0 2.887l-4.893 2.78-.094.054z" transform="translate(9 7)"/><path fill="url(#c)" d="M18.122 17.225l-4.224-4.224L1.435 25.464c.461.488 1.221.548 2.078.061l14.609-8.3" transform="translate(9 7)"/><path fill="url(#d)" d="M18.122 8.777L3.513.477C2.656-.01 1.896.05 1.435.538l12.463 12.463 4.224-4.224z" transform="translate(9 7)"/><g fill="#000"><path d="M27.029 24.132l-14.516 8.247c-.812.462-1.537.43-2.003.011l-.075.075.074.072c.467.419 1.192.45 2.004-.012l14.609-8.3-.093-.093z" opacity=".2"/><path d="M10.435 32.318c-.29-.307-.463-.785-.463-1.405v.147c0 .619.172 1.097.463 1.405l.075-.075-.075-.072z" opacity=".12"/></g><path fill="#000" d="M32.015 21.299l-4.986 2.833.093.093 4.893-2.78c.698-.397 1.048-.92 1.048-1.444-.059.474-.415.938-1.048 1.298z" opacity=".12"/><path fill="#FFF" d="M12.513 7.623l19.502 11.08c.633.36.989.824 1.048 1.298 0-.523-.35-1.047-1.048-1.444L12.513 7.477c-1.397-.794-2.54-.134-2.54 1.466v.147c0-1.601 1.143-2.26 2.54-1.467z" opacity=".25"/></g></svg>