<?xml version="1.0" encoding="UTF-8"?>
<svg width="128px" height="40px" viewBox="0 0 128 40" version="1.1" xmlns="http://www.w3.org/2000/svg" xmlns:xlink="http://www.w3.org/1999/xlink">
    <!-- Generator: Sketch 51.3 (57544) - http://www.bohemiancoding.com/sketch -->
    <title>Group</title>
    <desc>Created with Sketch.</desc>
    <defs></defs>
    <g id="Page-1" stroke="none" stroke-width="1" fill="none" fill-rule="evenodd">
        <g id="Group">
            <rect id="Rectangle" fill="#3333FF" fill-rule="nonzero" x="0" y="0" width="128" height="40" rx="4"></rect>
            <g id="image" transform="translate(8.000000, 12.000000)" fill-rule="nonzero">
                <polygon id="Shape" fill="#FFFFFF" points="32.2192782 13.2387511 33.4839447 10.1095945 37.1355316 10.1095945 35.4025865 5.36283264 37.5699454 1.15936722e-05 43.7777778 16.1271847 39.1997256 16.1271847 38.1389219 13.2387511"></polygon>
                <polygon id="Shape" fill="#82F56B" points="28.3135918 16.1272286 34.959202 3.43623737e-05 30.5533903 5.579198e-05 26.0074089 10.4218102 22.7747609 7.72213668e-05 19.3882403 7.72213668e-05 15.9172367 10.4218102 13.469404 5.67283197 11.2542081 12.3503585 13.5032914 16.1272286 17.8391529 16.1272286 20.9757454 6.78116681 23.9663149 16.1272286"></polygon>
                <path d="M4.18212341,10.5909965 L6.89587466,10.5909965 C7.71791906,10.5909965 8.44991849,10.5012246 9.09187295,10.3216809 L9.79368545,8.20612799 L11.7551407,2.29347279 C11.6056862,2.06169195 11.4350606,1.84254413 11.2432637,1.63605784 C10.2361729,0.545346032 8.76270981,8.91497689e-06 6.82282946,8.91497689e-06 L-8.62230045e-08,8.91497689e-06 L-8.62230045e-08,16.1271847 L4.18212341,16.1271847 L4.18212341,10.5909965 Z M7.77418875,3.71022701 C8.16756079,4.0976 8.36422438,4.61597717 8.36422438,5.26540239 C8.36422438,5.91980886 8.19124385,6.43882239 7.84530521,6.822443 C7.46606227,7.24870031 6.76774841,7.46181799 5.75040847,7.46181799 L4.18212341,7.46181799 L4.18212341,3.12913461 L5.76193602,3.12913461 C6.71008823,3.12913461 7.38083914,3.32283208 7.77418875,3.71022701 Z" id="Shape" fill="#FFFFFF"></path>
            </g>
            <text id="Progressive-Web-App" font-family="Helvetica-Bold, Helvetica" font-size="10" font-weight="bold" fill="#FFFFFF">
                <tspan x="62" y="17">Progressive</tspan>
                <tspan x="62" y="29">Web App</tspan>
            </text>
        </g>
    </g>
</svg>